<svg id="crown" width="32" height="28" viewBox="0 0 32 28" aria-hidden="true" fill="none" xmlns="http://www.w3.org/2000/svg">
    <path d="M8 22H25V24H8V22Z" fill="#192A32" />
    <path d="M9 16L10.4201 14.5917L11.8402 16L10.4201 17.4083L9 16Z" fill="#192A32" />
    <path d="M20 16L21.4201 14.5917L22.8402 16L21.4201 17.4083L20 16Z" fill="#192A32" />
    <path d="M12 14.5L15.5 19L19 14.5L15.5 10L12 14.5ZM15.5 15.9918L14.3397 14.5L15.5 13.0082L16.6603 14.5L15.5 15.9918Z" fill="#192A32" />
    <path
        d="M32 10.2657C32 8.72346 30.7348 7.46878 29.1797 7.46878C27.6411 7.46878 26.3872 8.69706 26.3606 10.2166L24.5181 10.8251C23.1089 11.2905 21.5576 10.6965 20.8293 9.41288L18.1203 4.6381C18.5556 4.14573 18.8203 3.50162 18.8203 2.79689C18.8203 1.25468 17.5551 0 16 0C14.4449 0 13.1797 1.25468 13.1797 2.79689C13.1797 3.50156 13.4444 4.14573 13.8797 4.6381L11.1707 9.41288C10.4424 10.6965 8.89087 11.2903 7.482 10.8251L5.63938 10.2166C5.61281 8.69699 4.35888 7.46872 2.82031 7.46872C1.26519 7.46878 0 8.72346 0 10.2657C0 11.6739 1.05519 12.8419 2.42256 13.0342L3.55956 18.6719H2.45019V20.5313H3.76562V26.1406H2.45019V28H29.5498V26.1406H28.2344V20.5313H29.5498V18.6719H28.4404L29.5774 13.0342C30.9448 12.8419 32 11.6739 32 10.2657ZM29.1797 9.32821C29.7009 9.32821 30.125 9.74875 30.125 10.2657C30.125 10.7826 29.7009 11.2031 29.1797 11.2031C28.6584 11.2031 28.2344 10.7826 28.2344 10.2657C28.2344 9.74875 28.6584 9.32821 29.1797 9.32821ZM16 1.85949C16.5212 1.85949 16.9453 2.28003 16.9453 2.79696C16.9453 3.31388 16.5212 3.73442 16 3.73442C15.4788 3.73442 15.0547 3.31388 15.0547 2.79696C15.0547 2.28003 15.4788 1.85949 16 1.85949ZM1.875 10.2657C1.875 9.74875 2.29906 9.32821 2.82031 9.32821C3.34156 9.32821 3.76562 9.74875 3.76562 10.2657C3.76562 10.7826 3.34156 11.2031 2.82031 11.2031C2.29906 11.2031 1.875 10.7826 1.875 10.2657ZM26.3594 26.1406H5.64062V20.5313H26.3594V26.1406ZM5.47169 18.6719L4.26106 12.6688C4.564 12.4895 4.83006 12.2554 5.04594 11.9805L6.88963 12.5893C9.039 13.3256 11.659 12.4014 12.8049 10.3247L15.5131 5.55127C15.6714 5.57873 15.8339 5.59385 16.0001 5.59385C16.1662 5.59385 16.3288 5.57873 16.4871 5.55127L19.1953 10.3247C20.3623 12.3926 22.8665 13.322 25.1106 12.5893L26.9543 11.9806C27.1701 12.2555 27.4361 12.4896 27.7391 12.6689L26.5285 18.6719H5.47169V18.6719Z"
        fill="#192A32"
    />
</svg>