<svg width="192" height="64" viewBox="0 0 192 64" fill="none" xmlns="http://www.w3.org/2000/svg">
    <g clip-path="url(#clip0_2_1376)">
        <path
            d="M176.372 0.763388H15.8007C15.2154 0.763388 14.6371 0.763388 14.0533 0.766538C13.5647 0.769688 13.0799 0.778839 12.5866 0.786541C11.5148 0.798986 10.4455 0.892028 9.38807 1.06486C8.3321 1.24145 7.30922 1.57438 6.35401 2.05238C5.39996 2.53443 4.52823 3.1608 3.77042 3.90877C3.00864 4.65464 2.37363 5.51676 1.88982 6.46199C1.40468 7.40533 1.06828 8.41622 0.89224 9.45972C0.714528 10.5019 0.618899 11.5561 0.606213 12.6129C0.591401 13.0958 0.589836 13.5803 0.582031 14.0632V50.4682C0.589836 50.9572 0.591401 51.431 0.606213 51.9202C0.618903 52.9769 0.714532 54.031 0.89224 55.0732C1.06779 56.1173 1.40421 57.1287 1.88982 58.0724C2.37341 59.0146 3.00851 59.8732 3.77042 60.615C4.52535 61.3663 5.39765 61.9931 6.35401 62.4714C7.30921 62.9507 8.33198 63.2856 9.38807 63.4649C10.4457 63.6364 11.5148 63.7295 12.5866 63.7434C13.0799 63.7541 13.5647 63.7602 14.0533 63.7602C14.6371 63.7634 15.2154 63.7634 15.8007 63.7634H176.372C176.946 63.7634 177.529 63.7634 178.102 63.7602C178.589 63.7602 179.087 63.7541 179.574 63.7434C180.643 63.7302 181.71 63.6371 182.766 63.4649C183.825 63.2843 184.852 62.9495 185.812 62.4714C186.767 61.9928 187.639 61.366 188.393 60.615C189.153 59.8703 189.789 59.0123 190.279 58.0724C190.761 57.1281 191.094 56.1167 191.267 55.0732C191.445 54.0309 191.544 52.977 191.563 51.9202C191.57 51.431 191.57 50.9572 191.57 50.4682C191.582 49.896 191.582 49.3269 191.582 48.7454V15.7828C191.582 15.206 191.582 14.6338 191.57 14.0632C191.57 13.5803 191.57 13.0958 191.563 12.6128C191.544 11.556 191.445 10.502 191.267 9.45966C191.094 8.41676 190.76 7.40596 190.279 6.46193C189.294 4.56732 187.731 3.02513 185.812 2.05224C184.852 1.57541 183.825 1.24257 182.766 1.06472C181.711 0.891125 180.643 0.798051 179.574 0.78632C179.087 0.778634 178.589 0.769405 178.102 0.766334C177.529 0.763184 176.946 0.763184 176.372 0.763184V0.763388Z"
            fill="#192A32"
        />
        <path
            d="M14.061 62.3851C13.5747 62.3851 13.1001 62.379 12.6176 62.3683C11.6181 62.3554 10.6209 62.2695 9.63422 62.1114C8.71419 61.955 7.82293 61.6642 6.98984 61.2484C6.16438 60.8361 5.4115 60.2955 4.76004 59.6473C4.09914 59.0067 3.54892 58.2637 3.13117 57.4478C2.70881 56.6266 2.41652 55.7463 2.26447 54.8377C2.10026 53.8614 2.01142 52.8742 1.99871 51.8846C1.98859 51.5524 1.97534 50.4465 1.97534 50.4465V14.0631C1.97534 14.0631 1.98945 12.9741 1.99879 12.6542C2.01096 11.6661 2.09929 10.6805 2.263 9.70566C2.41533 8.79455 2.70785 7.91176 3.13043 7.08785C3.54665 6.27249 4.09382 5.52896 4.75073 4.88608C5.40691 4.23709 6.1622 3.69368 6.98906 3.27569C7.82024 2.86128 8.70981 2.57249 9.62798 2.41898C10.6179 2.25922 11.6186 2.17285 12.6215 2.16059L14.0618 2.14136H178.094L179.552 2.16136C180.546 2.17301 181.537 2.25862 182.518 2.41744C183.445 2.57287 184.344 2.86368 185.185 3.2803C186.841 4.12269 188.189 5.45541 189.04 7.09169C189.455 7.90992 189.743 8.78551 189.894 9.68874C190.059 10.6715 190.152 11.665 190.171 12.6611C190.176 13.1071 190.176 13.5863 190.176 14.0631C190.188 14.6537 190.188 15.2159 190.188 15.7826V48.7453C190.188 49.3175 190.188 49.8758 190.176 50.4387C190.176 50.9509 190.176 51.4201 190.17 51.903C190.151 52.8814 190.06 53.8571 189.897 54.8223C189.748 55.7374 189.457 56.6246 189.035 57.4525C188.614 58.2596 188.067 58.9961 187.414 59.635C186.762 60.2867 186.008 60.8305 185.18 61.2454C184.342 61.6644 183.444 61.9563 182.518 62.1114C181.531 62.2704 180.534 62.3563 179.534 62.3683C179.067 62.379 178.577 62.3851 178.102 62.3851L176.372 62.3883L14.061 62.3851Z"
            fill="white"
        />
        <path
            d="M40.4805 32.0893C40.4983 30.7222 40.8663 29.3819 41.5502 28.1929C42.2341 27.0039 43.2116 26.0049 44.3919 25.2889C43.6421 24.2322 42.653 23.3626 41.503 22.7492C40.353 22.1357 39.0739 21.7953 37.7673 21.755C34.9801 21.4663 32.278 23.4007 30.8577 23.4007C29.4099 23.4007 27.2231 21.7836 24.8682 21.8314C23.345 21.88 21.8606 22.317 20.5595 23.1C19.2584 23.883 18.1851 24.9852 17.444 26.2992C14.234 31.7834 16.6284 39.8433 19.7033 44.2763C21.2418 46.447 23.0399 48.8717 25.3926 48.7857C27.6948 48.6915 28.5547 47.3371 31.3337 47.3371C34.0869 47.3371 34.8936 48.7857 37.2941 48.7311C39.7646 48.6915 41.321 46.5507 42.8056 44.3595C43.911 42.8127 44.7616 41.1033 45.3259 39.2944C43.8906 38.6954 42.6658 37.6928 41.8041 36.4115C40.9425 35.1302 40.4821 33.627 40.4805 32.0893Z"
            fill="#192A32"
        />
        <path
            d="M35.9465 18.8394C37.2935 17.2438 37.9571 15.1929 37.7964 13.1223C35.7385 13.3356 33.8376 14.3061 32.4725 15.8405C31.805 16.5901 31.2938 17.4621 30.968 18.4068C30.6423 19.3514 30.5084 20.3502 30.5741 21.3459C31.6034 21.3563 32.6217 21.1362 33.5523 20.702C34.4829 20.2679 35.3015 19.631 35.9465 18.8394Z"
            fill="#192A32"
        />
        <path d="M68.1018 43.5085H60.5466L58.7323 48.7949H55.5322L62.6883 29.2366H66.0131L73.1692 48.7949H69.9146L68.1018 43.5085ZM61.3291 41.0691H67.3178L64.3656 32.4897H64.2829L61.3291 41.0691Z" fill="#192A32" />
        <path
            d="M88.6239 41.6659C88.6239 46.0972 86.2203 48.9442 82.5932 48.9442C81.6743 48.9916 80.7605 48.7827 79.9564 48.3415C79.1523 47.9003 78.4904 47.2446 78.0464 46.4494H77.9777V53.5123H75.0115V34.5354H77.8826V36.9071H77.9372C78.4016 36.1157 79.0747 35.4634 79.885 35.0195C80.6952 34.5756 81.6123 34.3567 82.5386 34.3862C86.2063 34.3862 88.6239 37.247 88.6239 41.6659ZM85.575 41.6659C85.575 38.779 84.063 36.881 81.7561 36.881C79.4897 36.881 77.9653 38.8189 77.9653 41.6659C77.9653 44.5391 79.4897 46.4632 81.7561 46.4632C84.063 46.4632 85.5749 44.5791 85.5749 41.6659H85.575Z"
            fill="#192A32"
        />
        <path
            d="M104.53 41.6659C104.53 46.0972 102.126 48.9442 98.4984 48.9442C97.5796 48.9916 96.6658 48.7827 95.8617 48.3415C95.0576 47.9003 94.3956 47.2446 93.9516 46.4494H93.883V53.5123H90.9167V34.5354H93.7879V36.9071H93.8425C94.3069 36.1157 94.98 35.4634 95.7903 35.0195C96.6005 34.5756 97.5176 34.3567 98.4438 34.3862C102.112 34.3862 104.53 37.247 104.53 41.6659ZM101.48 41.6659C101.48 38.779 99.9683 36.881 97.6614 36.881C95.395 36.881 93.8706 38.8189 93.8706 41.6659C93.8706 44.5391 95.395 46.4632 97.6614 46.4632C99.9683 46.4632 101.48 44.5791 101.48 41.6659Z"
            fill="#192A32"
        />
        <path
            d="M115.041 43.3454C115.26 45.285 117.17 46.5584 119.779 46.5584C122.279 46.5584 124.078 45.2849 124.078 43.5361C124.078 42.018 122.993 41.109 120.424 40.486L117.856 39.8754C114.216 39.0079 112.526 37.3283 112.526 34.6029C112.526 31.2283 115.507 28.9104 119.737 28.9104C123.927 28.9104 126.798 31.2283 126.895 34.6029H123.9C123.721 32.651 122.086 31.4729 119.697 31.4729C117.307 31.4729 115.672 32.6649 115.672 34.3998C115.672 35.7826 116.716 36.5962 119.271 37.2191L121.455 37.7482C125.521 38.6972 127.21 40.3091 127.21 43.1699C127.21 46.829 124.257 49.1208 119.559 49.1208C115.164 49.1208 112.196 46.8829 112.004 43.3453L115.041 43.3454Z"
            fill="#192A32"
        />
        <path
            d="M133.614 31.1606V34.5352H136.362V36.8531H133.614V44.7143C133.614 45.9355 134.164 46.5046 135.372 46.5046C135.699 46.499 136.024 46.4764 136.348 46.4369V48.7409C135.805 48.8411 135.253 48.8864 134.701 48.8763C131.775 48.8763 130.634 47.7919 130.634 45.0264V36.8531H128.533V34.5352H130.634V31.1606H133.614Z"
            fill="#192A32"
        />
        <path
            d="M137.952 41.6658C137.952 37.1792 140.63 34.3599 144.806 34.3599C148.996 34.3599 151.661 37.1791 151.661 41.6658C151.661 46.1647 149.01 48.9717 144.806 48.9717C140.604 48.9717 137.952 46.1647 137.952 41.6658ZM148.639 41.6658C148.639 38.5881 147.209 36.7716 144.806 36.7716C142.402 36.7716 140.973 38.6019 140.973 41.6658C140.973 44.7558 142.402 46.5584 144.806 46.5584C147.209 46.5584 148.639 44.7558 148.639 41.6658H148.639Z"
            fill="#192A32"
        />
        <path
            d="M154.107 34.5352H156.936V36.9623H157.004C157.196 36.2043 157.646 35.5344 158.279 35.0652C158.912 34.5961 159.689 34.3562 160.48 34.386C160.822 34.3848 161.163 34.4215 161.497 34.4952V37.233C161.065 37.1029 160.615 37.0432 160.164 37.0562C159.733 37.0389 159.303 37.1139 158.905 37.2759C158.506 37.438 158.147 37.6832 157.854 37.9949C157.56 38.3066 157.338 38.6773 157.203 39.0815C157.069 39.4858 157.024 39.914 157.073 40.3369V48.7948H154.107L154.107 34.5352Z"
            fill="#192A32"
        />
        <path
            d="M175.173 44.6066C174.774 47.1952 172.219 48.9717 168.951 48.9717C164.747 48.9717 162.137 46.1923 162.137 41.7334C162.137 37.2607 164.761 34.3599 168.826 34.3599C172.824 34.3599 175.338 37.07 175.338 41.3935V42.3964H165.132V42.5732C165.085 43.098 165.151 43.6267 165.327 44.1241C165.503 44.6216 165.784 45.0764 166.152 45.4584C166.519 45.8405 166.965 46.1409 167.46 46.3398C167.954 46.5388 168.486 46.6316 169.019 46.6122C169.72 46.6771 170.424 46.5169 171.025 46.1555C171.626 45.7941 172.093 45.2509 172.356 44.6066L175.173 44.6066ZM165.146 40.3507H172.37C172.397 39.8788 172.325 39.4066 172.158 38.9637C171.99 38.5208 171.732 38.1168 171.4 37.777C171.067 37.4371 170.666 37.1688 170.223 36.989C169.781 36.8091 169.305 36.7214 168.826 36.7316C168.343 36.7287 167.864 36.8203 167.417 37.001C166.97 37.1818 166.564 37.448 166.222 37.7845C165.88 38.121 165.608 38.521 165.424 38.9614C165.239 39.4019 165.145 39.8741 165.146 40.3507V40.3507Z"
            fill="#192A32"
        />
        <path
            d="M60.9574 14.5148C61.5793 14.4708 62.2033 14.5635 62.7845 14.7862C63.3657 15.009 63.8895 15.3563 64.3182 15.803C64.7469 16.2497 65.0698 16.7847 65.2636 17.3694C65.4573 17.9542 65.5172 18.5741 65.4388 19.1844C65.4388 22.1868 63.7943 23.9126 60.9574 23.9126H57.5173V14.5148H60.9574ZM58.9966 22.5835H60.7922C61.2366 22.6097 61.6813 22.5379 62.0939 22.3731C62.5066 22.2083 62.8769 21.9548 63.1777 21.6311C63.4786 21.3073 63.7025 20.9214 63.8331 20.5015C63.9638 20.0816 63.9979 19.6382 63.933 19.2036C63.9932 18.7707 63.9556 18.3301 63.823 17.9132C63.6903 17.4964 63.4658 17.1137 63.1657 16.7925C62.8655 16.4713 62.497 16.2196 62.0867 16.0554C61.6764 15.8912 61.2343 15.8187 60.7922 15.8429H58.9966V22.5835Z"
            fill="#192A32"
        />
        <path
            d="M67.1098 20.3634C67.0646 19.8973 67.1186 19.4271 67.2684 18.9828C67.4182 18.5386 67.6604 18.1301 67.9796 17.7836C68.2987 17.4371 68.6877 17.1603 69.1216 16.9709C69.5555 16.7814 70.0248 16.6836 70.4992 16.6836C70.9737 16.6836 71.443 16.7814 71.8769 16.9709C72.3108 17.1603 72.6998 17.4371 73.0189 17.7836C73.3381 18.1301 73.5803 18.5386 73.7301 18.9828C73.8798 19.4271 73.9339 19.8973 73.8887 20.3634C73.9347 20.8299 73.8813 21.3008 73.732 21.7458C73.5826 22.1908 73.3405 22.6 73.0213 22.9472C72.7021 23.2943 72.3128 23.5717 71.8784 23.7616C71.4441 23.9514 70.9743 24.0495 70.4992 24.0495C70.0242 24.0495 69.5544 23.9514 69.12 23.7616C68.6857 23.5717 68.2964 23.2943 67.9772 22.9472C67.658 22.6 67.4159 22.1908 67.2665 21.7458C67.1171 21.3008 67.0637 20.8299 67.1098 20.3634ZM72.4297 20.3634C72.4297 18.8261 71.7298 17.9271 70.5016 17.9271C69.2686 17.9271 68.575 18.8261 68.575 20.3634C68.575 21.913 69.2687 22.8051 70.5016 22.8051C71.7299 22.8051 72.4297 21.9069 72.4297 20.3634H72.4297Z"
            fill="#192A32"
        />
        <path d="M82.9 23.9124H81.4286L79.9431 18.6891H79.8309L78.3516 23.9124H76.8942L74.9131 16.8203H76.3518L77.6393 22.232H77.7453L79.223 16.8203H80.5837L82.0614 22.232H82.1736L83.4549 16.8203H84.8733L82.9 23.9124Z" fill="#192A32" />
        <path
            d="M86.5393 16.8204H87.9048V17.947H88.0108C88.1906 17.5424 88.4938 17.2032 88.8783 16.9767C89.2628 16.7502 89.7093 16.6477 90.1556 16.6835C90.5053 16.6576 90.8564 16.7096 91.183 16.8357C91.5095 16.9619 91.8032 17.1589 92.0421 17.4123C92.281 17.6656 92.4591 17.9687 92.5632 18.2992C92.6672 18.6296 92.6946 18.979 92.6433 19.3213V23.9124H91.2248V19.6728C91.2248 18.5331 90.7229 17.9663 89.6739 17.9663C89.4365 17.9554 89.1994 17.9952 88.9791 18.0832C88.7587 18.1711 88.5603 18.305 88.3972 18.4757C88.2342 18.6464 88.1106 18.8499 88.0347 19.0722C87.9588 19.2944 87.9326 19.5303 87.9577 19.7635V23.9125H86.5393L86.5393 16.8204Z"
            fill="#192A32"
        />
        <path d="M94.9033 14.0518H96.3218V23.9124H94.9033V14.0518Z" fill="#192A32" />
        <path
            d="M98.2938 20.363C98.2487 19.8969 98.3027 19.4267 98.4526 18.9824C98.6024 18.5381 98.8446 18.1296 99.1638 17.7832C99.483 17.4367 99.872 17.1598 100.306 16.9704C100.74 16.781 101.209 16.6831 101.684 16.6831C102.158 16.6831 102.627 16.781 103.061 16.9704C103.495 17.1598 103.884 17.4367 104.204 17.7832C104.523 18.1296 104.765 18.5381 104.915 18.9824C105.065 19.4267 105.119 19.8969 105.073 20.363C105.119 20.8296 105.066 21.3005 104.917 21.7455C104.767 22.1905 104.525 22.5997 104.206 22.9468C103.887 23.2939 103.497 23.5713 103.063 23.7612C102.629 23.951 102.159 24.0491 101.684 24.0491C101.209 24.0491 100.739 23.951 100.304 23.7612C99.8701 23.5713 99.4808 23.2939 99.1615 22.9468C98.8423 22.5997 98.6001 22.1905 98.4507 21.7455C98.3013 21.3005 98.2478 20.8296 98.2938 20.363ZM103.614 20.363C103.614 18.8257 102.914 17.9267 101.686 17.9267C100.453 17.9267 99.7591 18.8257 99.7591 20.363C99.7591 21.9127 100.453 22.8048 101.686 22.8048C102.914 22.8047 103.614 21.9065 103.614 20.363H103.614Z"
            fill="#192A32"
        />
        <path
            d="M106.567 21.9069C106.567 20.6303 107.53 19.8943 109.24 19.7897L111.187 19.679V19.0669C111.187 18.3178 110.685 17.8948 109.715 17.8948C108.923 17.8948 108.375 18.1817 108.217 18.6831H106.844C106.989 17.4649 108.15 16.6836 109.781 16.6836C111.583 16.6836 112.599 17.5687 112.599 19.0669V23.9126H111.233V22.9159H111.121C110.893 23.2734 110.574 23.5649 110.194 23.7605C109.815 23.9561 109.39 24.0489 108.962 24.0294C108.661 24.0604 108.356 24.0286 108.067 23.9362C107.779 23.8437 107.513 23.6927 107.287 23.4927C107.062 23.2927 106.881 23.0483 106.757 22.7751C106.633 22.502 106.568 22.2063 106.567 21.9069ZM111.187 21.3009V20.708L109.432 20.8187C108.442 20.8841 107.993 21.2163 107.993 21.8415C107.993 22.4798 108.554 22.8513 109.326 22.8513C109.552 22.8739 109.78 22.8514 109.997 22.7851C110.214 22.7188 110.416 22.6101 110.589 22.4654C110.763 22.3208 110.905 22.1431 111.008 21.9431C111.111 21.743 111.171 21.5246 111.187 21.3009Z"
            fill="#192A32"
        />
        <path
            d="M114.463 20.3633C114.463 18.1223 115.63 16.7027 117.446 16.7027C117.895 16.6822 118.341 16.7884 118.732 17.0087C119.122 17.2291 119.441 17.5545 119.65 17.9469H119.756V14.0518H121.175V23.9124H119.816V22.7919H119.703C119.477 23.1817 119.148 23.5031 118.75 23.7212C118.352 23.9393 117.901 24.0458 117.446 24.0293C115.618 24.0294 114.463 22.6097 114.463 20.3633ZM115.928 20.3633C115.928 21.8676 116.647 22.7727 117.849 22.7727C119.044 22.7727 119.783 21.8545 119.783 20.3695C119.783 18.8914 119.036 17.9601 117.849 17.9601C116.654 17.9601 115.928 18.8714 115.928 20.3633H115.928Z"
            fill="#192A32"
        />
        <path
            d="M127.044 20.3634C126.998 19.8973 127.052 19.4271 127.202 18.9828C127.352 18.5386 127.594 18.1301 127.913 17.7836C128.233 17.4371 128.622 17.1603 129.055 16.9709C129.489 16.7814 129.959 16.6836 130.433 16.6836C130.908 16.6836 131.377 16.7814 131.811 16.9709C132.245 17.1603 132.634 17.4371 132.953 17.7836C133.272 18.1301 133.514 18.5386 133.664 18.9828C133.814 19.4271 133.868 19.8973 133.823 20.3634C133.869 20.8299 133.815 21.3008 133.666 21.7458C133.516 22.1908 133.274 22.6 132.955 22.9472C132.636 23.2943 132.247 23.5717 131.812 23.7616C131.378 23.9514 130.908 24.0495 130.433 24.0495C129.958 24.0495 129.488 23.9514 129.054 23.7616C128.62 23.5717 128.23 23.2943 127.911 22.9472C127.592 22.6 127.35 22.1908 127.2 21.7458C127.051 21.3008 126.998 20.8299 127.044 20.3634ZM132.364 20.3634C132.364 18.8261 131.664 17.9271 130.435 17.9271C129.202 17.9271 128.509 18.8261 128.509 20.3634C128.509 21.913 129.203 22.8051 130.435 22.8051C131.664 22.8051 132.364 21.9069 132.364 20.3634Z"
            fill="#192A32"
        />
        <path
            d="M135.726 16.8204H137.091V17.947H137.197C137.377 17.5424 137.68 17.2032 138.065 16.9767C138.449 16.7502 138.896 16.6477 139.342 16.6835C139.692 16.6576 140.043 16.7096 140.369 16.8357C140.696 16.9619 140.989 17.1589 141.228 17.4123C141.467 17.6656 141.645 17.9687 141.749 18.2992C141.853 18.6296 141.881 18.979 141.83 19.3213V23.9124H140.411V19.6728C140.411 18.5331 139.909 17.9663 138.86 17.9663C138.623 17.9554 138.386 17.9952 138.165 18.0832C137.945 18.1711 137.747 18.305 137.584 18.4757C137.421 18.6464 137.297 18.8499 137.221 19.0722C137.145 19.2944 137.119 19.5303 137.144 19.7635V23.9125H135.726V16.8204Z"
            fill="#192A32"
        />
        <path
            d="M149.845 15.0544V16.8525H151.402V18.0314H149.845V21.6782C149.845 22.4211 150.155 22.7464 150.861 22.7464C151.042 22.7458 151.223 22.7351 151.402 22.7141V23.88C151.147 23.9249 150.889 23.9489 150.631 23.9515C149.053 23.9515 148.425 23.4039 148.425 22.0366V18.0314H147.284V16.8524H148.425V15.0544H149.845Z"
            fill="#192A32"
        />
        <path
            d="M153.34 14.0518H154.746V17.96H154.858C155.046 17.5516 155.358 17.2105 155.75 16.9831C156.142 16.7558 156.596 16.6533 157.049 16.6896C157.397 16.6709 157.745 16.7282 158.068 16.8574C158.391 16.9866 158.681 17.1846 158.917 17.4371C159.154 17.6896 159.331 17.9906 159.436 18.3184C159.541 18.6462 159.571 18.9928 159.525 19.3336V23.9124H158.105V19.6788C158.105 18.546 157.57 17.9723 156.568 17.9723C156.324 17.9526 156.079 17.9857 155.849 18.0692C155.62 18.1528 155.412 18.2848 155.239 18.4561C155.067 18.6273 154.934 18.8337 154.851 19.0607C154.768 19.2877 154.736 19.5299 154.758 19.7703V23.9124H153.34L153.34 14.0518Z"
            fill="#192A32"
        />
        <path
            d="M167.795 21.9973C167.602 22.6455 167.185 23.2062 166.616 23.5812C166.046 23.9563 165.361 24.1219 164.681 24.0491C164.207 24.0614 163.737 23.9719 163.302 23.7868C162.867 23.6017 162.478 23.3254 162.162 22.9772C161.846 22.6289 161.611 22.2169 161.472 21.7699C161.334 21.3229 161.296 20.8515 161.361 20.3885C161.298 19.924 161.336 19.4516 161.475 19.0033C161.613 18.5549 161.847 18.1411 162.161 17.7897C162.475 17.4384 162.862 17.1578 163.296 16.9669C163.73 16.776 164.2 16.6792 164.675 16.6832C166.674 16.6832 167.881 18.0314 167.881 20.2585V20.7469H162.806V20.8253C162.783 21.0856 162.817 21.3475 162.903 21.5944C162.989 21.8413 163.127 22.0676 163.307 22.2589C163.488 22.4502 163.706 22.6022 163.95 22.7052C164.193 22.8082 164.455 22.86 164.72 22.857C165.059 22.8972 165.403 22.837 165.707 22.6839C166.012 22.5308 166.263 22.2918 166.43 21.9973L167.795 21.9973ZM162.806 19.7117H166.436C166.454 19.4737 166.421 19.2346 166.34 19.0098C166.258 18.785 166.13 18.5795 165.964 18.4065C165.797 18.2335 165.596 18.0968 165.372 18.0051C165.149 17.9135 164.909 17.869 164.667 17.8745C164.421 17.8714 164.178 17.9169 163.951 18.0081C163.723 18.0994 163.517 18.2346 163.344 18.4059C163.17 18.5771 163.033 18.7808 162.941 19.0051C162.848 19.2294 162.802 19.4696 162.806 19.7117H162.806Z"
            fill="#192A32"
        />
    </g>
    <defs>
        <clipPath id="clip0_2_1376">
            <rect width="191" height="63" fill="white" transform="translate(0.582031 0.763672)" />
        </clipPath>
    </defs>
</svg>
