<svg id="badminton" width="251" height="251" viewBox="0 0 251 251" fill="none" xmlns="http://www.w3.org/2000/svg">
    <g clip-path="url(#clip0_2_1064)">
        <path
            d="M117.294 133.541C89.7944 106.002 92.1382 59.0491 122.564 28.6194C152.99 -1.81026 199.943 -4.15401 227.478 23.385C255.013 50.9241 252.634 97.8772 222.244 128.307C191.853 158.737 144.83 161.084 117.294 133.541ZM109.677 78.346C109.019 83.5614 109.045 88.8405 109.755 94.0491C110.47 99.4308 111.957 104.681 114.169 109.639C119.521 121.697 129.156 131.341 141.208 136.705C146.168 138.9 151.417 140.373 156.794 141.08C162.002 141.79 167.28 141.817 172.494 141.158C177.868 140.546 183.144 139.26 188.197 137.33C193.689 135.279 198.91 132.563 203.744 129.244C211.409 123.986 218.032 117.35 223.275 109.674C226.609 104.85 229.326 99.627 231.361 94.1272C233.248 89.0657 234.507 83.792 235.111 78.4241C235.769 73.2217 235.743 67.9556 235.033 62.76C234.314 57.3586 232.801 52.0932 230.54 47.135C227.906 41.2064 224.198 35.8162 219.603 31.2366C215.016 26.6423 209.63 22.9227 203.708 20.26C198.732 18.0654 193.473 16.5795 188.083 15.846C182.901 15.1363 177.648 15.11 172.458 15.7679C167.076 16.3528 161.788 17.6127 156.72 19.5179C146.847 23.2263 137.883 29.007 130.431 36.471C127.168 39.7333 124.212 43.2901 121.603 47.096C118.272 51.9212 115.556 57.144 113.521 62.6429C111.586 67.6952 110.294 72.971 109.677 78.346Z"
            fill="#9A1C20"
        />
        <path d="M64.8359 186.006L67.4531 188.662L62.2188 204.365L46.4766 188.662L62.2188 183.389L64.8359 186.006Z" fill="#DCE1EB" />
        <path d="M229.664 208.897L220.914 217.647L186.621 197.061L209.082 174.6L229.664 208.897Z" fill="#EEF2FA" />
        <path d="M235.055 203.506L229.664 208.897L209.082 174.6L223.219 160.42L234.937 203.389L235.055 203.506Z" fill="#CDD2E1" />
        <path d="M186.621 197.061L220.914 217.647L215.523 223.037L215.406 222.92L172.441 211.201L186.621 197.061Z" fill="#CDD2E1" />
        <path
            d="M229.664 208.897L235.055 203.506L235.172 203.389L242.594 210.811C243.889 212.109 244.916 213.649 245.616 215.343C246.316 217.038 246.675 218.854 246.674 220.688C246.672 222.521 246.309 224.337 245.605 226.03C244.902 227.723 243.872 229.262 242.574 230.557C241.276 231.852 239.736 232.879 238.041 233.579C236.347 234.279 234.531 234.638 232.697 234.637C230.864 234.635 229.048 234.272 227.355 233.568C225.662 232.865 224.123 231.835 222.828 230.537L215.426 223.154L215.543 223.037L220.934 217.647L229.664 208.897Z"
            fill="#B82126"
        />
        <path d="M46.4796 188.643L4.50012 230.627L20.2341 246.359L62.2136 204.375L46.4796 188.643Z" fill="#B82126" />
        <path
            d="M214.356 120.438C240.435 94.3578 242.785 54.4239 219.604 31.2426C196.422 8.06134 156.488 10.411 130.409 36.4907C104.329 62.5704 101.979 102.504 125.161 125.686C148.342 148.867 188.276 146.517 214.356 120.438Z"
            fill="#FAFCFF"
        />
        <path
            d="M114.723 130.666C114.664 130.717 114.586 130.736 114.531 130.791L62.0625 183.26C61.9961 183.326 61.9727 183.42 61.9102 183.49L62.2188 183.389L64.8359 186.006L67.4531 188.662L67.3789 188.936C67.4453 188.877 67.5352 188.854 67.6016 188.787L120.055 136.314C120.109 136.26 120.129 136.186 120.18 136.127C119.215 135.268 118.227 134.467 117.293 133.541C116.359 132.615 115.574 131.627 114.723 130.666Z"
            fill="#7E8596"
        />
        <path
            d="M222.363 28.4082C197.703 3.74024 155.211 6.09181 127.644 33.6543C100.078 61.2168 97.7341 103.705 122.402 128.389C128.01 133.907 134.658 138.256 141.961 141.185C149.263 144.114 157.074 145.564 164.941 145.451C184.6 145.203 203.36 137.18 217.121 123.139C244.675 95.5762 247.031 53.0723 222.363 28.4082ZM214.359 120.361C188.281 146.443 148.343 148.791 125.168 125.611C101.992 102.432 104.332 62.4942 130.41 36.416C156.488 10.3379 196.425 7.98634 219.601 31.1699C242.777 54.3535 240.425 94.2832 214.355 120.361H214.359Z"
            fill="#741213"
        />
        <path
            d="M234.957 76.4356H221.285V64.7168H234.957C235.029 64.7062 235.101 64.6919 235.172 64.6738C235.035 63.377 234.855 62.0918 234.637 60.8106H221.285V49.0918H231.051C231.133 49.0809 231.214 49.0639 231.293 49.041C230.766 47.7402 230.227 46.4473 229.598 45.1855H221.285V33.127C220.719 32.502 220.207 31.8457 219.602 31.2441C218.996 30.6426 218.344 30.127 217.719 29.5605H205.66V21.248C204.398 20.6191 203.105 20.0762 201.805 19.5527C201.782 19.6321 201.765 19.713 201.754 19.7949V29.5605H190.035V16.209C188.754 15.9902 187.469 15.8184 186.172 15.6738C186.154 15.7446 186.139 15.8164 186.129 15.8887V29.5605H174.41V15.8887C174.397 15.7844 174.376 15.6812 174.348 15.5801C173.066 15.6895 171.785 15.7988 170.504 15.9707V29.5605H158.785V18.8066C157.473 19.248 156.176 19.7676 154.879 20.291V29.5605H143.16V26.3301C141.84 27.1699 140.535 28.0488 139.254 28.9863V29.5605H138.5C137.031 30.6621 135.59 31.8105 134.184 33.041C134.516 33.3098 134.928 33.4596 135.355 33.4668H139.262V45.1855H127.543V43.2324C127.54 42.7873 127.383 42.357 127.098 42.0151C126.813 41.6731 126.418 41.4407 125.98 41.3574C125.152 42.3418 124.418 43.3691 123.637 44.3848V45.1855H123.027C122.176 46.347 121.363 47.5189 120.59 48.7012C120.904 48.9431 121.287 49.0798 121.684 49.0918H123.637V60.8106H114.254C113.77 62.0059 113.266 63.1934 112.852 64.4043C113.152 64.6021 113.503 64.7105 113.863 64.7168H123.629V76.4356H109.957H109.922C109.734 77.7051 109.629 78.9746 109.531 80.2441C109.669 80.2931 109.812 80.3258 109.957 80.3418H123.629V92.0606H109.957C109.831 92.0732 109.707 92.0981 109.586 92.1348C109.719 93.4238 109.887 94.6973 110.102 95.9668H123.629V107.686H113.863C113.715 107.697 113.57 107.727 113.43 107.775C113.945 109.064 114.469 110.346 115.086 111.592H123.629V123.963C124.148 124.533 124.613 125.135 125.164 125.682C125.715 126.229 126.312 126.697 126.883 127.217H139.254V135.76C140.484 136.369 141.754 136.885 143.023 137.4C143.108 137.179 143.154 136.946 143.16 136.709V127.217H154.879V140.744C156.148 140.959 157.422 141.135 158.711 141.26C158.748 141.139 158.772 141.014 158.785 140.889V127.217H170.504V140.889C170.516 141.039 170.546 141.187 170.594 141.33C171.863 141.217 173.133 141.111 174.402 140.939V140.904V127.217H186.121V136.982C186.13 137.337 186.239 137.682 186.434 137.979C187.645 137.564 188.832 137.061 190.027 136.576V127.217H201.746V129.17C201.758 129.567 201.895 129.949 202.137 130.264C203.329 129.482 204.501 128.67 205.652 127.826V127.217H206.434C207.449 126.436 208.477 125.713 209.461 124.873C209.378 124.436 209.145 124.041 208.803 123.756C208.461 123.471 208.031 123.314 207.586 123.311H205.633V111.592H217.352V113.545C217.356 113.99 217.514 114.419 217.799 114.761C218.083 115.102 218.477 115.335 218.914 115.42C219.75 114.42 220.477 113.377 221.258 112.346V111.592H221.832C222.687 110.42 223.492 109.248 224.266 108.037C223.964 107.823 223.608 107.701 223.238 107.686H221.285V95.9668H230.555C231.043 94.752 231.543 93.5449 231.961 92.3145C231.684 92.1542 231.371 92.0668 231.051 92.0606H221.285V80.3418H234.859C235.047 79.0606 235.156 77.7793 235.25 76.4981C235.154 76.4701 235.056 76.4492 234.957 76.4356ZM139.254 123.311H127.535V111.592H139.254V123.311ZM139.254 107.686H127.535V95.9668H139.254V107.686ZM139.254 92.0606H127.535V80.3418H139.254V92.0606ZM139.254 76.4356H127.535V64.7168H139.254V76.4356ZM139.254 60.8106H127.535V49.0918H139.254V60.8106ZM154.879 123.311H143.16V111.592H154.879V123.311ZM154.879 107.686H143.16V95.9668H154.879V107.686ZM154.879 92.0606H143.16V80.3418H154.879V92.0606ZM154.879 76.4356H143.16V64.7168H154.879V76.4356ZM154.879 60.8106H143.16V49.0918H154.879V60.8106ZM154.879 45.1855H143.16V33.4668H154.879V45.1855ZM170.504 123.311H158.785V111.592H170.504V123.311ZM170.504 107.686H158.785V95.9668H170.504V107.686ZM170.504 92.0606H158.785V80.3418H170.504V92.0606ZM170.504 76.4356H158.785V64.7168H170.504V76.4356ZM170.504 60.8106H158.785V49.0918H170.504V60.8106ZM170.504 45.1855H158.785V33.4668H170.504V45.1855ZM186.129 123.311H174.41V111.592H186.129V123.311ZM186.129 107.686H174.41V95.9668H186.129V107.686ZM186.129 92.0606H174.41V80.3418H186.129V92.0606ZM186.129 76.4356H174.41V64.7168H186.129V76.4356ZM186.129 60.8106H174.41V49.0918H186.129V60.8106ZM186.129 45.1855H174.41V33.4668H186.129V45.1855ZM201.754 123.311H190.035V111.592H201.754V123.311ZM201.754 107.686H190.035V95.9668H201.754V107.686ZM201.754 92.0606H190.035V80.3418H201.754V92.0606ZM201.754 76.4356H190.035V64.7168H201.754V76.4356ZM201.754 60.8106H190.035V49.0918H201.754V60.8106ZM201.754 45.1855H190.035V33.4668H201.754V45.1855ZM217.379 107.686H205.66V95.9668H217.379V107.686ZM217.379 92.0606H205.66V80.3418H217.379V92.0606ZM217.379 76.4356H205.66V64.7168H217.379V76.4356ZM217.379 60.8106H205.66V49.0918H217.379V60.8106ZM217.379 45.1855H205.66V33.4668H217.379V45.1855Z"
            fill="#7E8596"
        />
        <path d="M64.8359 186.01L54.3398 196.506L62.2188 204.365L67.4531 188.662L64.8359 186.01Z" fill="#CDD2E1" />
        <path
            d="M25.6367 225.209C24.1717 226.674 22.1849 227.497 20.1133 227.497C18.0417 227.497 16.0549 226.674 14.5898 225.209L12.2461 222.865L4.48828 230.615L20.2305 246.358L62.2188 204.365L54.3398 196.506L25.6367 225.209Z"
            fill="#85181C"
        />
        <path
            d="M232.668 217.397L240.926 209.139L235.172 203.389L235.055 203.506L229.664 208.897L220.914 217.647L215.523 223.037L215.406 223.154L222.828 230.537C224.756 232.47 227.209 233.794 229.882 234.346C232.555 234.898 235.332 234.653 237.867 233.643L232.668 228.444C231.203 226.978 230.381 224.992 230.381 222.92C230.381 220.848 231.203 218.862 232.668 217.397Z"
            fill="#9A1C20"
        />
        <path d="M205.379 208.322L220.914 217.647L229.664 208.897L225.055 201.217C219.51 205.781 212.56 208.291 205.379 208.322Z" fill="#CDD2E1" />
        <path d="M232.43 194.197L227.445 199.182C226.684 199.901 225.886 200.58 225.055 201.217L229.664 208.897L235.055 203.506L234.957 203.389L232.43 194.197Z" fill="#9DA3B5" />
        <path d="M191.375 205.033L182.883 200.787L172.457 211.201L215.426 222.92L215.543 223.037L220.934 217.647L205.398 208.322C200.531 208.335 195.729 207.208 191.375 205.033Z" fill="#9DA3B5" />
    </g>
    <defs>
        <clipPath id="clip0_2_1064">
            <rect width="250" height="250" fill="white" transform="translate(0.582031 0.263672)" />
        </clipPath>
    </defs>
</svg>
<svg id="basketball" width="247" height="247" viewBox="0 0 247 247" fill="none" xmlns="http://www.w3.org/2000/svg">
    <path
        d="M121.582 246.857C188.46 246.857 242.676 192.642 242.676 125.764C242.676 58.8854 188.46 4.66992 121.582 4.66992C54.7038 4.66992 0.488281 58.8854 0.488281 125.764C0.488281 192.642 54.7038 246.857 121.582 246.857Z"
        fill="#EF680C"
    />
    <path
        d="M95.3281 69.6543C108.242 41.9668 138.91 24.4746 178.406 22.6387C179.066 22.5999 179.704 22.392 180.259 22.0348C180.815 21.6777 181.269 21.1834 181.578 20.5996C178.232 18.6855 174.788 16.9303 171.246 15.334C130.719 19.0684 99.5899 38.8965 86.9102 69.3809C77.8672 69.2519 68.7266 69.5723 59.6602 70.3262C64.1215 50.4449 71.9676 31.4786 82.8555 14.2559C83.1598 13.7613 83.3482 13.2042 83.4063 12.6265C83.4645 12.0487 83.391 11.4652 83.1914 10.9199C79.9063 12.0176 76.6836 13.2363 73.5312 14.5996C63.1501 32.0801 55.7088 51.146 51.5039 71.0371L50.8437 71.0996C45.0586 71.7363 39.3516 72.709 33.7539 73.8652C33.4961 72.4941 33.1797 71.1309 32.8047 69.8027C31.2653 64.226 28.7915 58.9507 25.4883 54.2012C25.2286 53.8486 24.9101 53.5434 24.5469 53.2988C22.9219 55.4707 21.3984 57.7168 19.918 59.998C22.2923 63.6685 24.0966 67.6775 25.2695 71.8887C25.6133 73.1191 25.8867 74.3613 26.1133 75.6191C20.3086 77.0684 14.6445 78.8105 9.14844 80.7793C8.04688 83.5137 7.01953 86.3301 6.12109 89.1777C6.97356 89.4902 7.90925 89.4902 8.76172 89.1777C14.6567 86.9461 20.6759 85.0575 26.7891 83.5215C26.7109 100.232 17.0234 117.346 0.574219 129.529C0.664062 132.396 0.816407 135.252 1.09766 138.068C1.78389 138.027 2.44631 137.801 3.01562 137.416C23.418 123.275 35.25 102.197 34.5859 81.6621C39.6328 80.5996 44.7773 79.709 49.9766 79.1074C44.8671 109.304 47.2532 140.293 56.9251 169.352C66.5969 198.41 83.2585 224.648 105.445 245.76C108.82 246.209 112.23 246.541 115.688 246.713C115.735 246.134 115.65 245.551 115.439 245.01C115.227 244.468 114.896 243.982 114.469 243.588C91.7673 223.122 74.669 197.198 64.7949 168.272C54.9207 139.346 52.598 108.378 58.0469 78.3027C66.7578 77.5215 75.5039 77.1309 84.1406 77.166C69.7109 127.104 109.285 187.037 175.066 212.99C182.355 215.857 189.823 218.245 197.422 220.139C199.674 218.316 201.861 216.425 203.98 214.467C203.472 213.868 202.789 213.442 202.027 213.248C193.819 211.332 185.763 208.818 177.922 205.725C114.988 180.889 77.2344 123.842 92.2852 77.3262C153.613 79.4004 208.445 101.982 239.32 138.1C239.977 138.846 240.899 139.306 241.891 139.381C242.234 136.316 242.46 133.217 242.566 130.084C210.379 94.6191 156.023 72.3184 95.3281 69.6543Z"
        fill="#333940"
    />
    <path
        d="M39.5515 71.0764C39.544 57.3727 41.8662 43.7674 46.4187 30.842C31.7006 42.4959 19.8936 57.4121 11.9303 74.4127C3.96698 91.4133 0.0654289 110.033 0.53379 128.8C1.00215 147.567 5.8276 165.969 14.629 182.551C23.4304 199.133 35.9668 213.442 51.2479 224.347C66.5289 235.252 84.1363 242.455 102.679 245.387C121.222 248.319 140.193 246.899 158.093 241.24C175.993 235.581 192.332 225.837 205.819 212.779C219.307 199.721 229.574 183.706 235.809 165.998C217.972 180.137 196.51 188.961 173.885 191.457C151.261 193.953 128.391 190.02 107.9 180.11C87.4097 170.199 70.128 154.712 58.0386 135.427C45.9492 116.141 39.5417 93.838 39.5515 71.0764Z"
        fill="#8D3205"
    />
    <path
        d="M33.7539 73.8652C33.4961 72.4941 33.1797 71.1309 32.8047 69.8027C31.2653 64.226 28.7915 58.9507 25.4883 54.2012C25.2286 53.8486 24.9101 53.5434 24.5469 53.2988C22.9219 55.4707 21.3984 57.7168 19.918 59.998C22.2923 63.6685 24.0966 67.6775 25.2695 71.8887C25.6133 73.1191 25.8867 74.3613 26.1133 75.6191C20.3086 77.0684 14.6445 78.8105 9.14844 80.7793C8.04688 83.5137 7.01953 86.3301 6.12109 89.1777C6.97356 89.4903 7.90925 89.4903 8.76172 89.1777C14.6567 86.9461 20.6759 85.0576 26.7891 83.5215C26.7109 100.232 17.0234 117.346 0.574219 129.529C0.664063 132.396 0.816407 135.252 1.09766 138.068C1.78389 138.027 2.44631 137.801 3.01563 137.416C23.418 123.275 35.25 102.197 34.5859 81.6621C36.3594 81.291 38.1602 80.9707 39.9531 80.6504C39.75 78.0488 39.6211 75.4238 39.5859 72.7793C37.6406 73.127 35.6836 73.4668 33.7539 73.8652Z"
        fill="#23272B"
    />
    <path
        d="M105.449 245.756C108.824 246.205 112.234 246.537 115.691 246.709C115.739 246.13 115.654 245.547 115.443 245.006C115.231 244.464 114.9 243.978 114.473 243.584C82.7315 214.841 62.264 175.734 56.7383 133.271C53.0909 127.184 49.9877 120.787 47.4648 114.154C48.5792 163.975 69.4364 211.312 105.449 245.756Z"
        fill="#23272B"
    />
    <path
        d="M175.066 212.99C182.355 215.857 189.822 218.245 197.422 220.139C199.674 218.316 201.861 216.425 203.98 214.467C203.472 213.868 202.789 213.442 202.027 213.248C193.819 211.332 185.763 208.818 177.922 205.725C168.221 201.904 158.891 197.203 150.047 191.682C144.083 191.167 138.165 190.208 132.344 188.814C145.375 198.844 159.758 206.983 175.066 212.99Z"
        fill="#23272B"
    />
    <path d="M206.532 144.308C230.797 120.043 228.174 78.0799 200.674 50.58C173.174 23.08 131.211 20.4571 106.946 44.7215C82.6819 68.9858 85.3048 110.949 112.805 138.449C140.305 165.949 182.268 168.572 206.532 144.308Z" fill="#F37B0B" />
    <path
        d="M95.3281 69.6543C104.473 50.0488 122.551 35.5879 146.336 28.1465C131.435 28.3111 117.2 34.3477 106.723 44.9453C96.246 55.5429 90.3729 69.8458 90.3789 84.748C90.8739 82.2401 91.5104 79.7622 92.2852 77.3262C142.719 79.0332 188.703 94.6191 220.633 120.17C221.451 117.42 222.073 114.614 222.492 111.775C190.02 87.0371 144.781 71.8223 95.3281 69.6543Z"
        fill="#555A66"
    />
    <path d="M181.354 115.258C183.858 112.752 183.06 107.895 179.572 104.409C176.083 100.923 171.225 100.128 168.721 102.634C166.217 105.14 167.015 109.997 170.504 113.483C173.992 116.969 178.85 117.764 181.354 115.258Z" fill="#F6FAFD" />
    <path d="M143.04 123.883C144.298 122.624 143.898 120.184 142.146 118.434C140.394 116.683 137.954 116.284 136.696 117.543C135.438 118.802 135.838 121.242 137.59 122.993C139.342 124.743 141.782 125.142 143.04 123.883Z" fill="#F6FAFD" />
    <path d="M132.648 112.536C133.278 111.906 133.079 110.685 132.203 109.81C131.327 108.935 130.106 108.736 129.476 109.366C128.846 109.997 129.046 111.217 129.922 112.092C130.798 112.968 132.019 113.166 132.648 112.536Z" fill="#F6FAFD" />
</svg>
<svg id="american-football" width="247" height="204" viewBox="0 0 247 204" fill="none" xmlns="http://www.w3.org/2000/svg">
    <path
        d="M160.74 136.92V148.99L139.021 163.795C137.97 164.202 136.839 164.354 135.718 164.238C134.598 164.123 133.521 163.743 132.575 163.131C131.589 162.516 130.784 161.651 130.243 160.622C129.701 159.594 129.443 158.44 129.495 157.279C129.546 156.118 129.906 154.992 130.537 154.016C131.167 153.04 132.046 152.249 133.083 151.725L160.74 136.92Z"
        fill="#E9EDF5"
    />
    <path d="M125.582 97.8574C129.897 97.8574 133.395 94.3596 133.395 90.0449C133.395 85.7302 129.897 82.2324 125.582 82.2324C121.267 82.2324 117.77 85.7302 117.77 90.0449C117.77 94.3596 121.267 97.8574 125.582 97.8574Z" fill="#E9EDF5" />
    <path
        d="M244.723 145.865C244.724 146.411 244.631 146.953 244.449 147.467L238.863 164.264V169.459C238.866 171.289 238.226 173.061 237.055 174.468C235.884 175.874 234.257 176.825 232.457 177.154L195.895 183.795V172.076L203.707 152.545L238.082 141.1C238.33 140.994 238.594 140.928 238.863 140.904C239.132 140.84 239.408 140.813 239.684 140.826C241.019 140.829 242.299 141.361 243.243 142.305C244.188 143.25 244.72 144.53 244.723 145.865Z"
        fill="#E9EDF5"
    />
    <path
        d="M52.1836 51.8809L47.8477 47.5059C43.2104 53.4717 39.1554 59.8681 35.7383 66.6074V90.0449L47.457 93.6387V76.2949C47.5102 74.3063 47.955 72.3477 48.7661 70.5312C49.5771 68.7148 50.7385 67.0761 52.1836 65.709C53.1546 64.8378 53.9312 63.7719 54.4628 62.5806C54.9945 61.3893 55.2692 60.0994 55.2692 58.7949C55.2692 57.4904 54.9945 56.2005 54.4628 55.0092C53.9312 53.818 53.1546 52.752 52.1836 51.8809Z"
        fill="#E9EDF5"
    />
    <path
        d="M98.2383 93.9512L74.5664 87.7012L47.457 80.5918V93.6387L72.457 101.334L77.7695 102.975C83.1081 104.637 87.7666 107.98 91.0508 112.506C94.1003 110.577 97.6378 109.56 101.246 109.576H106.051L107.027 108.99L98.2383 93.9512Z"
        fill="#9A1C20"
    />
    <path
        d="M107.027 108.99L125.582 140.826L113.863 148.639L78.707 155.045V149.381C78.7155 146.762 79.3772 144.186 80.6323 141.888C81.8873 139.589 83.696 137.64 85.8945 136.217L89.5273 133.912C92.2039 131.244 93.873 127.73 94.2505 123.97C94.628 120.209 93.6905 116.434 91.5977 113.287C91.4023 113.014 91.2461 112.74 91.0508 112.506C94.1003 110.577 97.6378 109.56 101.246 109.576H106.051L107.027 108.99Z"
        fill="#9A1C20"
    />
    <path
        d="M131.518 174.029L113.861 164.107C108.783 161.139 108.861 153.561 113.861 148.639L164.643 117.389H223.236C240.307 117.389 245.463 108.404 246.479 106.178C246.074 112.922 244.934 119.602 243.08 126.1L238.861 140.826V140.904C238.592 140.928 238.329 140.994 238.08 141.1L203.705 152.545L144.174 175.084C142.112 175.826 139.915 176.116 137.731 175.934C135.547 175.752 133.428 175.102 131.518 174.029ZM132.572 163.131C133.518 163.743 134.595 164.123 135.715 164.238C136.836 164.354 137.967 164.202 139.018 163.795L160.736 148.99V136.92L133.08 151.725C132.043 152.249 131.164 153.04 130.534 154.016C129.903 154.992 129.543 156.118 129.492 157.279C129.44 158.44 129.698 159.594 130.239 160.622C130.781 161.651 131.586 162.516 132.572 163.131Z"
        fill="#85181C"
    />
    <path
        d="M203.707 152.545L195.895 172.076V179.889C179.645 179.889 163.395 191.178 154.957 198.053C150.783 201.474 145.549 203.338 140.152 203.326H133.395C101.012 203.326 78.707 181.529 78.707 164.264V155.045L113.863 148.639C108.863 153.561 108.785 161.139 113.863 164.107L131.52 174.029C133.43 175.102 135.549 175.752 137.733 175.934C139.917 176.116 142.114 175.826 144.176 175.084L203.707 152.545Z"
        fill="#9A1C20"
    />
    <path
        d="M74.5664 87.7012L47.457 80.5918V76.2949C47.5102 74.3063 47.955 72.3477 48.7661 70.5312C49.5771 68.7148 50.7385 67.0761 52.1836 65.709C53.1546 64.8378 53.9312 63.7719 54.4628 62.5806C54.9945 61.3893 55.2692 60.0994 55.2692 58.7949C55.2692 57.4904 54.9945 56.2005 54.4628 55.0092C53.9312 53.818 53.1546 52.752 52.1836 51.8809L47.8477 47.5059C62.7695 27.8965 91.9102 0.201172 137.301 0.201172C197.77 0.201172 246.676 43.873 246.676 97.8574V100.357C246.676 102.311 246.598 104.225 246.48 106.178C245.465 108.404 240.309 117.389 223.238 117.389H164.645L113.863 148.639L125.582 140.826L107.027 108.99L98.2383 93.9512L74.5664 87.7012ZM133.395 90.0449C133.395 88.4998 132.936 86.9893 132.078 85.7045C131.219 84.4198 129.999 83.4184 128.572 82.8271C127.144 82.2358 125.573 82.0811 124.058 82.3825C122.542 82.684 121.15 83.4281 120.058 84.5207C118.965 85.6133 118.221 87.0053 117.92 88.5208C117.618 90.0363 117.773 91.6071 118.364 93.0346C118.956 94.4622 119.957 95.6823 121.242 96.5408C122.526 97.3992 124.037 97.8574 125.582 97.8574C127.652 97.8512 129.636 97.0262 131.099 95.5624C132.563 94.0986 133.388 92.115 133.395 90.0449Z"
        fill="#9A1C20"
    />
    <path
        d="M160.74 136.92V148.99L139.021 163.795C137.97 164.202 136.839 164.354 135.718 164.238C134.598 164.123 133.521 163.743 132.575 163.131C131.589 162.516 130.784 161.651 130.243 160.622C129.701 159.594 129.443 158.44 129.495 157.279C129.546 156.118 129.906 154.992 130.537 154.016C131.167 153.04 132.046 152.249 133.083 151.725L160.74 136.92Z"
        fill="#CDD2E1"
    />
    <path
        d="M156.834 82.2324C143.384 79.4495 129.444 80.1704 116.353 84.3262C113.957 85.1236 111.769 86.4452 109.947 88.1948C108.126 89.9443 106.718 92.0779 105.824 94.4403C104.931 96.8026 104.576 99.3343 104.785 101.851C104.993 104.368 105.76 106.807 107.029 108.99L125.584 140.826L113.865 148.639L164.646 117.389H223.24C240.31 117.389 245.467 108.404 246.482 106.178C246.6 104.225 246.678 102.311 246.678 100.357V97.8574C246.678 95.3262 246.537 92.8262 246.326 90.3457C223.912 99.1465 195.006 89.1738 156.834 82.2324ZM125.584 97.8574C124.039 97.8574 122.528 97.3992 121.243 96.5408C119.959 95.6823 118.957 94.4622 118.366 93.0346C117.775 91.6071 117.62 90.0363 117.922 88.5208C118.223 87.0053 118.967 85.6133 120.06 84.5207C121.152 83.4281 122.544 82.684 124.06 82.3825C125.575 82.0811 127.146 82.2358 128.574 82.8271C130.001 83.4184 131.221 84.4198 132.08 85.7045C132.938 86.9893 133.396 88.4998 133.396 90.0449C133.39 92.115 132.565 94.0986 131.101 95.5624C129.638 97.0262 127.654 97.8512 125.584 97.8574Z"
        fill="#85181C"
    />
    <path
        d="M52.1836 51.8809L51.3633 51.0449C51.3278 52.3336 51.0376 53.6025 50.5093 54.7785C49.981 55.9544 49.2251 57.0141 48.2852 57.8965C46.8386 59.2629 45.6758 60.9013 44.8634 62.7178C44.051 64.5343 43.605 66.4933 43.5508 68.4824V77.6543C43.5507 78.5992 43.329 79.5309 42.9035 80.3746C42.478 81.2183 41.8606 81.9505 41.1009 82.5123C40.3411 83.0741 39.4602 83.45 38.5289 83.6096C37.5976 83.7693 36.6418 83.7083 35.7383 83.4316V90.0449L47.457 93.6387V76.2949C47.5102 74.3063 47.955 72.3477 48.7661 70.5312C49.5771 68.7148 50.7385 67.0761 52.1836 65.709C53.1546 64.8378 53.9312 63.7719 54.4628 62.5806C54.9945 61.3893 55.2692 60.0994 55.2692 58.7949C55.2692 57.4904 54.9945 56.2005 54.4628 55.0092C53.9312 53.818 53.1546 52.752 52.1836 51.8809Z"
        fill="#CDD2E1"
    />
    <path
        d="M168.549 129.107H227.143C232.767 129.321 238.345 128.008 243.283 125.307C245.016 119.056 246.087 112.641 246.479 106.166C245.463 108.404 240.307 117.389 223.236 117.389H164.643L113.861 148.639C108.861 153.561 108.783 161.139 113.861 164.107L114.865 164.674C115.532 163.054 116.519 161.586 117.768 160.357L168.549 129.107Z"
        fill="#741213"
    />
    <path
        d="M136.99 155.631L160.74 142.916V136.92L133.083 151.725C132.046 152.249 131.167 153.04 130.537 154.016C129.906 154.992 129.546 156.118 129.495 157.279C129.443 158.44 129.701 159.594 130.243 160.622C130.784 161.651 131.589 162.516 132.575 163.131C132.98 163.384 133.409 163.595 133.857 163.76C133.567 163.037 133.411 162.268 133.396 161.49C133.396 160.277 133.732 159.088 134.366 158.053C135 157.019 135.908 156.181 136.99 155.631Z"
        fill="#333940"
    />
    <path
        d="M219.113 166.326L213.578 169.092C212.78 169.489 211.875 169.617 210.998 169.456C210.121 169.296 209.32 168.856 208.714 168.201C208.108 167.547 207.731 166.715 207.638 165.828C207.545 164.941 207.742 164.049 208.199 163.283L217.379 147.994L203.707 152.545L195.895 172.076V183.795L232.457 177.154C234.257 176.825 235.884 175.874 237.055 174.468C238.226 173.062 238.866 171.289 238.863 169.459V164.264H227.848C224.816 164.264 221.825 164.97 219.113 166.326Z"
        fill="#CDD2E1"
    />
    <path d="M81.9844 96.0059L47.457 86.1387V93.6387L72.457 101.334L77.7695 102.975C83.1081 104.637 87.7666 107.98 91.0508 112.506C93.746 110.818 96.8247 109.84 100 109.662C95.9114 103.019 89.4846 98.1478 81.9844 96.0059Z" fill="#741213" />
    <path
        d="M97.9102 138.955C100.165 138.392 102.138 137.03 103.465 135.122C104.792 133.214 105.382 130.89 105.125 128.58L104.461 122.6C103.948 118.01 102.425 113.592 100 109.662C96.8247 109.84 93.746 110.818 91.0508 112.506C91.2461 112.74 91.4023 113.014 91.5977 113.287C93.6905 116.434 94.628 120.209 94.2505 123.97C93.873 127.73 92.2039 131.244 89.5273 133.912L85.8945 136.217C83.696 137.64 81.8873 139.589 80.6323 141.888C79.3772 144.186 78.7155 146.762 78.707 149.381V155.045L90.4258 152.908V148.541C90.4261 146.338 91.1628 144.197 92.5189 142.46C93.8749 140.724 95.7725 139.49 97.9102 138.955Z"
        fill="#741213"
    />
    <path
        d="M189.254 158.014L185.738 165.045C184.914 166.87 184.345 168.799 184.047 170.779C183.894 171.561 183.624 172.316 183.246 173.018C175.299 175.578 167.79 179.339 160.98 184.17L157.035 186.99C148.408 193.232 137.666 195.815 127.145 194.178C93.3555 188.689 90.4258 168.17 90.4258 168.17V152.908L78.707 155.045V164.264C78.707 181.529 101.012 203.326 133.395 203.326H140.152C145.549 203.338 150.783 201.474 154.957 198.053C163.395 191.178 179.645 179.889 195.895 179.889V172.076L203.707 152.545L189.254 158.014Z"
        fill="#741213"
    />
    <path
        d="M125.582 15.8262C178.355 15.8262 222.27 49.0527 232.613 93.334C237.311 92.9401 241.931 91.8882 246.336 90.209C242.031 39.8184 194.934 0.201172 137.301 0.201172C91.9102 0.201172 62.7695 27.8496 47.8477 47.4277L48.9258 48.5137C58.8817 38.2338 70.7912 30.0469 83.955 24.4336C97.1188 18.8204 111.272 15.8939 125.582 15.8262Z"
        fill="#B82126"
    />
    <path
        d="M231.363 141.725L230.852 143.506L238.082 141.1C238.33 140.994 238.594 140.928 238.863 140.904V140.826L243.082 126.1C243.156 125.838 243.211 125.568 243.285 125.318C240.433 126.913 237.319 127.985 234.09 128.486C233.499 132.959 232.588 137.383 231.363 141.725Z"
        fill="#9A1C20"
    />
    <path
        d="M234.957 115.596V115.986C234.957 117.939 234.879 119.854 234.762 121.807C234.633 124.041 234.371 126.264 234.09 128.479C237.319 127.978 240.433 126.905 243.285 125.311C244.133 122.186 244.848 119.061 245.375 115.881C245.414 115.631 245.441 115.381 245.48 115.135C245.695 113.791 245.898 112.443 246.051 111.092C246.238 109.462 246.38 107.829 246.477 106.193C245.286 108.454 243.653 110.451 241.674 112.067C239.694 113.682 237.41 114.882 234.957 115.596Z"
        fill="#85181C"
    />
    <path
        d="M246.324 90.3457C241.936 92.0233 237.334 93.0752 232.652 93.4707C234.182 100.031 234.955 106.746 234.957 113.482V115.596C237.412 114.881 239.698 113.679 241.678 112.06C243.658 110.442 245.291 108.441 246.48 106.178C246.598 104.225 246.676 102.311 246.676 100.357V97.8574C246.676 95.3262 246.535 92.8262 246.324 90.3457Z"
        fill="#9A1C20"
    />
    <path
        d="M125.582 78.3262C123.264 78.3262 120.999 79.0135 119.071 80.3011C117.144 81.5888 115.642 83.419 114.755 85.5603C113.868 87.7017 113.636 90.0579 114.088 92.3311C114.541 94.6044 115.657 96.6924 117.296 98.3313C118.935 99.9702 121.023 101.086 123.296 101.538C125.569 101.991 127.925 101.759 130.067 100.872C132.208 99.9847 134.038 98.4826 135.326 96.5555C136.613 94.6284 137.301 92.3627 137.301 90.0449C137.301 86.9369 136.066 83.9562 133.868 81.7585C131.671 79.5608 128.69 78.3262 125.582 78.3262ZM125.582 97.8574C124.037 97.8574 122.526 97.3992 121.242 96.5408C119.957 95.6823 118.956 94.4622 118.364 93.0346C117.773 91.6071 117.618 90.0363 117.92 88.5208C118.221 87.0053 118.965 85.6132 120.058 84.5206C121.15 83.4281 122.542 82.684 124.058 82.3825C125.573 82.0811 127.144 82.2358 128.572 82.8271C129.999 83.4184 131.219 84.4198 132.078 85.7045C132.936 86.9893 133.395 88.4998 133.395 90.0449C133.388 92.115 132.563 94.0986 131.099 95.5624C129.636 97.0262 127.652 97.8512 125.582 97.8574Z"
        fill="#741213"
    />
    <path
        d="M79.5391 71.5605L59.1758 63.9238C62.7628 53.1789 69.3459 43.683 78.1497 36.5547C86.9535 29.4264 97.6112 24.9627 108.867 23.6894C110.196 23.5014 111.55 23.7077 112.763 24.2827C113.975 24.8577 114.992 25.776 115.688 26.9238L118.926 32.3183C119.446 33.176 119.769 34.1387 119.87 35.1366C119.972 36.1346 119.85 37.1426 119.513 38.0875C119.176 39.0323 118.634 39.8904 117.924 40.5992C117.214 41.3081 116.355 41.85 115.41 42.1855C109.269 44.1246 103.639 47.4145 98.9353 51.8136C94.2313 56.2126 90.5722 61.6093 88.2266 67.6074C87.5943 69.2802 86.3258 70.6348 84.698 71.3755C83.0703 72.1162 81.2157 72.1827 79.5391 71.5605Z"
        fill="#B82126"
    />
    <path
        d="M125.582 93.9512C127.739 93.9512 129.488 92.2023 129.488 90.0449C129.488 87.8876 127.739 86.1387 125.582 86.1387C123.425 86.1387 121.676 87.8876 121.676 90.0449C121.676 92.2023 123.425 93.9512 125.582 93.9512Z"
        fill="#333940"
    />
    <path d="M102.145 168.17C104.302 168.17 106.051 166.421 106.051 164.264C106.051 162.106 104.302 160.357 102.145 160.357C99.9872 160.357 98.2383 162.106 98.2383 164.264C98.2383 166.421 99.9872 168.17 102.145 168.17Z" fill="#E9EDF5" />
    <path d="M109.957 179.889C112.114 179.889 113.863 178.14 113.863 175.982C113.863 173.825 112.114 172.076 109.957 172.076C107.8 172.076 106.051 173.825 106.051 175.982C106.051 178.14 107.8 179.889 109.957 179.889Z" fill="#E9EDF5" />
    <path
        d="M125.582 187.701C127.739 187.701 129.488 185.952 129.488 183.795C129.488 181.638 127.739 179.889 125.582 179.889C123.425 179.889 121.676 181.638 121.676 183.795C121.676 185.952 123.425 187.701 125.582 187.701Z"
        fill="#E9EDF5"
    />
    <path d="M160.738 179.889C162.896 179.889 164.645 178.14 164.645 175.982C164.645 173.825 162.896 172.076 160.738 172.076C158.581 172.076 156.832 173.825 156.832 175.982C156.832 178.14 158.581 179.889 160.738 179.889Z" fill="#E9EDF5" />
    <path
        d="M128.957 138.873L101.613 91.998C101.092 91.1045 100.238 90.4541 99.2383 90.1895L47.457 76.5449L35.7383 73.4629L28.3164 71.5098C28.1942 71.483 28.0863 71.4118 28.0137 71.31C27.9411 71.2081 27.909 71.0829 27.9236 70.9586C27.9382 70.8344 27.9985 70.72 28.0928 70.6378C28.187 70.5555 28.3085 70.5113 28.4336 70.5137H35.7383V66.6074C35.7383 66.6074 36.4453 65.1309 37.8086 62.7012H28.4336C26.414 62.7014 24.4635 63.4365 22.9462 64.7693C21.4289 66.1021 20.4483 67.9415 20.1877 69.9441C19.927 71.9468 20.404 73.9759 21.5296 75.6527C22.6552 77.3295 24.3525 78.5394 26.3047 79.0566L35.7383 81.541L47.457 84.623L95.6797 97.3145L120.355 139.615L112.367 144.939L70.5469 152.545H63C41.9688 152.58 13.4141 152.611 7.80078 150.475C7.35124 149.755 6.67979 149.202 5.8879 148.898C5.09602 148.594 4.22673 148.556 3.4114 148.79C2.59606 149.024 1.87899 149.517 1.36855 150.194C0.858108 150.872 0.582028 151.697 0.582031 152.545C0.609136 153.097 0.707611 153.643 0.875 154.17C0.923806 154.316 0.982537 154.458 1.05078 154.596C3.37109 159.393 12.0938 160.357 58.1016 160.357H70.8945C71.1264 160.358 71.3579 160.337 71.5859 160.295L114.555 152.482C115.079 152.386 115.579 152.184 116.023 151.889L127.742 144.076C128.568 143.525 129.153 142.681 129.378 141.715C129.604 140.748 129.453 139.732 128.957 138.873Z"
        fill="#CDD2E1"
    />
    <path
        d="M4.48828 148.639C5.1508 148.639 5.80244 148.807 6.38191 149.128C6.96138 149.45 7.44965 149.913 7.80078 150.475C7.96094 150.537 8.19141 150.588 8.39453 150.646V143.404C8.39565 142.965 8.46686 142.528 8.60547 142.111C8.83532 141.463 9.22992 140.886 9.75045 140.437C10.271 139.988 10.8995 139.682 11.5742 139.549L64.1445 129.709L65.4062 121.506L10.1094 131.873C8.08078 132.271 6.19178 133.193 4.63054 134.548C3.06929 135.903 1.89028 137.643 1.21094 139.596C0.797346 140.823 0.584969 142.109 0.582031 143.404L0.582031 152.545C0.582031 151.509 0.993582 150.515 1.72615 149.783C2.45871 149.05 3.45228 148.639 4.48828 148.639Z"
        fill="#AFB4C8"
    />
    <path
        d="M59.4297 160.357L55.7383 184.354L22.5352 190.377C21.8754 190.502 21.1942 190.449 20.5619 190.223C19.9295 189.997 19.3688 189.606 18.9375 189.092C18.5365 188.659 18.248 188.135 18.0977 187.564L10.2617 158.912C4.28906 158.041 2.0625 156.682 1.05078 154.592C0.982537 154.454 0.923806 154.312 0.875 154.166C0.851563 154.104 0.835937 153.998 0.8125 153.92L10.5781 189.568C11.0357 191.313 11.9081 192.921 13.1211 194.256C14.2056 195.507 15.5457 196.51 17.0511 197.199C18.5566 197.888 20.1922 198.245 21.8477 198.248C22.5485 198.25 23.2481 198.187 23.9375 198.061L59.875 191.537C60.6743 191.391 61.4083 191 61.9747 190.417C62.5412 189.835 62.9118 189.09 63.0352 188.287L67.3359 160.357H59.4297Z"
        fill="#BEC3D2"
    />
    <path d="M70.1641 90.5957L65.4258 121.521L64.1641 129.705L60.6328 152.545H68.5508L77.7734 92.5996L70.1641 90.5957Z" fill="#BEC3D2" />
    <path
        d="M45.7109 172.486L17.793 186.443L18.0977 187.564C18.248 188.134 18.5365 188.657 18.9375 189.088C19.3683 189.603 19.929 189.994 20.5615 190.22C21.194 190.446 21.8754 190.499 22.5352 190.373L30.1758 188.986L49.1953 179.498C52.5085 177.528 55.3913 174.911 57.6719 171.803L59.4297 160.357H56.2187C53.5941 165.085 50.0159 169.215 45.7109 172.486Z"
        fill="#9DA3B5"
    />
    <path
        d="M100.555 105.67H99.5039C95.5364 105.704 91.6404 106.729 88.17 108.652C84.6996 110.575 81.7649 113.336 79.6328 116.682L71.8203 129.158C70.34 131.535 68.2778 133.496 65.8288 134.854C63.3797 136.212 60.6247 136.923 57.8242 136.92H3.17578C2.94268 136.945 2.71248 136.992 2.48828 137.061C1.96107 137.851 1.53213 138.702 1.21094 139.596C0.797346 140.823 0.584969 142.109 0.582031 143.404L0.582031 143.701C1.28768 144.356 2.21282 144.724 3.17578 144.732H57.8242C61.9493 144.735 66.007 143.685 69.6137 141.683C73.2205 139.681 76.2574 136.793 78.4375 133.291L86.25 120.818C87.5397 118.76 89.3038 117.04 91.3945 115.803C93.8205 114.271 96.6346 113.465 99.5039 113.482H105.113L100.555 105.67Z"
        fill="#CDD2E1"
    />
    <path d="M212.694 44.3839C215.198 41.8782 214.4 37.0209 210.911 33.5349C207.423 30.0488 202.565 29.2541 200.061 31.7599C197.557 34.2656 198.355 39.1229 201.844 42.6089C205.332 46.095 210.19 46.8897 212.694 44.3839Z" fill="#F6FAFD" />
    <path d="M174.388 53.0089C175.646 51.75 175.246 49.3102 173.494 47.5596C171.742 45.8089 169.302 45.4103 168.044 46.6693C166.786 47.9283 167.186 50.368 168.938 52.1187C170.69 53.8693 173.13 54.2679 174.388 53.0089Z" fill="#F6FAFD" />
    <path d="M163.992 41.6621C164.622 41.0318 164.422 39.8113 163.546 38.936C162.67 38.0607 161.45 37.862 160.82 38.4923C160.19 39.1225 160.39 40.343 161.266 41.2183C162.142 42.0937 163.362 42.2923 163.992 41.6621Z" fill="#F6FAFD" />
</svg>
<svg id="american-ball" width="251" height="251" viewBox="0 0 251 251" fill="none" xmlns="http://www.w3.org/2000/svg">
    <path d="M154.605 96.7402L168.551 110.686L157.379 121.857L149.293 113.771L137.574 102.053L129.488 93.9668L140.66 82.7949L154.605 96.7402Z" fill="#EEF2FA" />
    <path d="M137.027 126.037L145.113 134.123L133.941 145.295L125.855 137.209L114.137 125.49L106.051 117.404L117.223 106.232L125.309 114.318L137.027 126.037Z" fill="#EEF2FA" />
    <path d="M113.59 149.475L121.676 157.561L110.504 168.732L102.418 160.646L96.5586 154.787L90.6992 148.928L82.6133 140.842L93.7852 129.67L101.871 137.756L113.59 149.475Z" fill="#EEF2FA" />
    <path d="M137.575 102.053L125.309 114.32L137.028 126.04L149.295 113.773L137.575 102.053Z" fill="#CDD2E1" />
    <path d="M114.138 125.488L101.871 137.754L113.591 149.474L125.857 137.207L114.138 125.488Z" fill="#CDD2E1" />
    <path d="M113.863 239.045L113.902 239.24C104.375 241.936 94.6609 243.92 84.8398 245.178L45.5039 205.842L63.082 188.264L113.863 239.045Z" fill="#CDD2E1" />
    <path d="M63.082 188.264L45.5039 205.842L6.16797 166.506C7.42543 156.685 9.41005 146.971 12.1055 137.443L12.3008 137.482L63.082 188.264Z" fill="#EEF2FA" />
    <path d="M205.66 45.6855L244.996 85.0215C243.739 94.8425 241.754 104.557 239.059 114.084L238.863 114.045L188.082 63.2637L205.66 45.6855Z" fill="#CDD2E1" />
    <path d="M205.66 45.6855L188.082 63.2637L137.301 12.4824L137.262 12.2871C146.789 9.59169 156.503 7.60707 166.324 6.34961L205.66 45.6855Z" fill="#EEF2FA" />
    <path d="M45.5039 205.842L84.8398 245.178C59.8898 248.483 34.544 247.159 10.0742 241.271L45.5039 205.842Z" fill="#80413E" />
    <path d="M45.5036 205.842L10.0739 241.271C4.18631 216.802 2.86208 191.456 6.16761 166.506L45.5036 205.842Z" fill="#974D4A" />
    <path d="M241.09 10.2559C246.977 34.7256 248.302 60.0714 244.996 85.0215L205.66 45.6855L241.09 10.2559Z" fill="#80413E" />
    <path d="M241.09 10.2559L205.66 45.6856L166.324 6.34962C191.274 3.04409 216.62 4.36832 241.09 10.2559Z" fill="#974D4A" />
    <path
        d="M157.379 121.857L168.551 110.686L154.605 96.7402L188.082 63.2637L238.863 114.045L239.059 114.084C230.631 143.893 214.646 171.019 192.652 192.834C170.838 214.828 143.711 230.813 113.902 239.24L113.863 239.045L63.082 188.264L96.5586 154.787L102.418 160.646L110.504 168.732L121.676 157.561L113.59 149.475L125.855 137.209L133.941 145.295L145.113 134.123L137.027 126.037L149.293 113.771L157.379 121.857Z"
        fill="#80413E"
    />
    <path
        d="M90.6992 148.928L96.5586 154.787L63.082 188.264L12.3008 137.482L12.1055 137.443C20.6501 107.685 36.6188 80.5861 58.5116 58.6932C80.4045 36.8004 107.503 20.8317 137.262 12.2871L137.301 12.4824L188.082 63.2637L154.605 96.7402L140.66 82.7949L129.488 93.9668L137.574 102.053L125.309 114.318L117.223 106.232L106.051 117.404L114.137 125.49L101.871 137.756L93.7852 129.67L82.6133 140.842L90.6992 148.928Z"
        fill="#974D4A"
    />
    <path
        d="M116.351 146.713L96.546 126.908C95.8135 126.176 94.8201 125.765 93.7843 125.765C92.7485 125.765 91.7551 126.176 91.0226 126.908L79.8507 138.08C79.1184 138.813 78.707 139.806 78.707 140.842C78.707 141.878 79.1184 142.871 79.8507 143.604L107.741 171.494C108.474 172.227 109.467 172.638 110.503 172.638C111.539 172.638 112.532 172.227 113.265 171.494L124.437 160.322C125.169 159.59 125.58 158.596 125.58 157.561C125.58 156.525 125.169 155.531 124.437 154.799L116.351 146.713ZM110.503 168.733L102.417 160.647L96.5578 154.787L90.6984 148.928L82.6124 140.842L93.7843 129.67L101.87 137.756L113.589 149.475L121.675 157.561L110.503 168.733Z"
        fill="#572D2A"
    />
    <path
        d="M139.788 123.276L119.984 103.471C119.251 102.739 118.258 102.327 117.222 102.327C116.186 102.327 115.193 102.739 114.46 103.471L103.288 114.643C102.556 115.375 102.145 116.369 102.145 117.404C102.145 118.44 102.556 119.434 103.288 120.166L131.179 148.057C131.911 148.789 132.905 149.2 133.941 149.2C134.976 149.2 135.97 148.789 136.702 148.057L147.874 136.885C148.606 136.152 149.018 135.159 149.018 134.123C149.018 133.087 148.606 132.094 147.874 131.361L139.788 123.276ZM133.941 145.295L125.855 137.209L114.136 125.49L106.05 117.404L117.222 106.233L125.308 114.318L137.026 126.037L145.112 134.123L133.941 145.295Z"
        fill="#572D2A"
    />
    <path
        d="M171.312 107.924L143.421 80.0333C142.689 79.301 141.695 78.8896 140.659 78.8896C139.624 78.8896 138.63 79.301 137.898 80.0333L126.726 91.2052C125.993 91.9377 125.582 92.9311 125.582 93.9669C125.582 95.0027 125.993 95.9961 126.726 96.7287L154.616 124.619C155.349 125.352 156.342 125.763 157.378 125.763C158.414 125.763 159.407 125.352 160.14 124.619L171.312 113.447C172.044 112.715 172.455 111.721 172.455 110.686C172.455 109.65 172.044 108.656 171.312 107.924ZM157.378 121.858L149.292 113.772L137.573 102.053L129.487 93.9669L140.659 82.7951L154.605 96.7404L168.55 110.686L157.378 121.858Z"
        fill="#572D2A"
    />
    <path d="M94.7656 219.943L94.6445 219.982C85.1173 222.678 75.4031 224.662 65.582 225.92L84.8398 245.178C94.6609 243.92 104.375 241.936 113.902 239.24L113.863 239.045L94.7656 219.943Z" fill="#AFB4C8" />
    <path d="M219.801 94.8262L219.762 94.9473L238.863 114.045L239.059 114.084C241.754 104.557 243.739 94.8425 244.996 85.0215L225.738 65.7637C224.481 75.5847 222.496 85.2989 219.801 94.8262Z" fill="#AFB4C8" />
    <path d="M24.2422 227.104L10.0742 241.271C34.544 247.159 59.8898 248.483 84.8398 245.178L65.582 225.92C51.8722 227.642 38.0282 228.039 24.2422 227.104Z" fill="#61312F" />
    <path d="M6.85938 225.229C7.62235 230.633 8.69574 235.99 10.0742 241.271L24.2422 227.104C17.6016 226.658 11.7461 225.967 6.85938 225.229Z" fill="#80413E" />
    <path d="M241.09 10.2559L226.922 24.4238C227.861 38.2094 227.468 52.0534 225.75 65.7637L245.008 85.0215C248.309 60.0707 246.981 34.7249 241.09 10.2559Z" fill="#61312F" />
    <path d="M241.09 10.2559C235.808 8.87738 230.452 7.80399 225.047 7.04102C225.789 11.9277 226.477 17.7832 226.922 24.4238L241.09 10.2559Z" fill="#80413E" />
    <path
        d="M219.762 94.9473C211.328 124.709 195.357 151.792 173.395 173.576C151.61 195.539 124.528 211.509 94.7656 219.943L113.863 239.045L113.902 239.24C143.711 230.813 170.838 214.828 192.652 192.834C214.646 171.019 230.631 143.893 239.059 114.084L238.863 114.045L219.762 94.9473Z"
        fill="#61312F"
    />
    <path
        d="M33.5382 131.623C32.6012 131.623 31.6781 131.397 30.8463 130.966C30.0144 130.535 29.2981 129.91 28.7574 129.145C28.2168 128.38 27.8675 127.496 27.739 126.568C27.6105 125.64 27.7064 124.694 28.0187 123.811C41.5472 86.6046 68.3696 55.7232 103.316 37.1194C104.69 36.3942 106.297 36.2448 107.782 36.7041C109.267 37.1634 110.508 38.1938 111.234 39.5686C111.959 40.9434 112.108 42.5499 111.649 44.0348C111.189 45.5197 110.159 46.7614 108.784 47.4866C76.4346 64.7156 51.5984 93.2985 39.0539 127.737C38.6472 128.874 37.899 129.858 36.9117 130.554C35.9243 131.249 34.7461 131.623 33.5382 131.623Z"
        fill="#D16B67"
    />
    <path
        d="M121.678 41.0412C120.309 41.0425 118.983 40.5645 117.929 39.6902C116.876 38.8158 116.162 37.6002 115.912 36.2544C115.661 34.9086 115.889 33.5176 116.557 32.3227C117.225 31.1278 118.291 30.2045 119.568 29.713C122.284 28.6714 124.981 27.7078 127.658 26.8224C129.134 26.3371 130.743 26.458 132.13 27.1587C133.517 27.8594 134.569 29.0825 135.055 30.5588C135.54 32.0351 135.419 33.6437 134.718 35.0308C134.018 36.4179 132.795 37.4699 131.318 37.9552C128.826 38.7756 126.316 39.6714 123.787 40.6427C123.115 40.9053 122.399 41.0404 121.678 41.0412Z"
        fill="#D16B67"
    />
    <path d="M146.292 56.6632C148.796 54.1575 147.998 49.3002 144.509 45.8142C141.021 42.3281 136.163 41.5334 133.659 44.0392C131.155 46.5449 131.953 51.4022 135.441 54.8882C138.93 58.3742 143.788 59.169 146.292 56.6632Z" fill="#F6FAFD" />
    <path d="M127.509 61.3833C128.767 60.1244 128.367 57.6846 126.615 55.934C124.863 54.1833 122.423 53.7847 121.165 55.0437C119.907 56.3027 120.307 58.7424 122.059 60.4931C123.811 62.2437 126.251 62.6423 127.509 61.3833Z" fill="#F6FAFD" />
</svg>
<svg id="base-ball" width="251" height="251" viewBox="0 0 251 251" fill="none" xmlns="http://www.w3.org/2000/svg">
    <path
        d="M48.1244 224.513C50.2586 227.144 51.3438 230.471 51.1707 233.853C50.9976 237.236 49.5785 240.435 47.1869 242.834V242.873C44.6156 245.425 41.1397 246.857 37.5169 246.857C33.8941 246.857 30.4182 245.425 27.847 242.873L8.51107 223.498C7.23623 222.231 6.2245 220.725 5.5341 219.066C4.84371 217.406 4.48828 215.627 4.48828 213.83C4.48828 212.033 4.84371 210.253 5.5341 208.594C6.2245 206.935 7.23623 205.428 8.51107 204.162C10.9096 201.77 14.1086 200.351 17.4914 200.178C20.8741 200.005 24.2012 201.09 26.8314 203.224L27.3392 203.693L47.6517 224.006L48.1244 224.513Z"
        fill="#EEF2FA"
    />
    <path
        d="M236.453 14.904C239.928 18.3769 242.629 22.5446 244.381 27.1342C246.133 31.7238 246.896 36.6317 246.619 41.5364C246.343 46.4412 245.033 51.2323 242.776 55.5958C240.519 59.9593 237.366 63.7968 233.523 66.8571L95.8594 179.904C91.0547 183.732 86.4063 187.717 81.875 191.935L81.7188 191.74L59.6094 169.631L59.4141 169.474C63.6328 164.943 67.6172 160.295 71.4453 155.49L184.496 17.8337C187.554 13.9876 191.391 10.8315 195.755 8.57259C200.118 6.31364 204.91 5.00284 209.816 4.72619C214.722 4.44954 219.631 5.21329 224.221 6.96734C228.811 8.72139 232.978 11.4261 236.449 14.904H236.453Z"
        fill="#EEF2FA"
    />
    <path d="M48.5504 180.686L37.4961 191.74L59.6066 213.851L70.6609 202.797L48.5504 180.686Z" fill="#EEF2FA" />
    <path
        d="M59.6094 213.85L48.5547 224.904L48.125 224.514L47.6563 224.006C47.5 223.85 47.3438 223.654 47.1875 223.498L27.8477 204.162C27.6914 204.006 27.4961 203.85 27.3398 203.693L26.832 203.225L26.4414 202.795L37.4961 191.74L59.6094 213.85Z"
        fill="#B82126"
    />
    <path d="M81.7187 191.74L81.875 191.936C79.2578 194.279 76.6797 196.74 74.1797 199.24L70.6641 202.795L48.5547 180.686L52.1094 177.17C54.6094 174.67 57.0703 172.092 59.4141 169.475L59.6094 169.631L81.7187 191.74Z" fill="#B82126" />
    <path
        d="M35.9329 235.06L16.597 215.685C14.7149 213.825 13.4189 211.454 12.8691 208.865C12.3193 206.277 12.5398 203.584 13.5033 201.119C11.7334 201.789 10.1253 202.826 8.78451 204.162C7.50967 205.428 6.49794 206.935 5.80754 208.594C5.11715 210.253 4.76172 212.033 4.76172 213.83C4.76172 215.627 5.11715 217.406 5.80754 219.066C6.49794 220.725 7.50967 222.231 8.78451 223.498L28.1204 242.873C30.691 245.425 34.1663 246.857 37.7884 246.857C41.4106 246.857 44.8858 245.425 47.4564 242.873V242.834C48.7923 241.495 49.8294 239.888 50.4994 238.119C48.0348 239.067 45.3489 239.282 42.7647 238.74C40.1805 238.197 37.8081 236.919 35.9329 235.06Z"
        fill="#DCE1EB"
    />
    <path
        d="M236.727 14.9043C231.953 10.1255 225.891 6.84064 219.281 5.45117C219.895 5.98633 220.516 6.50977 221.102 7.0957C224.576 10.5686 227.278 14.7364 229.03 19.3262C230.782 23.916 231.545 28.8242 231.268 33.7291C230.991 38.6341 229.681 43.4252 227.423 47.7886C225.166 52.152 222.012 55.9892 218.168 59.0488L80.5078 172.092C77.1484 174.768 73.8672 177.561 70.6641 180.416L81.9922 191.744L82.1484 191.939C86.6836 187.721 91.332 183.736 96.1367 179.908L233.785 66.8574C237.629 63.7984 240.784 59.9616 243.042 55.5985C245.3 51.2354 246.611 46.4445 246.889 41.5395C247.167 36.6345 246.405 31.7262 244.654 27.1361C242.902 22.546 240.201 18.3777 236.727 14.9043Z"
        fill="#DCE1EB"
    />
    <path d="M58.8242 191.428L55.3086 194.982L49.0586 201.787C48.8486 201.995 48.6269 202.191 48.3945 202.373L59.8789 213.85L70.9336 202.795L59.2148 191.076C59.082 191.189 58.9492 191.303 58.8242 191.428Z" fill="#DCE1EB" />
    <path
        d="M37.7852 202.029L32.6328 196.877L26.7148 202.795L27.1055 203.225L27.6133 203.693C27.7695 203.85 27.9648 204.006 28.1211 204.162L47.457 223.498C47.6133 223.654 47.7695 223.85 47.9258 224.006L48.3945 224.514L48.8242 224.904L59.8789 213.85L48.4023 202.373C46.918 203.671 44.9966 204.357 43.026 204.293C41.0554 204.23 39.1824 203.42 37.7852 202.029Z"
        fill="#85181C"
    />
    <path
        d="M70.6641 180.416C69.2812 181.646 67.8828 182.854 66.5195 184.123C64.0352 186.35 61.5898 188.693 59.207 191.068L70.9258 202.787L74.4414 199.232C76.9414 196.732 79.5195 194.271 82.1367 191.928L81.9805 191.732L70.6641 180.416Z"
        fill="#85181C"
    />
    <path
        d="M207.887 160.92L208.16 161.193C204.534 164.821 200.229 167.7 195.49 169.663C190.752 171.627 185.672 172.638 180.543 172.638C175.413 172.638 170.334 171.627 165.596 169.663C160.857 167.7 156.552 164.821 152.926 161.193L153.199 160.92C153.199 137.482 168.824 137.482 168.824 129.67C168.824 122.091 165.152 110.88 161.402 99.5524C167.241 96.2492 173.835 94.5132 180.543 94.5132C187.251 94.5132 193.845 96.2492 199.684 99.5524C195.934 110.88 192.262 122.091 192.262 129.67C192.262 137.482 207.887 137.482 207.887 160.92Z"
        fill="#EEF2FA"
    />
    <path
        d="M199.684 99.5527C204.939 102.504 209.44 106.632 212.833 111.613C216.226 116.595 218.42 122.295 219.241 128.266C220.062 134.238 219.489 140.318 217.566 146.031C215.644 151.744 212.424 156.933 208.16 161.193L207.887 160.92C207.887 137.482 192.262 137.482 192.262 129.67C192.262 122.092 195.934 110.881 199.684 99.5527Z"
        fill="#E9EDF5"
    />
    <path
        d="M161.401 99.5527C165.151 110.881 168.823 122.092 168.823 129.67C168.823 137.482 153.198 137.482 153.198 160.92L152.925 161.193C148.661 156.933 145.441 151.744 143.519 146.031C141.596 140.318 141.023 134.238 141.844 128.266C142.665 122.295 144.859 116.595 148.252 111.613C151.645 106.632 156.146 102.504 161.401 99.5527Z"
        fill="#E9EDF5"
    />
    <path
        d="M164.703 97.9512C163.582 98.4512 162.465 98.9512 161.402 99.5527C160.155 100.266 158.949 101.049 157.789 101.896C161.082 111.857 164.645 122.861 164.645 129.67C164.645 130.643 163.609 131.643 161.246 133.689C157.658 136.418 154.718 139.905 152.635 143.902C150.553 147.899 149.379 152.307 149.199 156.811C150.333 158.36 151.579 159.825 152.926 161.193C153.801 162.068 154.712 162.902 155.66 163.693C156.029 163.332 156.323 162.9 156.524 162.424C156.725 161.948 156.83 161.437 156.832 160.92C156.832 147.846 161.91 143.463 166.359 139.596C168.07 138.521 169.51 137.066 170.567 135.345C171.625 133.624 172.272 131.682 172.457 129.67C172.457 121.35 168.582 109.646 164.754 98.0996C164.734 98.0488 164.723 98.002 164.703 97.9512Z"
        fill="#9A1C20"
    />
    <path
        d="M199.293 133.689C196.949 131.643 195.895 130.643 195.895 129.67C195.895 122.748 199.578 111.479 202.84 101.611C201.809 100.893 200.781 100.17 199.684 99.5527C198.463 98.8771 197.207 98.2668 195.922 97.7246C195.867 97.8848 195.801 98.0723 195.703 98.3262C191.957 109.646 188.082 121.35 188.082 129.67C188.268 131.682 188.914 133.624 189.972 135.345C191.029 137.066 192.469 138.521 194.18 139.596C198.629 143.463 203.707 147.846 203.707 160.92C203.712 161.491 203.845 162.055 204.096 162.568C204.347 163.082 204.709 163.533 205.156 163.889C206.202 163.041 207.205 162.142 208.16 161.193C209.317 160.02 210.397 158.774 211.395 157.463C211.299 152.845 210.161 148.308 208.065 144.191C205.97 140.074 202.971 136.484 199.293 133.689Z"
        fill="#9A1C20"
    />
    <path
        d="M141.207 35.9199H63.082C60.9247 35.9199 59.1758 37.6688 59.1758 39.8262C59.1758 41.9835 60.9247 43.7324 63.082 43.7324H141.207C143.364 43.7324 145.113 41.9835 145.113 39.8262C145.113 37.6688 143.364 35.9199 141.207 35.9199Z"
        fill="#9A1C20"
    />
    <path
        d="M106.051 74.9824H27.9258C25.7684 74.9824 24.0195 76.7313 24.0195 78.8887C24.0195 81.046 25.7684 82.7949 27.9258 82.7949H106.051C108.208 82.7949 109.957 81.046 109.957 78.8887C109.957 76.7313 108.208 74.9824 106.051 74.9824Z"
        fill="#9A1C20"
    />
    <path
        d="M125.582 55.4512H70.8945C68.7372 55.4512 66.9883 57.2001 66.9883 59.3574C66.9883 61.5148 68.7372 63.2637 70.8945 63.2637H125.582C127.739 63.2637 129.488 61.5148 129.488 59.3574C129.488 57.2001 127.739 55.4512 125.582 55.4512Z"
        fill="#9A1C20"
    />
    <path
        d="M55.2695 55.4512H51.3633C49.2059 55.4512 47.457 57.2001 47.457 59.3574C47.457 61.5148 49.2059 63.2637 51.3633 63.2637H55.2695C57.4269 63.2637 59.1758 61.5148 59.1758 59.3574C59.1758 57.2001 57.4269 55.4512 55.2695 55.4512Z"
        fill="#9A1C20"
    />
    <path
        d="M205.594 147.639C198.609 153.614 189.738 156.93 180.546 157.001C171.354 157.072 162.433 153.895 155.355 148.029C153.83 152.152 153.099 156.526 153.199 160.92L152.926 161.193C156.552 164.822 160.857 167.7 165.596 169.664C170.334 171.628 175.413 172.638 180.543 172.638C185.672 172.638 190.752 171.628 195.49 169.664C200.229 167.7 204.534 164.822 208.16 161.193L207.887 160.92C208.002 156.385 207.223 151.872 205.594 147.639Z"
        fill="#DCE1EB"
    />
    <path
        d="M218.625 125.256C216.959 133.984 212.361 141.881 205.594 147.639C207.223 151.872 208.002 156.385 207.887 160.92L208.16 161.193C212.831 156.598 216.246 150.881 218.078 144.589C219.91 138.297 220.099 131.641 218.625 125.256Z"
        fill="#DCE1EB"
    />
    <path
        d="M155.356 148.029C148.712 142.52 144.083 134.965 142.192 126.544C140.973 132.757 141.316 139.175 143.189 145.222C145.063 151.27 148.409 156.757 152.926 161.193L153.199 160.919C153.099 156.525 153.831 152.151 155.356 148.029Z"
        fill="#DCE1EB"
    />
    <path
        d="M152.145 145.006C150.476 148.736 149.483 152.733 149.211 156.811C150.341 158.36 151.583 159.824 152.926 161.193C153.801 162.068 154.712 162.902 155.66 163.693C156.029 163.332 156.323 162.9 156.524 162.424C156.725 161.948 156.83 161.437 156.832 160.92C156.755 157.325 157.284 153.742 158.395 150.322C156.132 148.773 154.037 146.991 152.145 145.006Z"
        fill="#85181C"
    />
    <path
        d="M202.145 150.322C203.256 153.742 203.784 157.325 203.707 160.92C203.712 161.491 203.845 162.054 204.096 162.568C204.347 163.082 204.709 163.533 205.156 163.889C206.202 163.041 207.205 162.142 208.16 161.193C209.317 160.02 210.397 158.774 211.395 157.463C211.183 153.156 210.175 148.926 208.422 144.986C206.521 146.979 204.417 148.768 202.145 150.322Z"
        fill="#85181C"
    />
    <path
        d="M166.359 139.596C168.07 138.521 169.51 137.066 170.567 135.345C171.625 133.624 172.272 131.682 172.457 129.67C172.457 121.35 168.582 109.646 164.754 98.0996C164.754 98.0488 164.723 98.002 164.703 97.9512C163.582 98.4512 162.465 98.9512 161.402 99.5527C160.155 100.266 158.949 101.049 157.789 101.896C161.082 111.857 164.645 122.861 164.645 129.67C164.645 130.643 163.609 131.643 161.246 133.689C157.388 136.725 154.272 140.599 152.133 145.018C154.025 147.003 156.12 148.784 158.383 150.334C159.951 146.061 162.721 142.331 166.359 139.596Z"
        fill="#B82126"
    />
    <path
        d="M208.422 144.986C206.278 140.575 203.156 136.712 199.293 133.689C196.949 131.643 195.895 130.643 195.895 129.67C195.895 122.748 199.578 111.479 202.84 101.611C201.809 100.893 200.781 100.17 199.684 99.5527C198.463 98.8771 197.207 98.2668 195.922 97.7246C195.867 97.8848 195.801 98.0723 195.703 98.3262C191.957 109.646 188.082 121.35 188.082 129.67C188.268 131.682 188.914 133.624 189.972 135.345C191.029 137.066 192.469 138.521 194.18 139.596C197.812 142.33 200.578 146.055 202.145 150.322C204.417 148.768 206.521 146.979 208.422 144.986Z"
        fill="#B82126"
    />
    <path
        d="M161.402 99.5528C161.855 99.2989 162.344 99.1075 162.805 98.8692C157.256 98.0508 151.596 98.437 146.21 100.002C140.823 101.566 135.837 104.272 131.59 107.936C127.343 111.599 123.935 116.135 121.597 121.233C119.26 126.332 118.047 131.874 118.043 137.482C118.043 138.709 118.117 139.92 118.227 141.115L144.008 119.936C147.224 111.304 153.384 104.086 161.402 99.5528Z"
        fill="#DCE1EB"
    />
    <path d="M144.023 119.936L118.242 141.115C118.773 146.812 120.559 152.32 123.473 157.244L142.363 141.729C141.785 139.049 141.489 136.317 141.48 133.576C141.499 128.913 142.36 124.292 144.023 119.936Z" fill="#CDD2E1" />
    <path
        d="M208.788 29.3205C211.292 26.8147 210.494 21.9575 207.005 18.4714C203.517 14.9854 198.659 14.1907 196.155 16.6964C193.651 19.2021 194.449 24.0594 197.938 27.5454C201.426 31.0315 206.284 31.8262 208.788 29.3205Z"
        fill="#F6FAFD"
    />
    <path d="M197.821 41.8531C199.079 40.5941 198.679 38.1543 196.927 36.4037C195.175 34.653 192.735 34.2544 191.477 35.5134C190.219 36.7724 190.619 39.2121 192.371 40.9628C194.123 42.7134 196.563 43.112 197.821 41.8531Z" fill="#F6FAFD" />
    <path d="M178.294 108.261C179.552 107.002 179.152 104.562 177.4 102.811C175.648 101.061 173.208 100.662 171.95 101.921C170.692 103.18 171.092 105.62 172.844 107.371C174.596 109.121 177.036 109.52 178.294 108.261Z" fill="#F6FAFD" />
    <path d="M183.523 100.818C184.153 100.187 183.954 98.967 183.078 98.0917C182.202 97.2163 180.981 97.0177 180.351 97.6479C179.721 98.2782 179.921 99.4987 180.797 100.374C181.673 101.249 182.894 101.448 183.523 100.818Z" fill="#F6FAFD" />
</svg>
<svg id="golf-glove" width="243" height="243" viewBox="0 0 243 243" fill="none" xmlns="http://www.w3.org/2000/svg">
    <path
        d="M94.2389 82.7014V121.764C94.2389 125.908 92.5927 129.882 89.6624 132.812C86.7321 135.743 82.7579 137.389 78.6139 137.389C78.067 137.389 77.5592 137.35 77.0123 137.311C73.1652 136.914 69.6019 135.105 67.0115 132.234C64.4211 129.362 62.9878 125.631 62.9889 121.764V51.4514C62.9769 50.1321 63.1478 48.8175 63.4967 47.5451L63.1061 46.842C70.4452 42.826 78.2337 39.6922 86.3092 37.5061L86.4264 37.9358C88.8047 39.2997 90.78 41.2683 92.152 43.6419C93.5241 46.0155 94.244 48.7098 94.2389 51.4514V82.7014Z"
        fill="#542B29"
    />
    <path d="M117.676 74.8887V94.4199C117.668 97.9358 117.236 101.438 116.387 104.85L94.2383 82.7012V51.4512L117.676 74.8887Z" fill="#EEF2FA" />
    <path d="M62.9889 70.9826V94.4201L43.7311 113.678C43.54 112.477 43.4486 111.262 43.4576 110.045V90.5139L62.9889 70.9826Z" fill="#EEF2FA" />
    <path
        d="M43.7305 113.678C45.6445 126.686 58.0664 136.842 77.0117 137.311C77.5586 137.35 78.0664 137.389 78.6133 137.389C95.0977 137.389 111.738 123.561 116.387 104.85C117.236 101.438 117.668 97.9358 117.676 94.42V16.295C117.665 13.561 118.394 10.8751 119.785 8.52153C121.143 6.13515 123.109 4.15133 125.484 2.77211C127.858 1.3929 130.555 0.667554 133.301 0.669965C135.353 0.667394 137.386 1.06979 139.283 1.85411C141.18 2.63843 142.904 3.78926 144.355 5.24069C145.806 6.69211 146.957 8.41562 147.742 10.3125C148.526 12.2094 148.928 14.2423 148.926 16.295C148.926 12.151 150.572 8.17668 153.502 5.24642C156.432 2.31617 160.407 0.669965 164.551 0.669965C168.695 0.669965 172.669 2.31617 175.599 5.24642C178.53 8.17668 180.176 12.151 180.176 16.295C180.176 12.151 181.822 8.17668 184.752 5.24642C187.682 2.31617 191.657 0.669965 195.801 0.669965C199.945 0.669965 203.919 2.31617 206.849 5.24642C209.78 8.17668 211.426 12.151 211.426 16.295C211.426 12.151 213.072 8.17668 216.002 5.24642C218.932 2.31617 222.907 0.669965 227.051 0.669965C231.195 0.669965 235.169 2.31617 238.099 5.24642C241.03 8.17668 242.676 12.151 242.676 16.295V125.67C242.676 190.436 184.082 242.857 121.582 242.857C62.9883 242.857 0.488282 195.67 0.488282 137.389V49.4981C0.486871 45.2478 1.74614 41.0927 4.10678 37.5583C6.46742 34.0239 9.82334 31.2691 13.75 29.6424C17.6766 28.0157 21.9975 27.5902 26.166 28.4198C30.3345 29.2494 34.1633 31.2967 37.168 34.3028C37.27 34.3969 37.3616 34.5017 37.4414 34.6153C41.3051 38.6056 43.4628 43.9438 43.457 49.4981V110.045C43.448 111.261 43.5394 112.476 43.7305 113.678Z"
        fill="#974D4A"
    />
    <path
        d="M119.785 8.52147C118.394 10.875 117.665 13.561 117.676 16.2949V31.9199C107.099 33.026 96.6166 34.8929 86.3086 37.5058C78.2331 39.692 70.4447 42.8257 63.1055 46.8418C56.2914 50.5482 49.7278 54.6978 43.457 59.2637V49.498C43.4628 43.9437 41.3051 38.6055 37.4414 34.6152C61.4393 17.4283 90.2685 8.29264 119.785 8.52147Z"
        fill="#61312F"
    />
    <path d="M117.676 31.9199V74.8887L94.2383 51.4512C94.2434 48.7095 93.5235 46.0153 92.1514 43.6417C90.7794 41.2681 88.8041 39.2995 86.4258 37.9355L86.3086 37.5059C96.6166 34.8929 107.099 33.0261 117.676 31.9199Z" fill="#80413E" />
    <path d="M94.2383 82.7011L116.387 104.85C111.738 123.561 95.0977 137.389 78.6133 137.389C82.7573 137.389 86.7316 135.742 89.6618 132.812C92.5921 129.882 94.2383 125.908 94.2383 121.764V82.7011Z" fill="#80413E" />
    <path d="M67.5586 132.818C70.1093 135.344 73.4425 136.928 77.0117 137.311C58.0664 136.842 45.6445 126.686 43.7305 113.678L62.9883 94.4199V121.764C62.9957 125.907 64.6381 129.88 67.5586 132.818Z" fill="#80413E" />
    <path d="M63.1055 46.8418L63.4961 47.5449C63.1473 48.8173 62.9764 50.1319 62.9883 51.4512V70.9824L43.457 90.5137V59.2637C49.7278 54.6978 56.2914 50.5483 63.1055 46.8418Z" fill="#80413E" />
    <path
        d="M238.105 5.2403C235.167 2.31983 231.194 0.677382 227.051 0.669983V125.67C227.051 152.606 216.35 178.439 197.304 197.486C178.257 216.532 152.424 227.233 125.488 227.233H117.676C90.7397 227.233 64.9069 216.532 45.8602 197.486C26.8136 178.439 16.1133 152.606 16.1133 125.67V55.3575C16.1133 53.2855 16.9364 51.2983 18.4015 49.8332C19.8666 48.3681 21.8538 47.545 23.9258 47.545C25.9978 47.545 27.9849 48.3681 29.4501 49.8332C30.9152 51.2983 31.7383 53.2855 31.7383 55.3575C31.7383 57.4295 32.5614 59.4166 34.0265 60.8818C35.4916 62.3469 37.4788 63.17 39.5508 63.17H43.457V49.4981C43.4628 43.9438 41.3051 38.6056 37.4414 34.6153C37.3616 34.5017 37.27 34.397 37.168 34.3028C34.1633 31.2967 30.3345 29.2494 26.166 28.4198C21.9975 27.5902 17.6766 28.0157 13.75 29.6424C9.82334 31.2691 6.46742 34.0239 4.10678 37.5583C1.74614 41.0927 0.486871 45.2479 0.488282 49.4981V137.389C0.488282 195.67 62.9883 242.858 121.582 242.858C184.082 242.858 242.676 190.436 242.676 125.67V16.295C242.668 12.1518 241.026 8.17909 238.105 5.2403Z"
        fill="#6E3835"
    />
    <path
        d="M148.927 17.174V94.4201H156.74C158.812 94.4201 160.799 93.597 162.264 92.1319C163.729 90.6668 164.552 88.6796 164.552 86.6076V16.2951C164.552 14.2231 165.375 12.236 166.84 10.7709C168.305 9.30574 170.293 8.48264 172.365 8.48264H178.005C177.345 7.30562 176.539 6.21634 175.607 5.24045C174.911 4.55827 174.155 3.9399 173.349 3.39279C173.083 3.2131 172.786 3.0881 172.509 2.92404C171.951 2.57438 171.372 2.25997 170.775 1.98264C170.419 1.83029 170.04 1.73264 169.673 1.59201C169.108 1.38193 168.531 1.20328 167.947 1.05685C167.532 0.963104 167.103 0.931854 166.681 0.873261C166.105 0.78649 165.525 0.731718 164.943 0.709198C160.637 0.775046 156.534 2.54517 153.532 5.63154C150.53 8.71792 148.874 12.8687 148.927 17.174Z"
        fill="#61312F"
    />
    <path
        d="M180.177 17.174V94.4201H187.99C190.062 94.4201 192.049 93.597 193.514 92.1319C194.979 90.6668 195.802 88.6796 195.802 86.6076V16.2951C195.802 14.2231 196.625 12.236 198.09 10.7709C199.555 9.30574 201.543 8.48264 203.615 8.48264H209.255C208.595 7.30562 207.789 6.21634 206.857 5.24045C206.161 4.55827 205.405 3.9399 204.599 3.39279C204.333 3.2131 204.036 3.0881 203.759 2.92404C203.201 2.57438 202.622 2.25997 202.025 1.98264C201.669 1.83029 201.29 1.73264 200.923 1.59201C200.358 1.38193 199.781 1.20328 199.197 1.05685C198.782 0.963104 198.353 0.931854 197.931 0.873261C197.355 0.78649 196.775 0.731718 196.193 0.709198C191.887 0.775046 187.784 2.54517 184.782 5.63154C181.78 8.71792 180.124 12.8687 180.177 17.174Z"
        fill="#61312F"
    />
    <path
        d="M211.427 17.174V94.4201H219.24C221.312 94.4201 223.299 93.597 224.764 92.1319C226.229 90.6668 227.052 88.6796 227.052 86.6076V16.2951C227.052 14.2231 227.875 12.236 229.34 10.7709C230.805 9.30574 232.793 8.48264 234.865 8.48264H240.505C239.845 7.30562 239.039 6.21634 238.107 5.24045C237.411 4.55827 236.655 3.9399 235.849 3.39279C235.583 3.2131 235.286 3.0881 235.009 2.92404C234.451 2.57438 233.872 2.25997 233.275 1.98264C232.919 1.83029 232.54 1.73264 232.173 1.59201C231.608 1.38193 231.031 1.20328 230.447 1.05685C230.032 0.963104 229.603 0.931854 229.181 0.873261C228.605 0.78649 228.025 0.731718 227.443 0.709198C223.137 0.775046 219.034 2.54517 216.032 5.63154C213.03 8.71792 211.374 12.8687 211.427 17.174Z"
        fill="#61312F"
    />
    <path
        d="M66.8945 145.201H86.4258C98.8578 145.201 110.781 140.263 119.571 131.472C128.362 122.681 133.301 110.758 133.301 98.3262V28.0137C133.305 23.9685 134.88 20.0832 137.695 17.178C140.51 14.2728 144.344 12.5751 148.387 12.4433C147.563 9.07024 145.625 6.07346 142.888 3.93715C140.151 1.80084 136.773 0.649775 133.301 0.669907C130.555 0.667496 127.858 1.39284 125.484 2.77206C123.109 4.15128 121.143 6.1351 119.785 8.52147C118.394 10.875 117.665 13.561 117.676 16.2949V94.4199C117.668 97.9358 117.236 101.438 116.387 104.85C111.738 123.561 95.0977 137.389 78.6133 137.389C78.0664 137.389 77.5586 137.35 77.0117 137.311C58.0664 136.842 45.6445 126.686 43.7305 113.678C43.5394 112.476 43.448 111.261 43.457 110.045V63.1699H39.5508C37.4788 63.1699 35.4916 62.3468 34.0265 60.8817C32.5614 59.4166 31.7383 57.4294 31.7383 55.3574V110.045C31.7383 114.662 32.6476 119.233 34.4144 123.499C36.1812 127.764 38.7707 131.64 42.0353 134.904C48.6284 141.497 57.5705 145.201 66.8945 145.201Z"
        fill="#80413E"
    />
    <path
        d="M107.613 9.07617L106.777 10.748C106.238 11.8276 105.957 13.0178 105.957 14.2246C105.938 16.8276 105.023 19.3446 103.366 21.3522C101.709 23.3598 99.4115 24.7356 96.8594 25.248C84.0918 28.4191 71.608 32.6392 59.5352 37.8652C59.0349 38.073 58.4969 38.1744 57.9553 38.1631C57.4137 38.1518 56.8804 38.028 56.3893 37.7995C55.8981 37.571 55.4599 37.2428 55.1023 36.8359C54.7448 36.4289 54.4758 35.952 54.3125 35.4355C53.466 32.8961 52.4494 30.4165 51.2695 28.0137L49.3711 27.0645C45.3867 29.3535 41.4102 31.8457 37.4414 34.6152C41.3051 38.6055 43.4628 43.9437 43.457 49.4981V59.2637C49.7278 54.6978 56.2914 50.5483 63.1055 46.8418C70.4447 42.8258 78.2331 39.692 86.3086 37.5059C96.6166 34.8929 107.099 33.0261 117.676 31.9199V16.2949C117.665 13.561 118.394 10.875 119.785 8.52148C115.66 8.56055 111.603 8.74544 107.613 9.07617Z"
        fill="#472423"
    />
    <path
        d="M94.2383 121.764V121.1C89.5732 124.084 84.1512 125.67 78.6133 125.67C73.0754 125.67 67.6533 124.084 62.9883 121.1V121.764C62.9872 125.631 64.4205 129.362 67.0109 132.234C69.6013 135.105 73.1646 136.914 77.0117 137.311C77.5586 137.35 78.0664 137.389 78.6133 137.389C82.7573 137.389 86.7316 135.743 89.6618 132.812C92.5921 129.882 94.2383 125.908 94.2383 121.764Z"
        fill="#472423"
    />
    <path d="M105.957 94.4199L116.387 104.85C117.236 101.438 117.668 97.9358 117.676 94.4199V74.8887L105.957 63.1699V94.4199Z" fill="#BEC3D2" />
    <path d="M51.2701 100.28V82.7014L43.4576 90.5139V110.045C43.4486 111.262 43.54 112.477 43.7311 113.678L51.8678 105.541C51.4724 103.815 51.2719 102.05 51.2701 100.28Z" fill="#BEC3D2" />
    <path d="M105.957 33.5176V63.1699L117.676 74.8887V31.9199C113.504 32.4355 109.633 32.959 105.957 33.5176Z" fill="#542B29" />
    <path
        d="M105.957 100.279C105.907 104.454 104.808 108.549 102.76 112.188C100.712 115.826 97.7815 118.891 94.2383 121.1V121.764C94.2383 125.908 92.5921 129.882 89.6618 132.812C86.7316 135.742 82.7573 137.389 78.6133 137.389C95.0977 137.389 111.738 123.561 116.387 104.85L105.957 94.4199V100.279Z"
        fill="#542B29"
    />
    <path
        d="M62.9883 121.764V121.1C57.3931 117.563 53.402 111.98 51.8672 105.541L43.7305 113.678C45.6445 126.686 58.0664 136.842 77.0117 137.311C73.1646 136.914 69.6013 135.105 67.0109 132.233C64.4205 129.362 62.9872 125.631 62.9883 121.764Z"
        fill="#542B29"
    />
    <path d="M51.2695 53.9277C48.75 55.5722 46.1914 57.3144 43.457 59.2636V90.5136L51.2695 82.7011V53.9277Z" fill="#542B29" />
    <path
        d="M47.2266 198.791C28.1163 180.422 16.9733 155.29 16.1914 128.795C14.0649 126.807 11.2668 125.694 8.35591 125.679C5.44499 125.664 2.63545 126.747 0.488281 128.713V137.389C0.488281 166.268 15.8438 192.412 38.457 211.451C41.223 210.794 43.6485 209.138 45.2673 206.801C46.8861 204.464 47.5839 201.611 47.2266 198.791Z"
        fill="#61312F"
    />
    <path
        d="M167.97 225.768C167.446 224.378 166.536 223.166 165.347 222.275C164.158 221.384 162.74 220.85 161.259 220.737C149.825 225.04 137.707 227.241 125.49 227.233H117.677C106.569 227.236 95.5365 225.412 85.0208 221.834C83.4614 222.106 82.0223 222.848 80.8965 223.961C79.7706 225.074 79.0117 226.504 78.7215 228.06C78.4313 229.617 78.6235 231.224 79.2725 232.668C79.9216 234.112 80.9963 235.323 82.3528 236.139C84.5482 236.881 86.7552 237.576 88.9935 238.205C100.382 241.129 112.08 242.672 123.837 242.799C138.412 242.459 152.798 239.433 166.275 233.873C167.288 232.817 167.985 231.497 168.285 230.064C168.584 228.63 168.475 227.142 167.97 225.768Z"
        fill="#61312F"
    />
    <path
        d="M234.863 125.67C231.934 125.682 229.116 126.798 226.973 128.795C226.267 153.165 216.784 176.461 200.27 194.396C200.73 196.837 201.969 199.062 203.799 200.74C205.63 202.418 207.955 203.458 210.426 203.705C230.069 183.535 241.532 156.796 242.598 128.662C240.475 126.748 237.722 125.683 234.863 125.67Z"
        fill="#61312F"
    />
    <path
        d="M78.9023 227.287C79.3145 225.898 80.1049 224.651 81.1852 223.685C82.2655 222.719 83.593 222.073 85.0195 221.818C70.8793 217.011 57.9746 209.142 47.2266 198.771C47.5891 201.595 46.8937 204.453 45.2745 206.794C43.6552 209.135 41.2268 210.794 38.457 211.451C51.4364 222.323 66.3196 230.694 82.3516 236.139C80.8838 235.247 79.7505 233.897 79.127 232.297C78.5035 230.697 78.4246 228.936 78.9023 227.287Z"
        fill="#783D3A"
    />
    <path
        d="M200.27 194.377C189.505 206.092 176.144 215.121 161.258 220.736C162.728 220.847 164.137 221.373 165.319 222.254C166.502 223.136 167.409 224.335 167.935 225.713C168.461 227.09 168.584 228.589 168.29 230.034C167.996 231.479 167.296 232.811 166.273 233.873C182.949 227.027 197.991 216.736 210.414 203.674C207.943 203.427 205.618 202.387 203.788 200.709C201.957 199.031 200.719 196.805 200.258 194.365L200.27 194.377Z"
        fill="#783D3A"
    />
    <path
        d="M121.582 188.17C106.016 188.609 90.7174 184.062 77.918 175.193C76.9244 174.467 76.116 173.516 75.5582 172.419C75.0004 171.321 74.7088 170.108 74.707 168.877C74.707 167.778 74.2704 166.724 73.4931 165.946C72.7159 165.169 71.6617 164.732 70.5625 164.732H59.082V168.639C59.082 185.475 86.4258 203.795 120.098 203.795H123.066C156.738 203.795 184.082 185.475 184.082 168.639V164.732H172.602C171.502 164.732 170.448 165.169 169.671 165.946C168.894 166.724 168.457 167.778 168.457 168.877C168.455 170.108 168.164 171.321 167.606 172.419C167.048 173.516 166.24 174.467 165.246 175.193C152.447 184.062 137.148 188.609 121.582 188.17Z"
        fill="#783D3A"
    />
    <path
        d="M216.95 39.7325L222.001 34.6817C222.713 33.945 223.106 32.9583 223.098 31.934C223.089 30.9098 222.678 29.9301 221.954 29.2059C221.229 28.4816 220.25 28.0708 219.225 28.0619C218.201 28.053 217.214 28.4467 216.478 29.1583L211.427 34.209L206.376 29.1583C205.639 28.4467 204.653 28.053 203.628 28.0619C202.604 28.0708 201.625 28.4816 200.9 29.2059C200.176 29.9301 199.765 30.9098 199.756 31.934C199.747 32.9583 200.141 33.945 200.853 34.6817L205.903 39.7325L200.853 44.7833C200.48 45.1436 200.182 45.5746 199.977 46.0512C199.773 46.5278 199.665 47.0404 199.66 47.559C199.656 48.0777 199.755 48.5921 199.951 49.0721C200.147 49.5522 200.437 49.9884 200.804 50.3551C201.171 50.7219 201.607 51.0119 202.087 51.2083C202.567 51.4048 203.082 51.5036 203.6 51.4991C204.119 51.4946 204.632 51.3868 205.108 51.1821C205.585 50.9774 206.016 50.6798 206.376 50.3067L211.427 45.2559L216.478 50.3067C217.214 51.0183 218.201 51.412 219.225 51.4031C220.25 51.3942 221.229 50.9834 221.954 50.2591C222.678 49.5349 223.089 48.5551 223.098 47.5309C223.106 46.5067 222.713 45.52 222.001 44.7833L216.95 39.7325Z"
        fill="#CDD2E1"
    />
    <path
        d="M185.7 39.7325L190.751 34.6817C191.463 33.945 191.856 32.9583 191.848 31.934C191.839 30.9098 191.428 29.9301 190.704 29.2059C189.979 28.4816 189 28.0708 187.975 28.0619C186.951 28.053 185.964 28.4467 185.228 29.1583L180.177 34.209L175.126 29.1583C174.389 28.4467 173.403 28.053 172.378 28.0619C171.354 28.0708 170.375 28.4816 169.65 29.2059C168.926 29.9301 168.515 30.9098 168.506 31.934C168.497 32.9583 168.891 33.945 169.603 34.6817L174.653 39.7325L169.603 44.7833C169.23 45.1436 168.932 45.5746 168.727 46.0512C168.523 46.5278 168.415 47.0404 168.41 47.559C168.406 48.0777 168.505 48.5921 168.701 49.0721C168.897 49.5522 169.187 49.9884 169.554 50.3551C169.921 50.7219 170.357 51.0119 170.837 51.2083C171.317 51.4048 171.832 51.5036 172.35 51.4991C172.869 51.4946 173.382 51.3868 173.858 51.1821C174.335 50.9774 174.766 50.6798 175.126 50.3067L180.177 45.2559L185.228 50.3067C185.964 51.0183 186.951 51.412 187.975 51.4031C189 51.3942 189.979 50.9834 190.704 50.2591C191.428 49.5349 191.839 48.5551 191.848 47.5309C191.856 46.5067 191.463 45.52 190.751 44.7833L185.7 39.7325Z"
        fill="#CDD2E1"
    />
    <path
        d="M154.45 39.7325L159.501 34.6817C160.213 33.945 160.606 32.9583 160.598 31.934C160.589 30.9098 160.178 29.9301 159.454 29.2059C158.729 28.4816 157.75 28.0708 156.725 28.0619C155.701 28.053 154.714 28.4467 153.978 29.1583L148.927 34.209L143.876 29.1583C143.139 28.4467 142.153 28.053 141.128 28.0619C140.104 28.0708 139.125 28.4816 138.4 29.2059C137.676 29.9301 137.265 30.9098 137.256 31.934C137.247 32.9583 137.641 33.945 138.353 34.6817L143.403 39.7325L138.353 44.7833C137.98 45.1436 137.682 45.5746 137.477 46.0512C137.273 46.5278 137.165 47.0404 137.16 47.559C137.156 48.0777 137.255 48.5921 137.451 49.0721C137.647 49.5522 137.937 49.9884 138.304 50.3551C138.671 50.7219 139.107 51.0119 139.587 51.2083C140.067 51.4048 140.582 51.5036 141.1 51.4991C141.619 51.4946 142.132 51.3868 142.608 51.1821C143.085 50.9774 143.516 50.6798 143.876 50.3067L148.927 45.2559L153.978 50.3067C154.714 51.0183 155.701 51.412 156.725 51.4031C157.75 51.3942 158.729 50.9834 159.454 50.2591C160.178 49.5349 160.589 48.5551 160.598 47.5309C160.606 46.5067 160.213 45.52 159.501 44.7833L154.45 39.7325Z"
        fill="#CDD2E1"
    />
    <path
        d="M216.95 70.9825L222.001 65.9317C222.713 65.195 223.106 64.2083 223.098 63.184C223.089 62.1598 222.678 61.1801 221.954 60.4559C221.229 59.7316 220.25 59.3208 219.225 59.3119C218.201 59.303 217.214 59.6967 216.478 60.4083L211.427 65.4591L206.376 60.4083C205.639 59.6967 204.653 59.303 203.628 59.3119C202.604 59.3208 201.625 59.7316 200.9 60.4559C200.176 61.1801 199.765 62.1598 199.756 63.184C199.747 64.2083 200.141 65.195 200.853 65.9317L205.903 70.9825L200.853 76.0333C200.48 76.3936 200.182 76.8246 199.977 77.3012C199.773 77.7778 199.665 78.2904 199.66 78.8091C199.656 79.3277 199.755 79.8421 199.951 80.3222C200.147 80.8022 200.437 81.2384 200.804 81.6051C201.171 81.9719 201.607 82.262 202.087 82.4584C202.567 82.6548 203.082 82.7536 203.6 82.7491C204.119 82.7446 204.632 82.6368 205.108 82.4321C205.585 82.2274 206.016 81.9298 206.376 81.5567L211.427 76.5059L216.478 81.5567C217.214 82.2683 218.201 82.662 219.225 82.6531C220.25 82.6442 221.229 82.2334 221.954 81.5091C222.678 80.7849 223.089 79.8051 223.098 78.7809C223.106 77.7567 222.713 76.77 222.001 76.0333L216.95 70.9825Z"
        fill="#CDD2E1"
    />
    <path
        d="M185.7 70.9825L190.751 65.9317C191.463 65.195 191.856 64.2083 191.848 63.184C191.839 62.1598 191.428 61.1801 190.704 60.4559C189.979 59.7316 189 59.3208 187.975 59.3119C186.951 59.303 185.964 59.6967 185.228 60.4083L180.177 65.4591L175.126 60.4083C174.389 59.6967 173.403 59.303 172.378 59.3119C171.354 59.3208 170.375 59.7316 169.65 60.4559C168.926 61.1801 168.515 62.1598 168.506 63.184C168.497 64.2083 168.891 65.195 169.603 65.9317L174.653 70.9825L169.603 76.0333C169.23 76.3936 168.932 76.8246 168.727 77.3012C168.523 77.7778 168.415 78.2904 168.41 78.8091C168.406 79.3277 168.505 79.8421 168.701 80.3222C168.897 80.8022 169.187 81.2384 169.554 81.6051C169.921 81.9719 170.357 82.262 170.837 82.4584C171.317 82.6548 171.832 82.7536 172.35 82.7491C172.869 82.7446 173.382 82.6368 173.858 82.4321C174.335 82.2274 174.766 81.9298 175.126 81.5567L180.177 76.5059L185.228 81.5567C185.964 82.2683 186.951 82.662 187.975 82.6531C189 82.6442 189.979 82.2334 190.704 81.5091C191.428 80.7849 191.839 79.8051 191.848 78.7809C191.856 77.7567 191.463 76.77 190.751 76.0333L185.7 70.9825Z"
        fill="#CDD2E1"
    />
    <path
        d="M154.45 70.9825L159.501 65.9317C160.213 65.195 160.606 64.2083 160.598 63.184C160.589 62.1598 160.178 61.1801 159.454 60.4559C158.729 59.7316 157.75 59.3208 156.725 59.3119C155.701 59.303 154.714 59.6967 153.978 60.4083L148.927 65.4591L143.876 60.4083C143.139 59.6967 142.153 59.303 141.128 59.3119C140.104 59.3208 139.125 59.7316 138.4 60.4559C137.676 61.1801 137.265 62.1598 137.256 63.184C137.247 64.2083 137.641 65.195 138.353 65.9317L143.403 70.9825L138.353 76.0333C137.98 76.3936 137.682 76.8246 137.477 77.3012C137.273 77.7778 137.165 78.2904 137.16 78.8091C137.156 79.3277 137.255 79.8421 137.451 80.3222C137.647 80.8022 137.937 81.2384 138.304 81.6051C138.671 81.9719 139.107 82.262 139.587 82.4584C140.067 82.6548 140.582 82.7536 141.1 82.7491C141.619 82.7446 142.132 82.6368 142.608 82.4321C143.085 82.2274 143.516 81.9298 143.876 81.5567L148.927 76.5059L153.978 81.5567C154.714 82.2683 155.701 82.662 156.725 82.6531C157.75 82.6442 158.729 82.2334 159.454 81.5091C160.178 80.7849 160.589 79.8051 160.598 78.7809C160.606 77.7567 160.213 76.77 159.501 76.0333L154.45 70.9825Z"
        fill="#CDD2E1"
    />
    <path d="M216.51 115.163C219.014 112.658 218.216 107.8 214.728 104.314C211.239 100.828 206.382 100.034 203.878 102.539C201.374 105.045 202.172 109.902 205.66 113.388C209.149 116.874 214.007 117.669 216.51 115.163Z" fill="#F6FAFD" />
    <path d="M178.196 123.792C179.454 122.533 179.054 120.093 177.302 118.342C175.55 116.592 173.11 116.193 171.852 117.452C170.594 118.711 170.994 121.151 172.746 122.901C174.498 124.652 176.938 125.051 178.196 123.792Z" fill="#F6FAFD" />
    <path d="M167.805 112.441C168.434 111.811 168.235 110.59 167.359 109.715C166.483 108.84 165.262 108.641 164.633 109.271C164.003 109.901 164.202 111.122 165.078 111.997C165.954 112.873 167.175 113.071 167.805 112.441Z" fill="#F6FAFD" />
    <path
        d="M125.488 203.795C66.8945 203.795 16.1133 156.623 16.1133 98.3261V125.67C16.1133 152.606 26.8136 178.439 45.8603 197.485C64.9069 216.532 90.7397 227.232 117.676 227.232H125.488C152.424 227.232 178.257 216.532 197.304 197.485C216.35 178.439 227.051 152.606 227.051 125.67V98.3261C227.051 156.623 172.363 203.795 125.488 203.795Z"
        fill="#80413E"
    />
</svg>

