<svg viewBox="0 0 17 24" fill="none" xmlns="http://www.w3.org/2000/svg">
    <path
        d="M5 17.942C5.68695 18.8042 6.31217 19.7124 6.87112 20.6601C7.34837 21.5514 7.54732 22.1557 7.89609 23.2296C8.10999 23.8229 8.30331 24 8.71894 24C9.17185 24 9.37734 23.6987 9.5361 23.2328C9.86578 22.2187 10.1245 21.4447 10.5326 20.7134C11.3334 19.3015 12.3286 18.0468 13.3064 16.841C13.5711 16.4997 15.2825 14.5115 16.053 12.9427C16.053 12.9427 17 11.2194 17 8.81267C17 6.56139 16.0661 5 16.0661 5L13.3773 5.70921L11.7444 9.94501L11.3404 10.5291L11.2597 10.6349L11.1522 10.7674L10.9636 10.9789L10.6941 11.2443L9.24007 12.411L5.60474 14.4784L5 17.942Z"
        fill="#34A853"
    />
    <path
        d="M1 11.7938C1.89583 13.758 3.62331 15.4847 4.79208 17L11 9.94079C11 9.94079 10.1254 11.0388 8.53895 11.0388C6.7718 11.0388 5.34419 9.68417 5.34419 7.97604C5.34419 6.80469 6.07828 6 6.07828 6L1.8642 7.08397L1 11.7937V11.7938Z"
        fill="#FBBC04"
    />
    <path
        d="M11.0479 6.51721e-05C13.1342 0.662793 14.9199 2.05411 16 4.10574L10.9797 10C10.9797 10 11.7225 9.1492 11.7225 7.94029C11.7225 6.12507 10.1711 4.76899 8.49511 4.76899C6.91023 4.76899 6 5.90741 6 5.90741V2.19411L11.0479 0V6.51721e-05Z"
        fill="#4285F4"
    />
    <path d="M2 2.84502C3.24152 1.44337 5.42612 0 8.43791 0C9.89914 0 11 0.361992 11 0.361992L5.97095 6H2.4078L2 2.84508V2.84502Z" fill="#1A73E8" />
    <path d="M0.837701 12C0.837701 12 0 10.447 0 8.19707C0 6.07062 0.873169 4.21185 1.99362 3L6 6.19179L0.837701 12Z" fill="#EA4335" />
</svg>






