<svg id="casino" width="32" height="32" viewBox="0 0 32 32" fill="none" xmlns="http://www.w3.org/2000/svg">
    <path d="M7 20L8.4201 18.5917L9.84019 20L8.4201 21.4083L7 20Z" fill="#192A32" />
    <path d="M22 20L23.4201 18.5917L24.8402 20L23.4201 21.4083L22 20Z" fill="#192A32" />
    <path
        d="M32 8.59325V2H0V8.59325H3.76562V15.1937L2.10713 16.1336H2.10719C0.807438 16.87 0 18.2498 0 19.7344C0 21.2189 0.807438 22.5987 2.10713 23.3352L12.0173 28.9511C13.2281 29.6373 14.6053 30 16 30C17.3947 30 18.7719 29.6373 19.9827 28.9511L29.8929 23.3352C31.1926 22.5987 32 21.2189 32 19.7344C32 18.2498 31.1926 16.87 29.8929 16.1336L28.2344 15.1937V8.59325H32ZM1.875 3.85944H30.125V6.73381H1.875V3.85944ZM19.9827 10.5176C18.7719 9.83145 17.3947 9.46873 16 9.46873C14.6053 9.46873 13.2281 9.83145 12.0173 10.5176L9.40625 11.9973V8.59325H22.5938V11.9973L19.9827 10.5176ZM5.64062 8.59325H7.53125V13.0598L5.64062 14.1312V8.59325ZM30.125 19.7344C30.125 20.5533 29.6796 21.3144 28.9626 21.7207L19.0524 27.3367C18.1244 27.8625 17.0689 28.1406 16 28.1406C14.9311 28.1406 13.8756 27.8626 12.9476 27.3367L3.03737 21.7207C2.32037 21.3144 1.875 20.5533 1.875 19.7344C1.875 18.9154 2.32037 18.1543 3.03737 17.748L12.9476 12.1321C13.8756 11.6062 14.9311 11.3282 16 11.3282C17.0689 11.3282 18.1244 11.6062 19.0524 12.1321L28.9626 17.748C29.6796 18.1543 30.125 18.9154 30.125 19.7344ZM26.3594 14.1312L24.4688 13.0598V8.59325H26.3594V14.1312Z"
        fill="#192A32"
    />
    <path
        d="M15.4998 15C12.5674 16.8616 10.987 18.6471 11.0001 20.4905C11.0001 22.2225 12.3287 23.6317 13.9619 23.6317C14.1721 23.6317 14.3799 23.6076 14.5821 23.5616V25H16.4175V23.5617C16.6197 23.6077 16.8274 23.6317 17.0377 23.6317C18.6709 23.6317 19.9995 22.2226 19.9995 20.4905C20.0346 18.5108 18.138 16.6818 15.4998 15ZM17.0377 21.685C16.4343 21.7591 15.8472 20.8449 15.4997 20.4402C15.1001 20.8836 14.658 21.6999 13.9618 21.685C13.3407 21.685 12.8354 21.1491 12.8354 20.4905C12.8354 19.4441 14.1893 18.2334 15.4997 17.3068C16.8102 18.2334 18.1641 19.4441 18.1641 20.4905C18.1641 21.1491 17.6588 21.685 17.0377 21.685Z"
        fill="#192A32"
    />
</svg>
<svg id="trophy" width="32" height="32" viewBox="0 0 32 32" fill="none" xmlns="http://www.w3.org/2000/svg">
    <path d="M13 26H19V28H13V26Z" fill="#192A32" />
    <path
        d="M19.4949 6.42733L17.2994 6.09189L16.3174 4H14.6826L13.7007 6.09189L11.5051 6.42733L11 8.06215L12.5887 9.69039L12.2136 11.9896L13.5362 12.9999L15.5 11.9145L17.4637 13L18.7864 11.9897L18.4113 9.69046L20 8.06221L19.4949 6.42733ZM16.6793 10.4024L15.5 9.75054L14.3207 10.4024L14.5459 9.02174L13.5919 8.04395L14.9104 7.84252L15.5 6.5863L16.0897 7.84246L17.4081 8.04389L16.4541 9.02168L16.6793 10.4024Z"
        fill="#192A32"
    />
    <path
        d="M24.3065 1.88281V0H7.69349V1.88281H4V7.46756C4 10.416 6.20549 12.8491 9.02271 13.1423C9.63929 14.1131 10.4452 14.9476 11.387 15.5911C11.2928 17.1711 11.9278 18.7636 13.2104 19.7453C13.1056 20.7944 12.6464 21.8154 11.9279 22.5938H9.54023V32H22.4598V22.5938H20.0721C19.353 21.8147 18.8937 20.7926 18.7895 19.7426C19.9981 18.8391 20.7144 17.2185 20.613 15.5911C21.5548 14.9476 22.3607 14.113 22.9773 13.1423C25.7946 12.8491 28 10.416 28 7.46756V1.88281H24.3065ZM5.83908 7.46756V3.75781H7.69349V8.55188C7.69349 9.384 7.81235 10.1883 8.0328 10.9486C6.73968 10.3429 5.83908 9.01088 5.83908 7.46756ZM20.6207 30.125H11.3793V24.4688H20.6207V30.125ZM17.8031 22.5938H14.1969C14.5477 21.9656 14.801 21.2821 14.9424 20.5784C15.2852 20.66 15.6393 20.7031 16.0001 20.7031C16.3639 20.7031 16.7175 20.6586 17.0573 20.5769C17.1987 21.2812 17.4521 21.9652 17.8031 22.5938ZM16.0001 18.8281C14.7602 18.8501 13.5144 17.8713 13.2789 16.5534C14.1319 16.8558 15.0474 17.0206 16 17.0206C16.9523 17.0206 17.8675 16.8559 18.7202 16.5537C18.4669 17.8489 17.3437 18.8281 16.0001 18.8281ZM16 15.1456C12.4338 15.1456 9.53257 12.1877 9.53257 8.55188V1.875H22.4674V8.55188C22.4674 12.1877 19.5662 15.1456 16 15.1456ZM26.1609 7.46756C26.1609 9.01088 25.2603 10.3429 23.9672 10.9486C24.1876 10.1883 24.3065 9.38406 24.3065 8.55188V3.75781H26.1609V7.46756Z"
        fill="#192A32"
    />
</svg>
<svg id="poker-table" width="32" height="32" viewBox="0 0 32 32" fill="none" xmlns="http://www.w3.org/2000/svg">
    <path d="M17 16H19V18H17V16Z" fill="#192A32" />
    <path d="M21 16H23V18H21V16Z" fill="#192A32" />
    <path d="M13 16H15V18H13V16Z" fill="#192A32" />
    <path d="M9 16H11V18H9V16Z" fill="#192A32" />
    <path
        d="M21.6484 6H10.3516C4.64369 6 0 10.7103 0 16.5C0 22.2897 4.64369 27 10.3516 27H21.6484C27.3563 27 32 22.2897 32 16.5C32 10.7103 27.3563 6 21.6484 6ZM11.2891 23.1804H15.0625V25.0981H11.2891V23.1804ZM16.9375 23.1804H20.7109V25.0981H16.9375V23.1804ZM21.6484 21.2785H10.3516C7.75394 21.2785 5.64062 19.1349 5.64062 16.5C5.64062 13.8651 7.75394 11.7215 10.3516 11.7215H21.6484C24.2461 11.7215 26.3594 13.8651 26.3594 16.5C26.3594 19.1349 24.2461 21.2785 21.6484 21.2785ZM16.9375 9.81962V7.90189H20.7109V9.81962H16.9375ZM15.0625 9.81962H11.2891V7.90189H15.0625V9.81962ZM1.875 16.5C1.875 12.0804 5.17963 8.42953 9.41406 7.95476V9.88765C6.22506 10.3506 3.76562 13.1393 3.76562 16.5C3.76562 19.8607 6.22506 22.6494 9.41406 23.1124V25.0453C5.17963 24.5705 1.875 20.9196 1.875 16.5ZM22.5859 25.0452V23.1124C25.7749 22.6493 28.2344 19.8606 28.2344 16.4999C28.2344 13.1392 25.7749 10.3506 22.5859 9.88752V7.95463C26.8204 8.42953 30.125 12.0804 30.125 16.5C30.125 20.9196 26.8204 24.5705 22.5859 25.0452Z"
        fill="#192A32"
    />
</svg>
<svg id="online-casino" width="32" height="32" viewBox="0 0 32 32" fill="none" xmlns="http://www.w3.org/2000/svg">
    <path
        d="M32 24.3984V2H0V24.3984H11.2969V27.2031C11.2969 27.72 10.8728 28.1406 10.3516 28.1406H8.46875V30H23.5312V28.1406H21.6484C21.1272 28.1406 20.7031 27.72 20.7031 27.2031V24.3984H32ZM1.875 3.85944H30.125V18.8046H1.875V3.85944ZM13.0084 28.1406C13.1139 27.8473 13.1719 27.5318 13.1719 27.2031V24.3984H18.8281V27.2031C18.8281 27.5318 18.8861 27.8473 18.9916 28.1406H13.0084ZM1.875 22.539V20.6641H30.125V22.539H1.875Z"
        fill="#192A32"
    />
    <path d="M7 11L8.4201 9.59169L9.84019 11L8.4201 12.4083L7 11Z" fill="#192A32" />
    <path d="M22 11L23.4201 9.59169L24.8402 11L23.4201 12.4083L22 11Z" fill="#192A32" />
    <path
        d="M15.4998 6C12.5674 7.86161 10.987 9.64711 11.0001 11.4904C11.0001 13.2224 12.3287 14.6316 13.9619 14.6316C14.1721 14.6316 14.3799 14.6076 14.5821 14.5616V16H16.4175V14.5616C16.6197 14.6077 16.8274 14.6317 17.0377 14.6317C18.6709 14.6317 19.9995 13.2225 19.9995 11.4905C20.0346 9.51078 18.138 7.68181 15.4998 6ZM17.0377 12.685C16.4343 12.759 15.8473 11.8449 15.4998 11.4402C15.1001 11.8836 14.658 12.6998 13.9619 12.685C13.3408 12.685 12.8355 12.1491 12.8355 11.4904C12.8355 10.444 14.1893 9.23339 15.4998 8.3068C16.8103 9.23339 18.1641 10.444 18.1641 11.4904C18.1641 12.1491 17.6588 12.685 17.0377 12.685Z"
        fill="#192A32"
    />
</svg>
<svg id="money" width="32" height="32" viewBox="0 0 32 32" fill="none" xmlns="http://www.w3.org/2000/svg">
    <g clip-path="url(#clip0_2_637)">
        <path
            d="M26 7C27.6542 7 29 5.72918 29 4.16714C29 1.8453 26 0 26 0C26 0 23 1.8453 23 4.16714C23 5.72918 24.3458 7 26 7ZM25.9995 2.57628C26.5223 3.12842 27.0055 3.78696 27.0055 4.16714C27.0055 4.69071 26.5545 5.11666 26 5.11666C25.4455 5.11666 24.9945 4.69071 24.9945 4.16714C24.9945 3.78338 25.4733 3.12999 25.9995 2.57628Z"
            fill="#192A32"
        />
        <path
            d="M15.9579 22.4087H17.0421C17.5879 22.4087 18.0318 22.8187 18.0318 23.3227C18.0318 23.8266 17.5878 24.2366 17.0421 24.2366H15.9386C15.4121 24.2366 14.9838 23.8411 14.9838 23.3549H13.0157C13.0157 24.7106 14.1039 25.8356 15.5159 26.0253V27H17.4841V26.0233C18.9062 25.8257 20 24.69 20 23.3227C20 21.8166 18.6731 20.5913 17.0422 20.5913H15.958C15.4122 20.5913 14.9683 20.1813 14.9683 19.6774C14.9683 19.1735 15.4123 18.7635 15.958 18.7635H17.0173C17.5637 18.7635 18.0082 19.1739 18.0082 19.6785H19.9764C19.9764 18.3185 18.8947 17.1878 17.4841 16.9804V16H15.5159V16.9767C14.0938 17.1743 13 18.31 13 19.6773C13 21.1834 14.3269 22.4087 15.9579 22.4087Z"
            fill="#192A32"
        />
        <path
            d="M24.6338 11.2968C24.5833 8.34487 22.8666 6.48356 20.4378 5.40631C20.2008 5.80781 20.052 6.29181 19.6206 6.63781C19.3726 6.82275 19.2038 6.80469 19.0117 6.71569C18.7076 6.57469 18.552 6.42869 18.8926 5.06969C19.4684 1.93912 17.0369 0.78975 15.2209 0C15.0501 1.31737 15.2148 2.51144 13.7601 3.49187C11.9694 4.44744 12.178 5.80375 12.3026 6.61413C12.4087 7.30388 12.4189 7.51806 11.9617 7.86181C11.8628 7.93606 11.6314 8.11006 11.0996 7.86281C10.4064 7.50588 10.2273 7.16838 9.77769 6.74594C8.30381 7.92912 7.42738 9.45969 7.37025 11.2968H0V31.9999H32V11.2968H24.6338ZM9.87644 9.33C10.7439 9.85706 11.9781 10.1955 13.0886 9.36044C14.4633 8.327 14.2709 7.07631 14.1559 6.32912C14.0726 5.76525 13.9822 5.4885 14.6429 5.146C15.6677 4.59919 16.2445 3.70625 16.5661 2.93963C16.5704 2.94412 16.5748 2.94875 16.5791 2.95331C17.0636 3.46613 17.2255 4.00931 17.074 4.61381C16.9173 5.23887 16.7815 5.85125 16.8398 6.46994C16.9241 7.36306 17.4024 8.03631 18.2233 8.41675C19.1576 8.8585 20.2514 8.66281 21.0415 7.88588C22.1191 8.67806 22.7499 9.94275 22.7586 11.2967H9.2445C9.27819 10.5835 9.49775 9.89519 9.87644 9.33ZM23.5312 20.3084L22.5859 21.2537V16.9372H24.6414C24.9248 17.7381 25.5607 18.3741 26.3617 18.6575V24.6384C25.5607 24.9218 24.9248 25.5578 24.6414 26.3587H22.5859V22.0147L23.5312 22.96L24.8571 21.6342L23.5312 20.3084ZM9.4165 21.2561L8.46875 20.3084L7.14294 21.6342L8.46875 22.9601L9.4165 22.0123V26.3587H7.36094C7.07756 25.5578 6.44163 24.9218 5.64062 24.6384V18.6575C6.44163 18.3741 7.07756 17.7381 7.36094 16.9372H9.4165V21.2561ZM9.4165 15.0621H5.64625V15.9996C5.64625 16.5196 5.22319 16.9427 4.70312 16.9427H3.76562V26.3531H4.70312C5.22319 26.3531 5.64625 26.7762 5.64625 27.2962V28.2337H9.4165V30.1249H1.875V13.1718H9.4165V15.0621ZM20.7109 30.1249H11.2915V13.1718H20.7109V30.1249ZM30.125 30.1249H22.5859V28.2337H26.3561V27.2962C26.3561 26.7762 26.7792 26.3531 27.2992 26.3531H28.2367V16.9427H27.2992C26.7792 16.9427 26.3561 16.5196 26.3561 15.9996V15.0621H22.5859V13.1718H30.125V30.1249Z"
            fill="#192A32"
        />
    </g>
    <defs>
        <clipPath id="clip0_2_637">
            <rect width="32" height="32" fill="white" />
        </clipPath>
    </defs>
</svg>
<svg id="mobile" width="32" height="32" viewBox="0 0 32 32" fill="none" xmlns="http://www.w3.org/2000/svg">
    <path
        d="M22.5 2H10.5C9.83797 2.00353 9.20399 2.28756 8.73586 2.79037C8.26773 3.29318 8.00329 3.97412 8 4.68518V28.3148C8.00329 29.0259 8.26773 29.7068 8.73586 30.2096C9.20399 30.7124 9.83797 30.9965 10.5 31H22.5C23.162 30.9965 23.796 30.7124 24.2641 30.2096C24.7323 29.7068 24.9967 29.0259 25 28.3148V4.68518C24.9967 3.97412 24.7323 3.29318 24.2641 2.79037C23.796 2.28756 23.162 2.00353 22.5 2ZM9 7.37037H24V25.6296H9V7.37037ZM10.5 3.07407H22.5C22.8978 3.07407 23.2794 3.24382 23.5607 3.54596C23.842 3.8481 24 4.25789 24 4.68518V6.2963H9V4.68518C9 4.25789 9.15804 3.8481 9.43934 3.54596C9.72064 3.24382 10.1022 3.07407 10.5 3.07407ZM22.5 29.9259H10.5C10.1022 29.9259 9.72064 29.7562 9.43934 29.454C9.15804 29.1519 9 28.7421 9 28.3148V26.7037H24V28.3148C24 28.7421 23.842 29.1519 23.5607 29.454C23.2794 29.7562 22.8978 29.9259 22.5 29.9259Z"
        fill="#192A32"
        stroke="#192A32"
    />
</svg>
<svg id="croupier" width="32" height="32" viewBox="0 0 32 32" fill="none" xmlns="http://www.w3.org/2000/svg">
    <path d="M11 27H13V29H11V27Z" fill="#192A32" />
    <path
        d="M29.2958 24.2079C28.9108 22.4475 27.5793 21.047 25.821 20.5529L20.7202 19.1194L20.2923 16.9906C21.6734 15.8365 22.5588 14.0679 22.5588 12.0881V8.48725C23.1865 8.06121 24.012 7.15999 24.012 5.36349C24.083 2.60016 21.5657 -0.0646158 18.6931 0.00119422C17.7952 0.00119422 16.7968 0.196124 15.7397 0.402429C13.4733 0.908535 11.2416 1.15321 9.36264 0.0438176C8.17764 3.03521 8.52553 5.84504 10.4411 8.26982V12.0881C10.4411 14.0678 11.3266 15.8365 12.7077 16.9906L12.2797 19.1195L7.17883 20.5529C5.42053 21.0471 4.08906 22.4476 3.70411 24.208L2 32H31L29.2958 24.2079ZM16.5 27.0887C16.2542 26.6011 15.9631 26.1353 15.6294 25.6992L15.0127 24.8935L16.5 23.0012L17.9873 24.8935L17.3706 25.6992C17.0368 26.1353 16.7458 26.6011 16.5 27.0887ZM14.1091 26.8278C14.8451 27.7895 15.3176 28.9349 15.4821 30.1251H9.6095V21.8196L10.1583 21.6654L14.1091 26.8278ZM18.8909 26.8278L22.8417 21.6654L23.3905 21.8196V30.1251H17.5179C17.6823 28.9349 18.1549 27.7895 18.8909 26.8278ZM20.8796 21.1141L19.1749 23.3415L17.9737 21.8131L19.9854 20.8628L20.8796 21.1141ZM11.8432 6.99318C10.8399 5.70398 10.4051 4.08804 10.6284 2.54435C12.4303 2.95977 14.3668 2.58191 16.11 2.24161C17.0727 2.05368 17.9821 1.87612 18.6932 1.87612C20.5443 1.87612 22.1082 3.47313 22.1082 5.36349C22.1082 5.65023 22.0762 5.88879 22.0253 6.08772C21.3585 4.97182 19.9568 4.31685 18.5693 4.42603C17.3025 6.00522 15.3123 7.00393 13.2429 6.99312H11.8432V6.99318ZM12.3449 8.86811H13.2428C15.5537 8.86811 17.761 7.95352 19.3744 6.34302C20.1072 6.51045 20.655 7.15874 20.655 7.93065V12.0882C20.655 14.5233 18.791 16.5043 16.4999 16.5043C14.2088 16.5043 12.3448 14.5233 12.3448 12.0882V8.86811H12.3449ZM16.5 18.3793C17.2214 18.3793 17.9135 18.2474 18.5557 18.0062L18.8223 19.3328L16.5 20.4299L14.1777 19.3328L14.4444 18.0062C15.0865 18.2474 15.7786 18.3793 16.5 18.3793ZM13.0146 20.8628L15.0263 21.8131L13.825 23.3415L12.1203 21.1141L13.0146 20.8628ZM5.56528 24.6027C5.80193 23.5206 6.62044 22.6597 7.70131 22.3559L7.70568 22.3546V30.1251H4.3575L5.56528 24.6027ZM25.2943 30.1251V22.3546L25.2986 22.3559C26.3795 22.6596 27.198 23.5206 27.4347 24.6027L28.6424 30.1251H25.2943Z"
        fill="#192A32"
    />
</svg>
<svg id="credit-card" width="32" height="32" viewBox="0 0 32 32" fill="none" xmlns="http://www.w3.org/2000/svg">
    <path d="M4 22H10V24H4V22Z" fill="#192A32" />
    <path d="M11 22H13V24H11V22Z" fill="#192A32" />
    <path d="M15 22H21V24H15V22Z" fill="#192A32" />
    <path d="M23 22H25V24H23V22Z" fill="#192A32" />
    <path
        d="M32 5H3.76562V8.81939H0V28H28.2344V24.1806H32V5ZM5.64062 6.90177H30.125V14.6401H28.2344V8.81939H5.64062V6.90177ZM28.2344 16.5418H30.125V18.4595H28.2344V16.5418ZM26.3594 26.0982H1.875V10.7212H26.3594V26.0982ZM28.2344 22.2788V20.3612H30.125V22.2788H28.2344Z"
        fill="#192A32"
    />
    <path d="M12 13H4V19H12V13ZM10.0062 17.0055H5.99377V14.9945H10.0062V17.0055Z" fill="#192A32" />
</svg>
<svg id="crown" width="32" height="28" viewBox="0 0 32 28" fill="none" xmlns="http://www.w3.org/2000/svg">
    <path d="M8 22H25V24H8V22Z" fill="#192A32" />
    <path d="M9 16L10.4201 14.5917L11.8402 16L10.4201 17.4083L9 16Z" fill="#192A32" />
    <path d="M20 16L21.4201 14.5917L22.8402 16L21.4201 17.4083L20 16Z" fill="#192A32" />
    <path d="M12 14.5L15.5 19L19 14.5L15.5 10L12 14.5ZM15.5 15.9918L14.3397 14.5L15.5 13.0082L16.6603 14.5L15.5 15.9918Z" fill="#192A32" />
    <path
        d="M32 10.2657C32 8.72346 30.7348 7.46878 29.1797 7.46878C27.6411 7.46878 26.3872 8.69706 26.3606 10.2166L24.5181 10.8251C23.1089 11.2905 21.5576 10.6965 20.8293 9.41288L18.1203 4.6381C18.5556 4.14573 18.8203 3.50162 18.8203 2.79689C18.8203 1.25468 17.5551 0 16 0C14.4449 0 13.1797 1.25468 13.1797 2.79689C13.1797 3.50156 13.4444 4.14573 13.8797 4.6381L11.1707 9.41288C10.4424 10.6965 8.89087 11.2903 7.482 10.8251L5.63938 10.2166C5.61281 8.69699 4.35888 7.46872 2.82031 7.46872C1.26519 7.46878 0 8.72346 0 10.2657C0 11.6739 1.05519 12.8419 2.42256 13.0342L3.55956 18.6719H2.45019V20.5313H3.76562V26.1406H2.45019V28H29.5498V26.1406H28.2344V20.5313H29.5498V18.6719H28.4404L29.5774 13.0342C30.9448 12.8419 32 11.6739 32 10.2657ZM29.1797 9.32821C29.7009 9.32821 30.125 9.74875 30.125 10.2657C30.125 10.7826 29.7009 11.2031 29.1797 11.2031C28.6584 11.2031 28.2344 10.7826 28.2344 10.2657C28.2344 9.74875 28.6584 9.32821 29.1797 9.32821ZM16 1.85949C16.5212 1.85949 16.9453 2.28003 16.9453 2.79696C16.9453 3.31388 16.5212 3.73442 16 3.73442C15.4788 3.73442 15.0547 3.31388 15.0547 2.79696C15.0547 2.28003 15.4788 1.85949 16 1.85949ZM1.875 10.2657C1.875 9.74875 2.29906 9.32821 2.82031 9.32821C3.34156 9.32821 3.76562 9.74875 3.76562 10.2657C3.76562 10.7826 3.34156 11.2031 2.82031 11.2031C2.29906 11.2031 1.875 10.7826 1.875 10.2657ZM26.3594 26.1406H5.64062V20.5313H26.3594V26.1406ZM5.47169 18.6719L4.26106 12.6688C4.564 12.4895 4.83006 12.2554 5.04594 11.9805L6.88963 12.5893C9.039 13.3256 11.659 12.4014 12.8049 10.3247L15.5131 5.55127C15.6714 5.57873 15.8339 5.59385 16.0001 5.59385C16.1662 5.59385 16.3288 5.57873 16.4871 5.55127L19.1953 10.3247C20.3623 12.3926 22.8665 13.322 25.1106 12.5893L26.9543 11.9806C27.1701 12.2555 27.4361 12.4896 27.7391 12.6689L26.5285 18.6719H5.47169V18.6719Z"
        fill="#192A32"
    />
</svg>