<svg width="191" height="58" viewBox="0 0 191 58" fill="none" xmlns="http://www.w3.org/2000/svg">
    <g clip-path="url(#clip0_2_1377)">
        <path
            d="M183.545 0.763672H7.61907C3.73262 0.763672 0.582031 3.95364 0.582031 7.88867V50.6387C0.582031 54.5737 3.73262 57.7637 7.61907 57.7637H183.545C187.431 57.7637 190.582 54.5737 190.582 50.6387V7.88867C190.582 3.95364 187.431 0.763672 183.545 0.763672Z"
            fill="white"
        />
        <path
            d="M183.545 1.90367C185.113 1.90367 186.616 2.53423 187.725 3.65664C188.833 4.77904 189.456 6.30135 189.456 7.88867V50.6387C189.456 52.226 188.833 53.7483 187.725 54.8707C186.616 55.9931 185.113 56.6237 183.545 56.6237H7.61907C6.05134 56.6237 4.54783 55.9931 3.43928 54.8707C2.33073 53.7483 1.70796 52.226 1.70796 50.6387V7.88867C1.70796 6.30135 2.33073 4.77904 3.43928 3.65664C4.54783 2.53423 6.05134 1.90367 7.61907 1.90367H183.545ZM183.545 0.763672H7.61907C5.75273 0.763672 3.96283 1.51434 2.64313 2.85054C1.32343 4.18673 0.582031 5.999 0.582031 7.88867V50.6387C0.582031 52.5283 1.32343 54.3406 2.64313 55.6768C3.96283 57.013 5.75273 57.7637 7.61907 57.7637H183.545C185.411 57.7637 187.201 57.013 188.521 55.6768C189.841 54.3406 190.582 52.5283 190.582 50.6387V7.88867C190.582 5.999 189.841 4.18673 188.521 2.85054C187.201 1.51434 185.411 0.763672 183.545 0.763672Z"
            fill="#192A32"
        />
        <path
            d="M67.3213 15.3554C67.3444 15.8779 67.2628 16.3999 67.0814 16.8897C66.8999 17.3795 66.6225 17.827 66.2657 18.2054C65.8659 18.6233 65.3834 18.9511 64.8498 19.1672C64.3163 19.3832 63.7436 19.4828 63.1694 19.4594C62.5919 19.4724 62.0179 19.3653 61.4829 19.1447C60.9479 18.9241 60.4633 18.5947 60.059 18.1769C59.239 17.3275 58.7798 16.1869 58.7798 14.9991C58.7798 13.8113 59.239 12.6707 60.059 11.8214C60.686 11.201 61.4801 10.7822 62.3415 10.6174C63.2029 10.4526 64.0932 10.5492 64.9005 10.8951C65.408 11.1063 65.8607 11.433 66.2235 11.8499L65.4776 12.6051C65.1981 12.2642 64.8439 11.994 64.4433 11.8159C64.0426 11.6378 63.6064 11.5567 63.1694 11.5791C62.6177 11.583 62.0754 11.7236 61.5898 11.9887C61.1042 12.2538 60.6901 12.6352 60.3837 13.0998C60.0774 13.5643 59.888 14.0977 59.8323 14.6535C59.7765 15.2092 59.8561 15.7703 60.064 16.2877C60.2718 16.8051 60.6017 17.2631 61.0248 17.6216C61.4478 17.9801 61.9512 18.2283 62.4908 18.3444C63.0304 18.4604 63.5899 18.4409 64.1204 18.2875C64.6509 18.1341 65.1362 17.8515 65.5339 17.4644C65.9638 16.9871 66.213 16.3713 66.2376 15.7259H63.1694V14.6999H67.265C67.297 14.917 67.3158 15.1359 67.3213 15.3554Z"
            fill="#192A32"
            stroke="#192A32"
            stroke-width="0.411304"
            stroke-miterlimit="10"
        />
        <path d="M73.7672 11.793H69.9672V14.5005H73.4294V15.5265H69.9672V18.234H73.7672V19.2885H68.8694V10.7385H73.7672V11.793Z" fill="#192A32" stroke="#192A32" stroke-width="0.411304" stroke-miterlimit="10" />
        <path d="M78.3837 19.2885H77.3V11.793H74.9355V10.7385H80.8044V11.793H78.3837V19.2885Z" fill="#192A32" stroke="#192A32" stroke-width="0.411304" stroke-miterlimit="10" />
        <path d="M84.9421 19.2885V10.7385H86.0258V19.2885H84.9421Z" fill="#192A32" stroke="#192A32" stroke-width="0.411304" stroke-miterlimit="10" />
        <path d="M90.8388 19.2885H89.7551V11.793H87.3906V10.7385H93.1891V11.793H90.8388V19.2885Z" fill="#192A32" stroke="#192A32" stroke-width="0.411304" stroke-miterlimit="10" />
        <path
            d="M104.181 18.1774C103.775 18.5893 103.292 18.9161 102.761 19.139C102.229 19.362 101.66 19.4767 101.085 19.4767C100.51 19.4767 99.9404 19.362 99.4091 19.139C98.8778 18.9161 98.3951 18.5893 97.9886 18.1774C97.193 17.3211 96.75 16.1896 96.75 15.0139C96.75 13.8382 97.193 12.7068 97.9886 11.8504C98.3864 11.4269 98.8675 11.0927 99.4008 10.8693C99.9342 10.6459 100.508 10.5384 101.085 10.5537C101.661 10.5444 102.233 10.6547 102.766 10.8778C103.298 11.1008 103.78 11.4318 104.181 11.8504C104.586 12.2672 104.904 12.7619 105.117 13.3052C105.329 13.8486 105.432 14.4296 105.42 15.0139C105.438 15.599 105.338 16.1817 105.125 16.7258C104.912 17.27 104.591 17.7641 104.181 18.1774ZM98.7909 17.4649C99.0907 17.7725 99.4479 18.0168 99.8417 18.1835C100.235 18.3502 100.658 18.4361 101.085 18.4361C101.512 18.4361 101.934 18.3502 102.328 18.1835C102.722 18.0168 103.079 17.7725 103.379 17.4649C103.986 16.7968 104.323 15.9219 104.323 15.0139C104.323 14.1059 103.986 13.2311 103.379 12.5629C103.079 12.2553 102.722 12.011 102.328 11.8443C101.934 11.6776 101.512 11.5918 101.085 11.5918C100.658 11.5918 100.235 11.6776 99.8417 11.8443C99.4479 12.011 99.0907 12.2553 98.7909 12.5629C98.1836 13.2311 97.8465 14.1059 97.8465 15.0139C97.8465 15.9219 98.1836 16.7968 98.7909 17.4649Z"
            fill="#192A32"
            stroke="#192A32"
            stroke-width="0.411304"
            stroke-miterlimit="10"
        />
        <path d="M106.954 19.2885V10.7385H108.263L112.372 17.3933V15.7403V10.7385H113.456V19.2885H112.33L108.038 12.3203V13.959V19.2885H106.954Z" fill="#192A32" stroke="#192A32" stroke-width="0.411304" stroke-miterlimit="10" />
        <path
            d="M96.4828 31.7574C95.297 31.7602 94.1386 32.119 93.1542 32.7883C92.1698 33.4577 91.4035 34.4076 90.9523 35.5179C90.5011 36.6283 90.3852 37.8491 90.6193 39.0261C90.8534 40.2031 91.4269 41.2834 92.2673 42.1304C93.1078 42.9774 94.1774 43.553 95.341 43.7845C96.5046 44.0159 97.7098 43.8929 98.8043 43.4308C99.8987 42.9687 100.833 42.1884 101.49 41.1886C102.146 40.1887 102.495 39.0142 102.492 37.8136C102.504 37.0127 102.356 36.2176 102.058 35.4757C101.759 34.7338 101.317 34.0602 100.756 33.4952C100.195 32.9301 99.528 32.485 98.7939 32.1865C98.0597 31.8879 97.2738 31.742 96.4828 31.7574V31.7574ZM96.4828 41.4901C95.756 41.5416 95.0307 41.3705 94.4012 40.999C93.7717 40.6276 93.2671 40.073 92.953 39.4074C92.639 38.7417 92.5299 37.9958 92.6401 37.2666C92.7503 36.5374 93.0746 35.8586 93.5708 35.3185C94.0671 34.7784 94.7123 34.4019 95.4227 34.238C96.1331 34.0741 96.8757 34.1303 97.5541 34.3994C98.2325 34.6685 98.8152 35.1381 99.2265 35.7469C99.6379 36.3558 99.8588 37.0759 99.8606 37.8136C99.8832 38.281 99.8132 38.7483 99.6547 39.1879C99.4962 39.6275 99.2523 40.0305 98.9375 40.3732C98.6227 40.7158 98.2433 40.9912 97.8217 41.183C97.4001 41.3748 96.9449 41.4793 96.4828 41.4901ZM83.3657 31.7574C82.1799 31.7602 81.0216 32.119 80.0372 32.7883C79.0528 33.4577 78.2865 34.4076 77.8353 35.5179C77.3841 36.6283 77.2682 37.8491 77.5023 39.0261C77.7363 40.2031 78.3098 41.2834 79.1503 42.1304C79.9908 42.9774 81.0604 43.553 82.224 43.7845C83.3875 44.0159 84.5928 43.8929 85.6872 43.4308C86.7817 42.9687 87.7163 42.1884 88.3728 41.1886C89.0292 40.1887 89.3782 39.0142 89.3754 37.8136C89.3868 37.0127 89.239 36.2176 88.9407 35.4757C88.6424 34.7338 88.1997 34.0602 87.639 33.4952C87.0783 32.9301 86.411 32.485 85.6768 32.1865C84.9427 31.8879 84.1567 31.742 83.3657 31.7574V31.7574ZM83.3657 41.4901C82.6389 41.5416 81.9136 41.3705 81.2841 40.999C80.6546 40.6276 80.1501 40.073 79.836 39.4074C79.5219 38.7417 79.4129 37.9958 79.5231 37.2666C79.6332 36.5374 79.9575 35.8586 80.4538 35.3185C80.95 34.7784 81.5953 34.4019 82.3056 34.238C83.016 34.0741 83.7587 34.1303 84.437 34.3994C85.1154 34.6685 85.6982 35.1381 86.1095 35.7469C86.5208 36.3558 86.7418 37.0759 86.7435 37.8136C86.7662 38.281 86.6962 38.7483 86.5377 39.1879C86.3791 39.6275 86.1353 40.0305 85.8205 40.3732C85.5057 40.7158 85.1263 40.9912 84.7047 41.183C84.2831 41.3748 83.8278 41.4793 83.3657 41.4901ZM67.7717 33.6241V36.1891H73.8517C73.7563 37.3972 73.2603 38.5372 72.4443 39.4239C71.8344 40.053 71.1008 40.5455 70.2911 40.8696C69.4813 41.1936 68.6134 41.3419 67.7435 41.3049C65.9518 41.3049 64.2335 40.5842 62.9666 39.3015C61.6997 38.0187 60.988 36.2789 60.988 34.4649C60.988 32.6508 61.6997 30.911 62.9666 29.6283C64.2335 28.3455 65.9518 27.6249 67.7435 27.6249C69.4612 27.599 71.1197 28.2594 72.3598 29.4631L74.1472 27.6534C73.3084 26.8133 72.3124 26.1513 71.2177 25.7059C70.1229 25.2606 68.9513 25.0409 67.7717 25.0599C66.5205 25.0106 65.2723 25.2175 64.102 25.6683C62.9317 26.1191 61.8633 26.8044 60.9609 27.6833C60.0584 28.5622 59.3405 29.6164 58.8501 30.7829C58.3597 31.9495 58.1069 33.2042 58.1069 34.472C58.1069 35.7398 58.3597 36.9945 58.8501 38.161C59.3405 39.3275 60.0584 40.3818 60.9609 41.2607C61.8633 42.1395 62.9317 42.8249 64.102 43.2757C65.2723 43.7265 66.5205 43.9334 67.7717 43.8841C68.9756 43.9328 70.1761 43.7231 71.2943 43.2687C72.4125 42.8144 73.4231 42.1257 74.2598 41.2479C75.7378 39.604 76.5253 37.4419 76.4554 35.2201C76.4604 34.6853 76.418 34.1512 76.3287 33.6241H67.7717ZM131.541 35.6191C131.174 34.5258 130.488 33.5711 129.573 32.8815C128.658 32.1919 127.558 31.7999 126.418 31.7574C125.648 31.7558 124.886 31.9142 124.179 32.2227C123.472 32.5311 122.835 32.9832 122.308 33.5508C121.78 34.1184 121.373 34.7895 121.112 35.5228C120.851 36.256 120.741 37.0357 120.789 37.8136C120.777 39.1144 121.181 40.3843 121.94 41.4335C122.7 42.4827 123.774 43.255 125.003 43.6349C126.232 44.0149 127.549 43.9822 128.758 43.5417C129.967 43.1012 131.002 42.2765 131.71 41.1909L129.669 39.7659C129.365 40.2793 128.934 40.7032 128.418 40.9957C127.902 41.2881 127.319 41.4389 126.728 41.4331C126.118 41.4586 125.515 41.2967 124.997 40.9686C124.48 40.6405 124.072 40.1616 123.829 39.5949L131.837 36.2461L131.541 35.6191ZM123.378 37.6426C123.35 37.2 123.409 36.756 123.552 36.3368C123.695 35.9175 123.919 35.5313 124.211 35.2009C124.504 34.8705 124.858 34.6024 125.254 34.4124C125.65 34.2224 126.079 34.1143 126.517 34.0944C126.97 34.0663 127.422 34.1744 127.815 34.4051C128.208 34.6358 128.525 34.9788 128.726 35.3911L123.378 37.6426ZM116.876 43.5136H119.508V25.7011H116.876V43.5136ZM112.569 33.1111H112.471C112.078 32.6578 111.593 32.2957 111.048 32.0498C110.504 31.8038 109.914 31.6798 109.318 31.6861C107.78 31.7616 106.33 32.4334 105.268 33.5622C104.206 34.6911 103.613 36.1904 103.613 37.7495C103.613 39.3086 104.206 40.8079 105.268 41.9367C106.33 43.0656 107.78 43.7373 109.318 43.8129C109.915 43.825 110.507 43.7035 111.052 43.4572C111.597 43.2109 112.081 42.8457 112.471 42.3879H112.569V43.2571C112.569 45.5799 111.345 46.8196 109.375 46.8196C108.716 46.805 108.077 46.5926 107.539 46.2095C107 45.8264 106.586 45.2898 106.349 44.6679L104.069 45.6226C104.49 46.6946 105.223 47.6118 106.171 48.2529C107.118 48.8941 108.235 49.2291 109.375 49.2136C112.457 49.2136 115.004 47.3754 115.004 42.9009V32.1136H112.569V33.1111ZM109.544 41.4901C108.621 41.4319 107.756 41.02 107.123 40.3382C106.491 39.6565 106.138 38.7562 106.138 37.8207C106.138 36.8853 106.491 35.985 107.123 35.3032C107.756 34.6215 108.621 34.2096 109.544 34.1514C109.994 34.1711 110.436 34.2823 110.844 34.4786C111.251 34.6749 111.615 34.9521 111.915 35.2937C112.214 35.6354 112.443 36.0346 112.586 36.4675C112.73 36.9004 112.787 37.3582 112.752 37.8136C112.791 38.2706 112.737 38.7307 112.595 39.1662C112.453 39.6016 112.225 40.0033 111.925 40.347C111.625 40.6906 111.259 40.9691 110.85 41.1656C110.441 41.3621 109.996 41.4725 109.544 41.4901V41.4901ZM143.87 25.7011H137.565V43.5136H140.197V36.7591H143.87C144.62 36.8137 145.373 36.7112 146.083 36.4581C146.792 36.2049 147.442 35.8065 147.992 35.2878C148.543 34.769 148.982 34.141 149.282 33.4429C149.582 32.7448 149.737 31.9915 149.737 31.2301C149.737 30.4687 149.582 29.7154 149.282 29.0173C148.982 28.3192 148.543 27.6912 147.992 27.1724C147.442 26.6537 146.792 26.2553 146.083 26.0022C145.373 25.749 144.62 25.6465 143.87 25.7011V25.7011ZM143.87 34.2511H140.197V28.1806H143.926C144.322 28.1806 144.714 28.2595 145.079 28.4127C145.444 28.566 145.777 28.7906 146.056 29.0738C146.336 29.357 146.558 29.6931 146.709 30.0631C146.86 30.4331 146.938 30.8296 146.938 31.2301C146.938 31.6306 146.86 32.0271 146.709 32.3971C146.558 32.7671 146.336 33.1033 146.056 33.3864C145.777 33.6696 145.444 33.8942 145.079 34.0475C144.714 34.2007 144.322 34.2796 143.926 34.2796L143.87 34.2511ZM160.112 31.7004C159.153 31.6405 158.198 31.8664 157.366 32.3502C156.533 32.8339 155.858 33.5543 155.425 34.4221L157.747 35.4054C157.982 34.977 158.334 34.6266 158.761 34.3965C159.188 34.1664 159.672 34.0664 160.154 34.1086C160.488 34.0691 160.827 34.0974 161.15 34.1917C161.473 34.2861 161.774 34.4447 162.036 34.6582C162.298 34.8718 162.516 35.1361 162.676 35.4356C162.836 35.7351 162.935 36.064 162.969 36.4029V36.5739C162.122 36.1234 161.18 35.8887 160.224 35.8899C157.719 35.8899 155.158 37.3149 155.158 39.9084C155.182 40.4596 155.316 41.0002 155.551 41.498C155.787 41.9958 156.118 42.4407 156.526 42.8063C156.935 43.1718 157.411 43.4505 157.928 43.6259C158.445 43.8013 158.991 43.8697 159.535 43.8271C160.195 43.8641 160.853 43.7226 161.442 43.4171C162.031 43.1116 162.528 42.6531 162.884 42.0886H162.969V43.5136H165.502V36.6594C165.502 33.5386 163.166 31.7289 160.168 31.7289L160.112 31.7004ZM159.788 41.4616C158.929 41.4616 157.733 41.0199 157.733 39.9511C157.733 38.5261 159.225 38.0416 160.548 38.0416C161.384 38.0207 162.21 38.2274 162.941 38.6401C162.852 39.414 162.49 40.1292 161.92 40.6532C161.351 41.1773 160.614 41.4746 159.844 41.4901L159.788 41.4616ZM174.735 32.1136L171.723 39.8371H171.638L168.514 32.1136H165.699L170.386 42.9151L167.712 48.9144H170.456L177.662 32.1136H174.735ZM151.09 43.5136H153.708V25.7011H151.09V43.5136Z"
            fill="#192A32"
        />
        <path
            d="M15.2752 11.508C14.8114 12.0632 14.5748 12.7769 14.6137 13.503V45.024C14.5658 45.7512 14.8036 46.4683 15.2752 47.019L15.3737 47.133L32.8115 29.4772V29.0497L15.3737 11.4082L15.2752 11.508Z"
            fill="url(#paint0_linear_2_1377)"
        />
        <path d="M38.5819 35.3626L32.8115 29.4773V29.0498L38.5819 23.1646L38.7086 23.2501L45.6189 27.2116C47.5893 28.3373 47.5893 30.1898 45.6189 31.3298L38.7367 35.2913L38.5819 35.3626Z" fill="url(#paint1_linear_2_1377)" />
        <path d="M38.7509 35.2772L32.8117 29.2637L15.2754 47.0192C15.6731 47.3776 16.1821 47.5838 16.7143 47.602C17.2464 47.6202 17.768 47.4493 18.1887 47.1189L38.7509 35.2772" fill="url(#paint2_linear_2_1377)" />
        <path d="M38.7509 23.2501L18.1887 11.4226C17.7708 11.0876 17.2495 10.9126 16.7167 10.9282C16.1838 10.9438 15.6735 11.1492 15.2754 11.5081L32.8117 29.2636L38.7509 23.2501Z" fill="url(#paint3_linear_2_1377)" />
        <path
            opacity="0.2"
            d="M38.5821 35.1492L18.1887 46.9054C17.7833 47.2152 17.2892 47.3828 16.7813 47.3828C16.2734 47.3828 15.7793 47.2152 15.3739 46.9054V46.9054L15.2754 47.0052L15.3739 47.1192C15.7793 47.429 16.2734 47.5966 16.7813 47.5966C17.2892 47.5966 17.7833 47.429 18.1887 47.1192L38.7509 35.2774L38.5821 35.1492Z"
            fill="#192A32"
        />
        <path opacity="0.12" d="M15.275 46.8196C14.823 46.2543 14.6014 45.5355 14.6558 44.8103V45.0241C14.6079 45.7513 14.8456 46.4684 15.3173 47.0191L15.4158 46.9193L15.275 46.8196Z" fill="#192A32" />
        <path
            opacity="0.12"
            d="M45.6191 31.1162L38.582 35.1489L38.7087 35.2772L45.6191 31.3157C46.027 31.141 46.3808 30.8583 46.6434 30.4972C46.9059 30.136 47.0674 29.7099 47.1109 29.2637C47.0229 29.6692 46.8421 30.0481 46.5829 30.3699C46.3238 30.6916 45.9937 30.9473 45.6191 31.1162Z"
            fill="#192A32"
        />
        <path
            opacity="0.25"
            d="M18.1886 11.6222L45.619 27.4112C45.9935 27.5801 46.3237 27.8358 46.5828 28.1575C46.842 28.4793 47.0228 28.8582 47.1108 29.2637C47.0673 28.8175 46.9058 28.3914 46.6433 28.0302C46.3807 27.6691 46.0269 27.3864 45.619 27.2117L18.1886 11.4227C16.2323 10.2827 14.6138 11.2232 14.6138 13.5032V13.717C14.656 11.437 16.2323 10.4965 18.1886 11.6222Z"
            fill="white"
        />
    </g>
    <defs>
        <linearGradient id="paint0_linear_2_1377" x1="31.2633" y1="13.1752" x2="7.35369" y2="36.7897" gradientUnits="userSpaceOnUse">
            <stop stop-color="#00A0FF" />
            <stop offset="0.01" stop-color="#00A1FF" />
            <stop offset="0.26" stop-color="#00BEFF" />
            <stop offset="0.51" stop-color="#00D2FF" />
            <stop offset="0.76" stop-color="#00DFFF" />
            <stop offset="1" stop-color="#00E3FF" />
        </linearGradient>
        <linearGradient id="paint1_linear_2_1377" x1="48.1945" y1="29.2636" x2="14.1493" y2="29.2636" gradientUnits="userSpaceOnUse">
            <stop stop-color="#FFE000" />
            <stop offset="0.41" stop-color="#FFBD00" />
            <stop offset="0.78" stop-color="#FFA500" />
            <stop offset="1" stop-color="#FF9C00" />
        </linearGradient>
        <linearGradient id="paint2_linear_2_1377" x1="35.528" y1="32.5412" x2="3.09766" y2="64.557" gradientUnits="userSpaceOnUse">
            <stop stop-color="#FF3A44" />
            <stop offset="1" stop-color="#C31162" />
        </linearGradient>
        <linearGradient id="paint3_linear_2_1377" x1="10.8561" y1="1.02014" x2="25.333" y2="15.3183" gradientUnits="userSpaceOnUse">
            <stop stop-color="#32A071" />
            <stop offset="0.07" stop-color="#2DA771" />
            <stop offset="0.48" stop-color="#15CF74" />
            <stop offset="0.8" stop-color="#06E775" />
            <stop offset="1" stop-color="#00F076" />
        </linearGradient>
        <clipPath id="clip0_2_1377">
            <rect width="190" height="57" fill="white" transform="translate(0.582031 0.763672)" />
        </clipPath>
    </defs>
</svg>
