<svg id="wave" width="1241" height="385" viewBox="0 0 1241 385" fill="none" xmlns="http://www.w3.org/2000/svg">
    <path
        d="M1240.58 0.82671C1006.33 -34.0066 716.34 121.002 429.836 157.577C199.065 187.185 57.9904 124.485 -13.418 75.7184V138.418C165.103 303.877 517.79 305.618 895.732 235.952C1049 208.085 1161.34 207.214 1240.58 215.923V0.82671Z"
        fill="url(#paint0_radial_2_1383)"
    />
    <path
        d="M1240.58 259.464C1093.41 297.781 923.599 246.402 602.261 120.131C331.432 13.0183 111.982 114.906 -13.418 203.731V500.685C-12.5471 499.814 -12.5471 499.814 -11.6763 498.943C165.103 322.164 546.528 228.114 845.224 336.968C1029.84 404.023 1156.11 389.218 1240.58 350.031V259.464Z"
        fill="#141E55"
    />
    <path
        d="M1240.58 230.727C1174.4 205.473 1091.67 168.898 982.815 118.389C589.199 -64.4857 438.545 144.514 179.907 192.41C111.111 205.473 37.0904 169.768 -13.418 137.548V236.823C119.82 312.585 298.34 319.552 506.47 237.693C708.503 158.448 882.669 174.123 1191.82 285.589C1208.36 291.685 1224.91 296.039 1240.58 300.393V230.727Z"
        fill="url(#paint1_radial_2_1383)"
    />
    <path
        d="M1240.58 143.643C1169.17 195.022 1091.67 252.497 985.428 275.139C750.303 325.647 567.428 192.41 323.595 87.9099C168.586 21.7266 51.0237 64.3974 -13.418 103.585V144.514C260.895 40.0141 403.711 252.497 759.011 381.381C952.336 451.918 1115.18 454.531 1240.58 431.889V143.643Z"
        fill="url(#paint2_radial_2_1383)"
    />
    <path
        opacity="0.2"
        d="M1240.58 111.423C1173.53 137.548 1097.77 173.252 1010.68 208.085C738.111 318.681 624.032 186.314 374.103 81.8143C219.095 17.3727 74.5362 99.231 -13.418 170.639V391.831C77.1487 270.785 216.482 173.252 481.215 253.368C785.136 344.806 1073.38 357.868 1231.87 262.948C1234.49 261.206 1237.97 259.464 1240.58 258.593V111.423Z"
        fill="white"
    />
    <defs>
        <radialGradient id="paint0_radial_2_1383" cx="0" cy="0" r="1" gradientUnits="userSpaceOnUse" gradientTransform="translate(608.501 -199.402) scale(688.001 688.001)">
            <stop offset="0.1939" stop-color="#EC622B" />
            <stop offset="0.4716" stop-color="#FFA581" />
            <stop offset="0.8921" stop-color="#EC622B" />
            <stop offset="1" stop-color="#EC622B" />
        </radialGradient>
        <radialGradient id="paint1_radial_2_1383" cx="0" cy="0" r="1" gradientUnits="userSpaceOnUse" gradientTransform="translate(659.858 -188.094) scale(791.634 791.635)">
            <stop stop-color="#65B7FF" />
            <stop offset="0.5212" stop-color="#3362AB" />
            <stop offset="1" stop-color="#65B7FF" />
        </radialGradient>
        <radialGradient id="paint2_radial_2_1383" cx="0" cy="0" r="1" gradientUnits="userSpaceOnUse" gradientTransform="translate(650.324 -34.5005) scale(831.9 831.9)">
            <stop stop-color="#009704" />
            <stop offset="1" stop-color="#006A33" />
        </radialGradient>
    </defs>
</svg>
<svg id="wave-classic" width="925" height="384" viewBox="0 0 925 384" fill="none" xmlns="http://www.w3.org/2000/svg">
    <path
        d="M1240 0.0694847C1005.75 -34.8082 715.758 120.398 429.254 157.019C198.483 186.665 57.4083 123.885 -14 75.0565V137.836C164.521 303.505 517.208 305.249 895.15 235.494C1048.42 207.592 1160.75 206.72 1240 215.439V0.0694847Z"
        fill="url(#paint0_radial_2_594)"
    />
    <path
        d="M1240 258.517C1092.83 296.875 923.017 245.44 601.679 119.032C330.85 11.8032 111.4 113.802 -14 202.723V500C-13.1292 499.128 -13.1292 499.128 -12.2583 498.256C164.521 321.285 545.946 227.133 844.642 336.105C1029.26 403.232 1155.53 388.412 1240 349.182V258.517Z"
        fill="#EAEAEA"
    />
    <path
        d="M1240 230.261C1173.82 204.981 1091.09 168.369 982.233 117.808C588.617 -65.2555 437.962 143.96 179.325 191.905C110.529 204.981 36.5083 169.24 -14 136.986V236.364C119.238 312.204 297.758 319.178 505.888 237.235C707.921 157.908 882.087 173.599 1191.23 285.181C1207.78 291.283 1224.32 295.641 1240 300V230.261Z"
        fill="url(#paint1_radial_2_594)"
    />
    <path
        d="M1240 143.168C1168.59 194.534 1091.09 251.994 984.846 274.63C749.721 325.125 566.846 191.922 323.012 87.4497C168.004 21.2837 50.4417 63.9434 -14 103.121V144.039C260.312 39.5664 403.129 251.994 758.429 380.844C951.754 451.363 1114.6 453.974 1240 431.339V143.168Z"
        fill="url(#paint2_radial_2_594)"
    />
    <path
        opacity="0.2"
        d="M1240 110.906C1172.95 137.002 1097.18 172.666 1010.1 207.46C737.529 317.932 623.45 185.714 373.521 81.3313C218.512 16.962 73.9542 98.7284 -14 170.057V391C76.5667 270.09 215.9 172.666 480.633 252.693C784.554 344.028 1072.8 357.076 1231.29 262.261C1233.9 260.522 1237.39 258.782 1240 257.912V110.906Z"
        fill="white"
    />
    <defs>
        <radialGradient id="paint0_radial_2_594" cx="0" cy="0" r="1" gradientUnits="userSpaceOnUse" gradientTransform="translate(607.919 -200.414) scale(688.001 688.877)">
            <stop offset="0.1939" stop-color="#EC622B" />
            <stop offset="0.4716" stop-color="#FFA581" />
            <stop offset="0.8921" stop-color="#EC622B" />
            <stop offset="1" stop-color="#EC622B" />
        </radialGradient>
        <radialGradient id="paint1_radial_2_594" cx="0" cy="0" r="1" gradientUnits="userSpaceOnUse" gradientTransform="translate(659.276 -188.992) scale(791.634 792.451)">
            <stop stop-color="#65B7FF" />
            <stop offset="0.5212" stop-color="#3362AB" />
            <stop offset="1" stop-color="#65B7FF" />
        </radialGradient>
        <radialGradient id="paint2_radial_2_594" cx="0" cy="0" r="1" gradientUnits="userSpaceOnUse" gradientTransform="translate(649.742 -34.9286) scale(831.9 831.682)">
            <stop stop-color="#009704" />
            <stop offset="1" stop-color="#006A33" />
        </radialGradient>
    </defs>
</svg>
<svg id="wave-smooth" width="925" height="417" viewBox="0 0 925 417" fill="none" xmlns="http://www.w3.org/2000/svg">
    <g opacity="0.4">
        <path
            d="M660.323 258.195C727.116 202.282 791.34 140.584 856.207 102.665C879.328 89.8114 901.164 84.0273 923 86.598V311.538C915.293 314.752 907.586 318.608 899.237 323.107C798.405 380.948 689.224 477.351 576.19 477.994C493.983 478.637 413.703 427.864 327 391.874C335.991 393.159 344.983 394.445 353.332 395.087C413.06 400.872 538.94 359.74 660.323 258.195Z"
            fill="#EAEAEA"
        />
        <path d="M-2 382.496C57.1172 367.764 131.014 344.705 224.83 360.078C260.172 365.842 294.229 377.372 327 390.823C269.168 382.496 193.986 365.202 127.801 385.058C77.6797 399.79 32.0566 433.098 -2 460V382.496Z" fill="#EAEAEA" />
        <path d="M923 285.943V434.991C866.455 419.573 794.488 415.075 707.101 437.561C559.312 476.75 423.733 450.41 310 387.45C509.835 374.601 679.471 273.737 813.123 263.458C853.604 260.888 890.23 269.24 923 285.943Z" fill="#65B7FF" />
        <path d="M-2 212C87.8766 218.426 181.605 309.037 288.815 375.228C295.877 379.727 302.938 383.583 310 387.438C299.728 388.081 288.815 388.724 277.901 388.724C146.938 390.652 57.7037 381.655 -2 387.438V212Z" fill="#65B7FF" />
        <path
            d="M510.649 417.67C588.38 411.244 715.576 302.007 820.93 155.502C857.547 104.096 892.237 37.269 925 0V341.847C903.801 340.562 878.747 345.702 849.839 360.481C793.949 390.039 718.146 467.148 630.779 476.144C544.696 485.14 452.832 420.883 345.551 394.537C335.915 391.967 325.636 390.682 316 389.397C378.956 391.967 440.627 422.81 510.649 417.67Z"
            fill="#EC622B"
        />
        <path
            d="M-5 439.397C16.8374 438.756 39.317 436.192 61.7967 431.706C138.87 415.682 223.65 378.507 311 388.762C304.577 388.762 298.797 388.762 292.374 388.762C221.081 393.248 145.293 441.961 61.7967 511.184C39.9593 529.131 17.4797 541.95 -4.3577 549V439.397H-5Z"
            fill="#E1845F"
        />
        <path
            d="M663.772 369.557C777.378 404.259 857.607 405.544 916.656 340.639C919.223 337.426 922.433 334.213 925 331V597.688C873.011 627.248 808.828 615.038 742.718 552.062C654.787 466.593 584.827 410.685 515.508 392.049C452.608 375.983 386.499 394.619 296 388.193C404.47 362.488 534.763 329.072 663.772 369.557Z"
            fill="#009704"
        />
        <path d="M-2 284C69.8261 310.331 158.967 372.626 273.12 385.471C280.174 386.113 286.587 386.755 293 387.398C219.891 404.738 156.402 418.224 110.87 404.095C78.8043 394.462 38.4022 391.893 -2 393.82V284Z" fill="#009704" />
        <path
            opacity="0.22"
            d="M782.345 317.251C827.946 289.557 877.4 258.644 923 258V274.101C878.042 276.033 829.872 305.658 784.914 333.351C727.111 368.773 669.95 403.551 611.504 422.227C554.985 440.26 495.255 441.548 434.241 427.38C393.136 417.719 351.389 402.263 309 387.45C350.105 399.686 390.567 413.211 431.029 420.295C551.132 443.48 666.096 387.45 782.345 317.251Z"
            fill="white"
        />
        <path
            opacity="0.22"
            d="M-2 381.339C22.4174 374.898 46.1921 369.102 69.9669 363.949C84.7458 361.373 98.8822 358.153 113.019 356.22C127.155 354.288 141.291 353 156.07 353C185.628 353 215.828 358.797 246.671 367.17C267.233 372.966 287.795 379.407 309 387.136C289.081 381.339 269.161 375.542 249.242 371.034C219.041 363.949 189.483 359.441 160.568 360.085C145.789 360.085 132.295 361.373 117.517 363.949C102.738 365.881 87.9587 369.102 73.8223 372.322C48.7624 377.475 23.7025 384.559 -2 391V381.339Z"
            fill="white"
        />
    </g>
</svg>
<svg id="wave-sharp" width="925" height="384" viewBox="0 0 925 384" fill="none" xmlns="http://www.w3.org/2000/svg">
    <path
        d="M662.323 130.195C729.116 74.2816 793.34 12.5837 858.207 -25.3348C881.328 -38.1886 903.164 -43.9727 925 -41.402V183.538C917.293 186.752 909.586 190.608 901.237 195.107C800.405 252.948 691.224 349.351 578.19 349.994C495.983 350.637 415.703 299.864 329 263.874C337.991 265.159 346.983 266.445 355.332 267.087C415.06 272.872 540.94 231.74 662.323 130.195Z"
        fill="#EAEAEA"
    />
    <path d="M0 254.496C59.1172 239.764 133.014 216.705 226.83 232.078C262.172 237.842 296.229 249.372 329 262.823C271.168 254.496 195.986 237.202 129.801 257.058C79.6797 271.79 34.0566 305.098 0 332V254.496Z" fill="#EAEAEA" />
    <path d="M925 157.943V306.991C868.455 291.573 796.488 287.075 709.101 309.561C561.312 348.75 425.733 322.41 312 259.45C511.835 246.601 681.471 145.737 815.123 135.458C855.604 132.888 892.23 141.24 925 157.943Z" fill="#65B7FF" />
    <path d="M0 84C89.8766 90.4263 183.605 181.037 290.815 247.228C297.877 251.727 304.938 255.583 312 259.438C301.728 260.081 290.815 260.724 279.901 260.724C148.938 262.652 59.7037 253.655 0 259.438V84Z" fill="#65B7FF" />
    <path
        d="M512.649 289.67C590.38 283.244 717.576 174.007 822.93 27.5017C859.547 -23.9038 894.237 -90.731 927 -128V213.847C905.801 212.562 880.747 217.702 851.839 232.481C795.949 262.039 720.146 339.148 632.779 348.144C546.696 357.14 454.832 292.883 347.551 266.537C337.915 263.967 327.636 262.682 318 261.397C380.956 263.967 442.627 294.81 512.649 289.67Z"
        fill="#EC622B"
    />
    <path
        d="M-3 311.397C18.8374 310.756 41.317 308.192 63.7967 303.706C140.87 287.682 225.65 250.507 313 260.762C306.577 260.762 300.797 260.762 294.374 260.762C223.081 265.248 147.293 313.961 63.7967 383.184C41.9593 401.131 19.4797 413.95 -2.3577 421V311.397H-3Z"
        fill="#E1845F"
    />
    <path
        d="M665.772 241.557C779.378 276.259 859.607 277.544 918.656 212.639C921.223 209.426 924.433 206.213 927 203V469.688C875.011 499.248 810.828 487.038 744.718 424.062C656.787 338.593 586.827 282.685 517.508 264.049C454.608 247.983 388.499 266.619 298 260.193C406.47 234.488 536.763 201.072 665.772 241.557Z"
        fill="#009704"
    />
    <path d="M0 156C71.8261 182.331 160.967 244.626 275.12 257.471C282.174 258.113 288.587 258.755 295 259.398C221.891 276.738 158.402 290.224 112.87 276.095C80.8043 266.462 40.4022 263.893 0 265.82V156Z" fill="#009704" />
    <path
        opacity="0.22"
        d="M784.345 189.251C829.946 161.557 879.4 130.644 925 130V146.101C880.042 148.033 831.872 177.658 786.914 205.351C729.111 240.773 671.95 275.551 613.504 294.227C556.985 312.26 497.255 313.548 436.241 299.38C395.136 289.719 353.389 274.263 311 259.45C352.105 271.686 392.567 285.211 433.029 292.295C553.132 315.48 668.096 259.45 784.345 189.251Z"
        fill="white"
    />
    <path
        opacity="0.22"
        d="M0 253.339C24.4174 246.898 48.1921 241.102 71.9669 235.949C86.7458 233.373 100.882 230.153 115.019 228.22C129.155 226.288 143.291 225 158.07 225C187.628 225 217.828 230.797 248.671 239.17C269.233 244.966 289.795 251.407 311 259.136C291.081 253.339 271.161 247.542 251.242 243.034C221.041 235.949 191.483 231.441 162.568 232.085C147.789 232.085 134.295 233.373 119.517 235.949C104.738 237.881 89.9587 241.102 75.8223 244.322C50.7624 249.475 25.7025 256.559 0 263V253.339Z"
        fill="white"
    />
</svg>
<svg id="radial-lg" width="1909" height="1509" viewBox="0 0 1909 1509" fill="none" xmlns="http://www.w3.org/2000/svg">
    <path
        d="M1751.96 1248.49C2192.32 864.935 2237.97 197.18 1854 -242.769C1470.48 -683.165 802.778 -728.368 362.867 -344.812C-77.0438 38.2969 -122.691 706.052 260.833 1146.45C644.804 1586.4 1312.5 1632.05 1751.96 1248.49Z"
        fill="url(#paint0_radial_2_974)"
    />
    <defs>
        <radialGradient id="paint0_radial_2_974" cx="0" cy="0" r="1" gradientUnits="userSpaceOnUse" gradientTransform="translate(970.966 375.367) rotate(48.9178) scale(1056.87 1056.86)">
            <stop stop-color="white" />
            <stop offset="0.201042" stop-color="#00B9DE" />
            <stop offset="0.398958" stop-color="#0085C2" />
            <stop offset="0.680208" stop-color="#00689A" stop-opacity="0.39" />
            <stop offset="1" stop-color="#00537B" stop-opacity="0" />
        </radialGradient>
    </defs>
</svg>
<svg id="radial-medium" width="1830" height="1769" viewBox="0 0 1830 1769" fill="none" xmlns="http://www.w3.org/2000/svg">
    <path
        d="M1467.38 1853.73C1907.74 1470.17 1953.39 802.416 1569.42 362.468C1185.89 -77.9284 518.195 -123.132 78.2848 260.425C-361.626 643.533 -407.273 1311.29 -23.7494 1751.68C360.221 2191.63 1027.92 2237.28 1467.38 1853.73Z"
        fill="url(#paint0_radial_2_430)"
    />
    <defs>
        <radialGradient id="paint0_radial_2_430" cx="0" cy="0" r="1" gradientUnits="userSpaceOnUse" gradientTransform="translate(686.384 980.603) rotate(30.5037) scale(883.379 883.368)">
            <stop stop-color="white" />
            <stop offset="0.201042" stop-color="#00B9DE" />
            <stop offset="0.398958" stop-color="#0085C2" />
            <stop offset="0.680208" stop-color="#00689A" stop-opacity="0.39" />
            <stop offset="1" stop-color="#00537B" stop-opacity="0" />
        </radialGradient>
    </defs>
</svg>
<svg id="radial-small" width="1920" height="2114" viewBox="0 0 1920 2114" fill="none" xmlns="http://www.w3.org/2000/svg">
    <path
        d="M1634.38 1853.73C2074.74 1470.17 2120.39 802.416 1736.42 362.468C1352.89 -77.9284 685.195 -123.132 245.285 260.425C-194.626 643.533 -240.273 1311.29 143.251 1751.68C527.221 2191.63 1194.92 2237.28 1634.38 1853.73Z"
        fill="url(#paint0_radial_2_429)"
    />
    <defs>
        <radialGradient id="paint0_radial_2_429" cx="0" cy="0" r="1" gradientUnits="userSpaceOnUse" gradientTransform="translate(853.384 980.603) rotate(47.7507) scale(740.85 740.842)">
            <stop stop-color="white" />
            <stop offset="0.201042" stop-color="#00B9DE" />
            <stop offset="0.398958" stop-color="#0085C2" />
            <stop offset="0.680208" stop-color="#00689A" stop-opacity="0.39" />
            <stop offset="1" stop-color="#00537B" stop-opacity="0" />
        </radialGradient>
    </defs>
</svg>