<svg id="american-ball" width="251" height="251" viewBox="0 0 251 251" aria-hidden="true" fill="none" xmlns="http://www.w3.org/2000/svg">
    <path d="M154.605 96.7402L168.551 110.686L157.379 121.857L149.293 113.771L137.574 102.053L129.488 93.9668L140.66 82.7949L154.605 96.7402Z" fill="#EEF2FA" />
    <path d="M137.027 126.037L145.113 134.123L133.941 145.295L125.855 137.209L114.137 125.49L106.051 117.404L117.223 106.232L125.309 114.318L137.027 126.037Z" fill="#EEF2FA" />
    <path d="M113.59 149.475L121.676 157.561L110.504 168.732L102.418 160.646L96.5586 154.787L90.6992 148.928L82.6133 140.842L93.7852 129.67L101.871 137.756L113.59 149.475Z" fill="#EEF2FA" />
    <path d="M137.575 102.053L125.309 114.32L137.028 126.04L149.295 113.773L137.575 102.053Z" fill="#CDD2E1" />
    <path d="M114.138 125.488L101.871 137.754L113.591 149.474L125.857 137.207L114.138 125.488Z" fill="#CDD2E1" />
    <path d="M113.863 239.045L113.902 239.24C104.375 241.936 94.6609 243.92 84.8398 245.178L45.5039 205.842L63.082 188.264L113.863 239.045Z" fill="#CDD2E1" />
    <path d="M63.082 188.264L45.5039 205.842L6.16797 166.506C7.42543 156.685 9.41005 146.971 12.1055 137.443L12.3008 137.482L63.082 188.264Z" fill="#EEF2FA" />
    <path d="M205.66 45.6855L244.996 85.0215C243.739 94.8425 241.754 104.557 239.059 114.084L238.863 114.045L188.082 63.2637L205.66 45.6855Z" fill="#CDD2E1" />
    <path d="M205.66 45.6855L188.082 63.2637L137.301 12.4824L137.262 12.2871C146.789 9.59169 156.503 7.60707 166.324 6.34961L205.66 45.6855Z" fill="#EEF2FA" />
    <path d="M45.5039 205.842L84.8398 245.178C59.8898 248.483 34.544 247.159 10.0742 241.271L45.5039 205.842Z" fill="#80413E" />
    <path d="M45.5036 205.842L10.0739 241.271C4.18631 216.802 2.86208 191.456 6.16761 166.506L45.5036 205.842Z" fill="#974D4A" />
    <path d="M241.09 10.2559C246.977 34.7256 248.302 60.0714 244.996 85.0215L205.66 45.6855L241.09 10.2559Z" fill="#80413E" />
    <path d="M241.09 10.2559L205.66 45.6856L166.324 6.34962C191.274 3.04409 216.62 4.36832 241.09 10.2559Z" fill="#974D4A" />
    <path
        d="M157.379 121.857L168.551 110.686L154.605 96.7402L188.082 63.2637L238.863 114.045L239.059 114.084C230.631 143.893 214.646 171.019 192.652 192.834C170.838 214.828 143.711 230.813 113.902 239.24L113.863 239.045L63.082 188.264L96.5586 154.787L102.418 160.646L110.504 168.732L121.676 157.561L113.59 149.475L125.855 137.209L133.941 145.295L145.113 134.123L137.027 126.037L149.293 113.771L157.379 121.857Z"
        fill="#80413E"
    />
    <path
        d="M90.6992 148.928L96.5586 154.787L63.082 188.264L12.3008 137.482L12.1055 137.443C20.6501 107.685 36.6188 80.5861 58.5116 58.6932C80.4045 36.8004 107.503 20.8317 137.262 12.2871L137.301 12.4824L188.082 63.2637L154.605 96.7402L140.66 82.7949L129.488 93.9668L137.574 102.053L125.309 114.318L117.223 106.232L106.051 117.404L114.137 125.49L101.871 137.756L93.7852 129.67L82.6133 140.842L90.6992 148.928Z"
        fill="#974D4A"
    />
    <path
        d="M116.351 146.713L96.546 126.908C95.8135 126.176 94.8201 125.765 93.7843 125.765C92.7485 125.765 91.7551 126.176 91.0226 126.908L79.8507 138.08C79.1184 138.813 78.707 139.806 78.707 140.842C78.707 141.878 79.1184 142.871 79.8507 143.604L107.741 171.494C108.474 172.227 109.467 172.638 110.503 172.638C111.539 172.638 112.532 172.227 113.265 171.494L124.437 160.322C125.169 159.59 125.58 158.596 125.58 157.561C125.58 156.525 125.169 155.531 124.437 154.799L116.351 146.713ZM110.503 168.733L102.417 160.647L96.5578 154.787L90.6984 148.928L82.6124 140.842L93.7843 129.67L101.87 137.756L113.589 149.475L121.675 157.561L110.503 168.733Z"
        fill="#572D2A"
    />
    <path
        d="M139.788 123.276L119.984 103.471C119.251 102.739 118.258 102.327 117.222 102.327C116.186 102.327 115.193 102.739 114.46 103.471L103.288 114.643C102.556 115.375 102.145 116.369 102.145 117.404C102.145 118.44 102.556 119.434 103.288 120.166L131.179 148.057C131.911 148.789 132.905 149.2 133.941 149.2C134.976 149.2 135.97 148.789 136.702 148.057L147.874 136.885C148.606 136.152 149.018 135.159 149.018 134.123C149.018 133.087 148.606 132.094 147.874 131.361L139.788 123.276ZM133.941 145.295L125.855 137.209L114.136 125.49L106.05 117.404L117.222 106.233L125.308 114.318L137.026 126.037L145.112 134.123L133.941 145.295Z"
        fill="#572D2A"
    />
    <path
        d="M171.312 107.924L143.421 80.0333C142.689 79.301 141.695 78.8896 140.659 78.8896C139.624 78.8896 138.63 79.301 137.898 80.0333L126.726 91.2052C125.993 91.9377 125.582 92.9311 125.582 93.9669C125.582 95.0027 125.993 95.9961 126.726 96.7287L154.616 124.619C155.349 125.352 156.342 125.763 157.378 125.763C158.414 125.763 159.407 125.352 160.14 124.619L171.312 113.447C172.044 112.715 172.455 111.721 172.455 110.686C172.455 109.65 172.044 108.656 171.312 107.924ZM157.378 121.858L149.292 113.772L137.573 102.053L129.487 93.9669L140.659 82.7951L154.605 96.7404L168.55 110.686L157.378 121.858Z"
        fill="#572D2A"
    />
    <path d="M94.7656 219.943L94.6445 219.982C85.1173 222.678 75.4031 224.662 65.582 225.92L84.8398 245.178C94.6609 243.92 104.375 241.936 113.902 239.24L113.863 239.045L94.7656 219.943Z" fill="#AFB4C8" />
    <path d="M219.801 94.8262L219.762 94.9473L238.863 114.045L239.059 114.084C241.754 104.557 243.739 94.8425 244.996 85.0215L225.738 65.7637C224.481 75.5847 222.496 85.2989 219.801 94.8262Z" fill="#AFB4C8" />
    <path d="M24.2422 227.104L10.0742 241.271C34.544 247.159 59.8898 248.483 84.8398 245.178L65.582 225.92C51.8722 227.642 38.0282 228.039 24.2422 227.104Z" fill="#61312F" />
    <path d="M6.85938 225.229C7.62235 230.633 8.69574 235.99 10.0742 241.271L24.2422 227.104C17.6016 226.658 11.7461 225.967 6.85938 225.229Z" fill="#80413E" />
    <path d="M241.09 10.2559L226.922 24.4238C227.861 38.2094 227.468 52.0534 225.75 65.7637L245.008 85.0215C248.309 60.0707 246.981 34.7249 241.09 10.2559Z" fill="#61312F" />
    <path d="M241.09 10.2559C235.808 8.87738 230.452 7.80399 225.047 7.04102C225.789 11.9277 226.477 17.7832 226.922 24.4238L241.09 10.2559Z" fill="#80413E" />
    <path
        d="M219.762 94.9473C211.328 124.709 195.357 151.792 173.395 173.576C151.61 195.539 124.528 211.509 94.7656 219.943L113.863 239.045L113.902 239.24C143.711 230.813 170.838 214.828 192.652 192.834C214.646 171.019 230.631 143.893 239.059 114.084L238.863 114.045L219.762 94.9473Z"
        fill="#61312F"
    />
    <path
        d="M33.5382 131.623C32.6012 131.623 31.6781 131.397 30.8463 130.966C30.0144 130.535 29.2981 129.91 28.7574 129.145C28.2168 128.38 27.8675 127.496 27.739 126.568C27.6105 125.64 27.7064 124.694 28.0187 123.811C41.5472 86.6046 68.3696 55.7232 103.316 37.1194C104.69 36.3942 106.297 36.2448 107.782 36.7041C109.267 37.1634 110.508 38.1938 111.234 39.5686C111.959 40.9434 112.108 42.5499 111.649 44.0348C111.189 45.5197 110.159 46.7614 108.784 47.4866C76.4346 64.7156 51.5984 93.2985 39.0539 127.737C38.6472 128.874 37.899 129.858 36.9117 130.554C35.9243 131.249 34.7461 131.623 33.5382 131.623Z"
        fill="#D16B67"
    />
    <path
        d="M121.678 41.0412C120.309 41.0425 118.983 40.5645 117.929 39.6902C116.876 38.8158 116.162 37.6002 115.912 36.2544C115.661 34.9086 115.889 33.5176 116.557 32.3227C117.225 31.1278 118.291 30.2045 119.568 29.713C122.284 28.6714 124.981 27.7078 127.658 26.8224C129.134 26.3371 130.743 26.458 132.13 27.1587C133.517 27.8594 134.569 29.0825 135.055 30.5588C135.54 32.0351 135.419 33.6437 134.718 35.0308C134.018 36.4179 132.795 37.4699 131.318 37.9552C128.826 38.7756 126.316 39.6714 123.787 40.6427C123.115 40.9053 122.399 41.0404 121.678 41.0412Z"
        fill="#D16B67"
    />
    <path d="M146.292 56.6632C148.796 54.1575 147.998 49.3002 144.509 45.8142C141.021 42.3281 136.163 41.5334 133.659 44.0392C131.155 46.5449 131.953 51.4022 135.441 54.8882C138.93 58.3742 143.788 59.169 146.292 56.6632Z" fill="#F6FAFD" />
    <path d="M127.509 61.3833C128.767 60.1244 128.367 57.6846 126.615 55.934C124.863 54.1833 122.423 53.7847 121.165 55.0437C119.907 56.3027 120.307 58.7424 122.059 60.4931C123.811 62.2437 126.251 62.6423 127.509 61.3833Z" fill="#F6FAFD" />
</svg>