<svg id="american-football" width="247" height="204" viewBox="0 0 247 204" aria-hidden="true" fill="none" xmlns="http://www.w3.org/2000/svg">
    <path
        d="M160.74 136.92V148.99L139.021 163.795C137.97 164.202 136.839 164.354 135.718 164.238C134.598 164.123 133.521 163.743 132.575 163.131C131.589 162.516 130.784 161.651 130.243 160.622C129.701 159.594 129.443 158.44 129.495 157.279C129.546 156.118 129.906 154.992 130.537 154.016C131.167 153.04 132.046 152.249 133.083 151.725L160.74 136.92Z"
        fill="#E9EDF5"
    />
    <path d="M125.582 97.8574C129.897 97.8574 133.395 94.3596 133.395 90.0449C133.395 85.7302 129.897 82.2324 125.582 82.2324C121.267 82.2324 117.77 85.7302 117.77 90.0449C117.77 94.3596 121.267 97.8574 125.582 97.8574Z" fill="#E9EDF5" />
    <path
        d="M244.723 145.865C244.724 146.411 244.631 146.953 244.449 147.467L238.863 164.264V169.459C238.866 171.289 238.226 173.061 237.055 174.468C235.884 175.874 234.257 176.825 232.457 177.154L195.895 183.795V172.076L203.707 152.545L238.082 141.1C238.33 140.994 238.594 140.928 238.863 140.904C239.132 140.84 239.408 140.813 239.684 140.826C241.019 140.829 242.299 141.361 243.243 142.305C244.188 143.25 244.72 144.53 244.723 145.865Z"
        fill="#E9EDF5"
    />
    <path
        d="M52.1836 51.8809L47.8477 47.5059C43.2104 53.4717 39.1554 59.8681 35.7383 66.6074V90.0449L47.457 93.6387V76.2949C47.5102 74.3063 47.955 72.3477 48.7661 70.5312C49.5771 68.7148 50.7385 67.0761 52.1836 65.709C53.1546 64.8378 53.9312 63.7719 54.4628 62.5806C54.9945 61.3893 55.2692 60.0994 55.2692 58.7949C55.2692 57.4904 54.9945 56.2005 54.4628 55.0092C53.9312 53.818 53.1546 52.752 52.1836 51.8809Z"
        fill="#E9EDF5"
    />
    <path
        d="M98.2383 93.9512L74.5664 87.7012L47.457 80.5918V93.6387L72.457 101.334L77.7695 102.975C83.1081 104.637 87.7666 107.98 91.0508 112.506C94.1003 110.577 97.6378 109.56 101.246 109.576H106.051L107.027 108.99L98.2383 93.9512Z"
        fill="#9A1C20"
    />
    <path
        d="M107.027 108.99L125.582 140.826L113.863 148.639L78.707 155.045V149.381C78.7155 146.762 79.3772 144.186 80.6323 141.888C81.8873 139.589 83.696 137.64 85.8945 136.217L89.5273 133.912C92.2039 131.244 93.873 127.73 94.2505 123.97C94.628 120.209 93.6905 116.434 91.5977 113.287C91.4023 113.014 91.2461 112.74 91.0508 112.506C94.1003 110.577 97.6378 109.56 101.246 109.576H106.051L107.027 108.99Z"
        fill="#9A1C20"
    />
    <path
        d="M131.518 174.029L113.861 164.107C108.783 161.139 108.861 153.561 113.861 148.639L164.643 117.389H223.236C240.307 117.389 245.463 108.404 246.479 106.178C246.074 112.922 244.934 119.602 243.08 126.1L238.861 140.826V140.904C238.592 140.928 238.329 140.994 238.08 141.1L203.705 152.545L144.174 175.084C142.112 175.826 139.915 176.116 137.731 175.934C135.547 175.752 133.428 175.102 131.518 174.029ZM132.572 163.131C133.518 163.743 134.595 164.123 135.715 164.238C136.836 164.354 137.967 164.202 139.018 163.795L160.736 148.99V136.92L133.08 151.725C132.043 152.249 131.164 153.04 130.534 154.016C129.903 154.992 129.543 156.118 129.492 157.279C129.44 158.44 129.698 159.594 130.239 160.622C130.781 161.651 131.586 162.516 132.572 163.131Z"
        fill="#85181C"
    />
    <path
        d="M203.707 152.545L195.895 172.076V179.889C179.645 179.889 163.395 191.178 154.957 198.053C150.783 201.474 145.549 203.338 140.152 203.326H133.395C101.012 203.326 78.707 181.529 78.707 164.264V155.045L113.863 148.639C108.863 153.561 108.785 161.139 113.863 164.107L131.52 174.029C133.43 175.102 135.549 175.752 137.733 175.934C139.917 176.116 142.114 175.826 144.176 175.084L203.707 152.545Z"
        fill="#9A1C20"
    />
    <path
        d="M74.5664 87.7012L47.457 80.5918V76.2949C47.5102 74.3063 47.955 72.3477 48.7661 70.5312C49.5771 68.7148 50.7385 67.0761 52.1836 65.709C53.1546 64.8378 53.9312 63.7719 54.4628 62.5806C54.9945 61.3893 55.2692 60.0994 55.2692 58.7949C55.2692 57.4904 54.9945 56.2005 54.4628 55.0092C53.9312 53.818 53.1546 52.752 52.1836 51.8809L47.8477 47.5059C62.7695 27.8965 91.9102 0.201172 137.301 0.201172C197.77 0.201172 246.676 43.873 246.676 97.8574V100.357C246.676 102.311 246.598 104.225 246.48 106.178C245.465 108.404 240.309 117.389 223.238 117.389H164.645L113.863 148.639L125.582 140.826L107.027 108.99L98.2383 93.9512L74.5664 87.7012ZM133.395 90.0449C133.395 88.4998 132.936 86.9893 132.078 85.7045C131.219 84.4198 129.999 83.4184 128.572 82.8271C127.144 82.2358 125.573 82.0811 124.058 82.3825C122.542 82.684 121.15 83.4281 120.058 84.5207C118.965 85.6133 118.221 87.0053 117.92 88.5208C117.618 90.0363 117.773 91.6071 118.364 93.0346C118.956 94.4622 119.957 95.6823 121.242 96.5408C122.526 97.3992 124.037 97.8574 125.582 97.8574C127.652 97.8512 129.636 97.0262 131.099 95.5624C132.563 94.0986 133.388 92.115 133.395 90.0449Z"
        fill="#9A1C20"
    />
    <path
        d="M160.74 136.92V148.99L139.021 163.795C137.97 164.202 136.839 164.354 135.718 164.238C134.598 164.123 133.521 163.743 132.575 163.131C131.589 162.516 130.784 161.651 130.243 160.622C129.701 159.594 129.443 158.44 129.495 157.279C129.546 156.118 129.906 154.992 130.537 154.016C131.167 153.04 132.046 152.249 133.083 151.725L160.74 136.92Z"
        fill="#CDD2E1"
    />
    <path
        d="M156.834 82.2324C143.384 79.4495 129.444 80.1704 116.353 84.3262C113.957 85.1236 111.769 86.4452 109.947 88.1948C108.126 89.9443 106.718 92.0779 105.824 94.4403C104.931 96.8026 104.576 99.3343 104.785 101.851C104.993 104.368 105.76 106.807 107.029 108.99L125.584 140.826L113.865 148.639L164.646 117.389H223.24C240.31 117.389 245.467 108.404 246.482 106.178C246.6 104.225 246.678 102.311 246.678 100.357V97.8574C246.678 95.3262 246.537 92.8262 246.326 90.3457C223.912 99.1465 195.006 89.1738 156.834 82.2324ZM125.584 97.8574C124.039 97.8574 122.528 97.3992 121.243 96.5408C119.959 95.6823 118.957 94.4622 118.366 93.0346C117.775 91.6071 117.62 90.0363 117.922 88.5208C118.223 87.0053 118.967 85.6133 120.06 84.5207C121.152 83.4281 122.544 82.684 124.06 82.3825C125.575 82.0811 127.146 82.2358 128.574 82.8271C130.001 83.4184 131.221 84.4198 132.08 85.7045C132.938 86.9893 133.396 88.4998 133.396 90.0449C133.39 92.115 132.565 94.0986 131.101 95.5624C129.638 97.0262 127.654 97.8512 125.584 97.8574Z"
        fill="#85181C"
    />
    <path
        d="M52.1836 51.8809L51.3633 51.0449C51.3278 52.3336 51.0376 53.6025 50.5093 54.7785C49.981 55.9544 49.2251 57.0141 48.2852 57.8965C46.8386 59.2629 45.6758 60.9013 44.8634 62.7178C44.051 64.5343 43.605 66.4933 43.5508 68.4824V77.6543C43.5507 78.5992 43.329 79.5309 42.9035 80.3746C42.478 81.2183 41.8606 81.9505 41.1009 82.5123C40.3411 83.0741 39.4602 83.45 38.5289 83.6096C37.5976 83.7693 36.6418 83.7083 35.7383 83.4316V90.0449L47.457 93.6387V76.2949C47.5102 74.3063 47.955 72.3477 48.7661 70.5312C49.5771 68.7148 50.7385 67.0761 52.1836 65.709C53.1546 64.8378 53.9312 63.7719 54.4628 62.5806C54.9945 61.3893 55.2692 60.0994 55.2692 58.7949C55.2692 57.4904 54.9945 56.2005 54.4628 55.0092C53.9312 53.818 53.1546 52.752 52.1836 51.8809Z"
        fill="#CDD2E1"
    />
    <path
        d="M168.549 129.107H227.143C232.767 129.321 238.345 128.008 243.283 125.307C245.016 119.056 246.087 112.641 246.479 106.166C245.463 108.404 240.307 117.389 223.236 117.389H164.643L113.861 148.639C108.861 153.561 108.783 161.139 113.861 164.107L114.865 164.674C115.532 163.054 116.519 161.586 117.768 160.357L168.549 129.107Z"
        fill="#741213"
    />
    <path
        d="M136.99 155.631L160.74 142.916V136.92L133.083 151.725C132.046 152.249 131.167 153.04 130.537 154.016C129.906 154.992 129.546 156.118 129.495 157.279C129.443 158.44 129.701 159.594 130.243 160.622C130.784 161.651 131.589 162.516 132.575 163.131C132.98 163.384 133.409 163.595 133.857 163.76C133.567 163.037 133.411 162.268 133.396 161.49C133.396 160.277 133.732 159.088 134.366 158.053C135 157.019 135.908 156.181 136.99 155.631Z"
        fill="#333940"
    />
    <path
        d="M219.113 166.326L213.578 169.092C212.78 169.489 211.875 169.617 210.998 169.456C210.121 169.296 209.32 168.856 208.714 168.201C208.108 167.547 207.731 166.715 207.638 165.828C207.545 164.941 207.742 164.049 208.199 163.283L217.379 147.994L203.707 152.545L195.895 172.076V183.795L232.457 177.154C234.257 176.825 235.884 175.874 237.055 174.468C238.226 173.062 238.866 171.289 238.863 169.459V164.264H227.848C224.816 164.264 221.825 164.97 219.113 166.326Z"
        fill="#CDD2E1"
    />
    <path d="M81.9844 96.0059L47.457 86.1387V93.6387L72.457 101.334L77.7695 102.975C83.1081 104.637 87.7666 107.98 91.0508 112.506C93.746 110.818 96.8247 109.84 100 109.662C95.9114 103.019 89.4846 98.1478 81.9844 96.0059Z" fill="#741213" />
    <path
        d="M97.9102 138.955C100.165 138.392 102.138 137.03 103.465 135.122C104.792 133.214 105.382 130.89 105.125 128.58L104.461 122.6C103.948 118.01 102.425 113.592 100 109.662C96.8247 109.84 93.746 110.818 91.0508 112.506C91.2461 112.74 91.4023 113.014 91.5977 113.287C93.6905 116.434 94.628 120.209 94.2505 123.97C93.873 127.73 92.2039 131.244 89.5273 133.912L85.8945 136.217C83.696 137.64 81.8873 139.589 80.6323 141.888C79.3772 144.186 78.7155 146.762 78.707 149.381V155.045L90.4258 152.908V148.541C90.4261 146.338 91.1628 144.197 92.5189 142.46C93.8749 140.724 95.7725 139.49 97.9102 138.955Z"
        fill="#741213"
    />
    <path
        d="M189.254 158.014L185.738 165.045C184.914 166.87 184.345 168.799 184.047 170.779C183.894 171.561 183.624 172.316 183.246 173.018C175.299 175.578 167.79 179.339 160.98 184.17L157.035 186.99C148.408 193.232 137.666 195.815 127.145 194.178C93.3555 188.689 90.4258 168.17 90.4258 168.17V152.908L78.707 155.045V164.264C78.707 181.529 101.012 203.326 133.395 203.326H140.152C145.549 203.338 150.783 201.474 154.957 198.053C163.395 191.178 179.645 179.889 195.895 179.889V172.076L203.707 152.545L189.254 158.014Z"
        fill="#741213"
    />
    <path
        d="M125.582 15.8262C178.355 15.8262 222.27 49.0527 232.613 93.334C237.311 92.9401 241.931 91.8882 246.336 90.209C242.031 39.8184 194.934 0.201172 137.301 0.201172C91.9102 0.201172 62.7695 27.8496 47.8477 47.4277L48.9258 48.5137C58.8817 38.2338 70.7912 30.0469 83.955 24.4336C97.1188 18.8204 111.272 15.8939 125.582 15.8262Z"
        fill="#B82126"
    />
    <path
        d="M231.363 141.725L230.852 143.506L238.082 141.1C238.33 140.994 238.594 140.928 238.863 140.904V140.826L243.082 126.1C243.156 125.838 243.211 125.568 243.285 125.318C240.433 126.913 237.319 127.985 234.09 128.486C233.499 132.959 232.588 137.383 231.363 141.725Z"
        fill="#9A1C20"
    />
    <path
        d="M234.957 115.596V115.986C234.957 117.939 234.879 119.854 234.762 121.807C234.633 124.041 234.371 126.264 234.09 128.479C237.319 127.978 240.433 126.905 243.285 125.311C244.133 122.186 244.848 119.061 245.375 115.881C245.414 115.631 245.441 115.381 245.48 115.135C245.695 113.791 245.898 112.443 246.051 111.092C246.238 109.462 246.38 107.829 246.477 106.193C245.286 108.454 243.653 110.451 241.674 112.067C239.694 113.682 237.41 114.882 234.957 115.596Z"
        fill="#85181C"
    />
    <path
        d="M246.324 90.3457C241.936 92.0233 237.334 93.0752 232.652 93.4707C234.182 100.031 234.955 106.746 234.957 113.482V115.596C237.412 114.881 239.698 113.679 241.678 112.06C243.658 110.442 245.291 108.441 246.48 106.178C246.598 104.225 246.676 102.311 246.676 100.357V97.8574C246.676 95.3262 246.535 92.8262 246.324 90.3457Z"
        fill="#9A1C20"
    />
    <path
        d="M125.582 78.3262C123.264 78.3262 120.999 79.0135 119.071 80.3011C117.144 81.5888 115.642 83.419 114.755 85.5603C113.868 87.7017 113.636 90.0579 114.088 92.3311C114.541 94.6044 115.657 96.6924 117.296 98.3313C118.935 99.9702 121.023 101.086 123.296 101.538C125.569 101.991 127.925 101.759 130.067 100.872C132.208 99.9847 134.038 98.4826 135.326 96.5555C136.613 94.6284 137.301 92.3627 137.301 90.0449C137.301 86.9369 136.066 83.9562 133.868 81.7585C131.671 79.5608 128.69 78.3262 125.582 78.3262ZM125.582 97.8574C124.037 97.8574 122.526 97.3992 121.242 96.5408C119.957 95.6823 118.956 94.4622 118.364 93.0346C117.773 91.6071 117.618 90.0363 117.92 88.5208C118.221 87.0053 118.965 85.6132 120.058 84.5206C121.15 83.4281 122.542 82.684 124.058 82.3825C125.573 82.0811 127.144 82.2358 128.572 82.8271C129.999 83.4184 131.219 84.4198 132.078 85.7045C132.936 86.9893 133.395 88.4998 133.395 90.0449C133.388 92.115 132.563 94.0986 131.099 95.5624C129.636 97.0262 127.652 97.8512 125.582 97.8574Z"
        fill="#741213"
    />
    <path
        d="M79.5391 71.5605L59.1758 63.9238C62.7628 53.1789 69.3459 43.683 78.1497 36.5547C86.9535 29.4264 97.6112 24.9627 108.867 23.6894C110.196 23.5014 111.55 23.7077 112.763 24.2827C113.975 24.8577 114.992 25.776 115.688 26.9238L118.926 32.3183C119.446 33.176 119.769 34.1387 119.87 35.1366C119.972 36.1346 119.85 37.1426 119.513 38.0875C119.176 39.0323 118.634 39.8904 117.924 40.5992C117.214 41.3081 116.355 41.85 115.41 42.1855C109.269 44.1246 103.639 47.4145 98.9353 51.8136C94.2313 56.2126 90.5722 61.6093 88.2266 67.6074C87.5943 69.2802 86.3258 70.6348 84.698 71.3755C83.0703 72.1162 81.2157 72.1827 79.5391 71.5605Z"
        fill="#B82126"
    />
    <path
        d="M125.582 93.9512C127.739 93.9512 129.488 92.2023 129.488 90.0449C129.488 87.8876 127.739 86.1387 125.582 86.1387C123.425 86.1387 121.676 87.8876 121.676 90.0449C121.676 92.2023 123.425 93.9512 125.582 93.9512Z"
        fill="#333940"
    />
    <path d="M102.145 168.17C104.302 168.17 106.051 166.421 106.051 164.264C106.051 162.106 104.302 160.357 102.145 160.357C99.9872 160.357 98.2383 162.106 98.2383 164.264C98.2383 166.421 99.9872 168.17 102.145 168.17Z" fill="#E9EDF5" />
    <path d="M109.957 179.889C112.114 179.889 113.863 178.14 113.863 175.982C113.863 173.825 112.114 172.076 109.957 172.076C107.8 172.076 106.051 173.825 106.051 175.982C106.051 178.14 107.8 179.889 109.957 179.889Z" fill="#E9EDF5" />
    <path
        d="M125.582 187.701C127.739 187.701 129.488 185.952 129.488 183.795C129.488 181.638 127.739 179.889 125.582 179.889C123.425 179.889 121.676 181.638 121.676 183.795C121.676 185.952 123.425 187.701 125.582 187.701Z"
        fill="#E9EDF5"
    />
    <path d="M160.738 179.889C162.896 179.889 164.645 178.14 164.645 175.982C164.645 173.825 162.896 172.076 160.738 172.076C158.581 172.076 156.832 173.825 156.832 175.982C156.832 178.14 158.581 179.889 160.738 179.889Z" fill="#E9EDF5" />
    <path
        d="M128.957 138.873L101.613 91.998C101.092 91.1045 100.238 90.4541 99.2383 90.1895L47.457 76.5449L35.7383 73.4629L28.3164 71.5098C28.1942 71.483 28.0863 71.4118 28.0137 71.31C27.9411 71.2081 27.909 71.0829 27.9236 70.9586C27.9382 70.8344 27.9985 70.72 28.0928 70.6378C28.187 70.5555 28.3085 70.5113 28.4336 70.5137H35.7383V66.6074C35.7383 66.6074 36.4453 65.1309 37.8086 62.7012H28.4336C26.414 62.7014 24.4635 63.4365 22.9462 64.7693C21.4289 66.1021 20.4483 67.9415 20.1877 69.9441C19.927 71.9468 20.404 73.9759 21.5296 75.6527C22.6552 77.3295 24.3525 78.5394 26.3047 79.0566L35.7383 81.541L47.457 84.623L95.6797 97.3145L120.355 139.615L112.367 144.939L70.5469 152.545H63C41.9688 152.58 13.4141 152.611 7.80078 150.475C7.35124 149.755 6.67979 149.202 5.8879 148.898C5.09602 148.594 4.22673 148.556 3.4114 148.79C2.59606 149.024 1.87899 149.517 1.36855 150.194C0.858108 150.872 0.582028 151.697 0.582031 152.545C0.609136 153.097 0.707611 153.643 0.875 154.17C0.923806 154.316 0.982537 154.458 1.05078 154.596C3.37109 159.393 12.0938 160.357 58.1016 160.357H70.8945C71.1264 160.358 71.3579 160.337 71.5859 160.295L114.555 152.482C115.079 152.386 115.579 152.184 116.023 151.889L127.742 144.076C128.568 143.525 129.153 142.681 129.378 141.715C129.604 140.748 129.453 139.732 128.957 138.873Z"
        fill="#CDD2E1"
    />
    <path
        d="M4.48828 148.639C5.1508 148.639 5.80244 148.807 6.38191 149.128C6.96138 149.45 7.44965 149.913 7.80078 150.475C7.96094 150.537 8.19141 150.588 8.39453 150.646V143.404C8.39565 142.965 8.46686 142.528 8.60547 142.111C8.83532 141.463 9.22992 140.886 9.75045 140.437C10.271 139.988 10.8995 139.682 11.5742 139.549L64.1445 129.709L65.4062 121.506L10.1094 131.873C8.08078 132.271 6.19178 133.193 4.63054 134.548C3.06929 135.903 1.89028 137.643 1.21094 139.596C0.797346 140.823 0.584969 142.109 0.582031 143.404L0.582031 152.545C0.582031 151.509 0.993582 150.515 1.72615 149.783C2.45871 149.05 3.45228 148.639 4.48828 148.639Z"
        fill="#AFB4C8"
    />
    <path
        d="M59.4297 160.357L55.7383 184.354L22.5352 190.377C21.8754 190.502 21.1942 190.449 20.5619 190.223C19.9295 189.997 19.3688 189.606 18.9375 189.092C18.5365 188.659 18.248 188.135 18.0977 187.564L10.2617 158.912C4.28906 158.041 2.0625 156.682 1.05078 154.592C0.982537 154.454 0.923806 154.312 0.875 154.166C0.851563 154.104 0.835937 153.998 0.8125 153.92L10.5781 189.568C11.0357 191.313 11.9081 192.921 13.1211 194.256C14.2056 195.507 15.5457 196.51 17.0511 197.199C18.5566 197.888 20.1922 198.245 21.8477 198.248C22.5485 198.25 23.2481 198.187 23.9375 198.061L59.875 191.537C60.6743 191.391 61.4083 191 61.9747 190.417C62.5412 189.835 62.9118 189.09 63.0352 188.287L67.3359 160.357H59.4297Z"
        fill="#BEC3D2"
    />
    <path d="M70.1641 90.5957L65.4258 121.521L64.1641 129.705L60.6328 152.545H68.5508L77.7734 92.5996L70.1641 90.5957Z" fill="#BEC3D2" />
    <path
        d="M45.7109 172.486L17.793 186.443L18.0977 187.564C18.248 188.134 18.5365 188.657 18.9375 189.088C19.3683 189.603 19.929 189.994 20.5615 190.22C21.194 190.446 21.8754 190.499 22.5352 190.373L30.1758 188.986L49.1953 179.498C52.5085 177.528 55.3913 174.911 57.6719 171.803L59.4297 160.357H56.2187C53.5941 165.085 50.0159 169.215 45.7109 172.486Z"
        fill="#9DA3B5"
    />
    <path
        d="M100.555 105.67H99.5039C95.5364 105.704 91.6404 106.729 88.17 108.652C84.6996 110.575 81.7649 113.336 79.6328 116.682L71.8203 129.158C70.34 131.535 68.2778 133.496 65.8288 134.854C63.3797 136.212 60.6247 136.923 57.8242 136.92H3.17578C2.94268 136.945 2.71248 136.992 2.48828 137.061C1.96107 137.851 1.53213 138.702 1.21094 139.596C0.797346 140.823 0.584969 142.109 0.582031 143.404L0.582031 143.701C1.28768 144.356 2.21282 144.724 3.17578 144.732H57.8242C61.9493 144.735 66.007 143.685 69.6137 141.683C73.2205 139.681 76.2574 136.793 78.4375 133.291L86.25 120.818C87.5397 118.76 89.3038 117.04 91.3945 115.803C93.8205 114.271 96.6346 113.465 99.5039 113.482H105.113L100.555 105.67Z"
        fill="#CDD2E1"
    />
    <path d="M212.694 44.3839C215.198 41.8782 214.4 37.0209 210.911 33.5349C207.423 30.0488 202.565 29.2541 200.061 31.7599C197.557 34.2656 198.355 39.1229 201.844 42.6089C205.332 46.095 210.19 46.8897 212.694 44.3839Z" fill="#F6FAFD" />
    <path d="M174.388 53.0089C175.646 51.75 175.246 49.3102 173.494 47.5596C171.742 45.8089 169.302 45.4103 168.044 46.6693C166.786 47.9283 167.186 50.368 168.938 52.1187C170.69 53.8693 173.13 54.2679 174.388 53.0089Z" fill="#F6FAFD" />
    <path d="M163.992 41.6621C164.622 41.0318 164.422 39.8113 163.546 38.936C162.67 38.0607 161.45 37.862 160.82 38.4923C160.19 39.1225 160.39 40.343 161.266 41.2183C162.142 42.0937 163.362 42.2923 163.992 41.6621Z" fill="#F6FAFD" />
</svg>