<svg id="badminton" width="251" height="251" viewBox="0 0 251 251" aria-hidden="true" fill="none" xmlns="http://www.w3.org/2000/svg">
    <g clip-path="url(#clip0_2_1064)">
        <path
            d="M117.294 133.541C89.7944 106.002 92.1382 59.0491 122.564 28.6194C152.99 -1.81026 199.943 -4.15401 227.478 23.385C255.013 50.9241 252.634 97.8772 222.244 128.307C191.853 158.737 144.83 161.084 117.294 133.541ZM109.677 78.346C109.019 83.5614 109.045 88.8405 109.755 94.0491C110.47 99.4308 111.957 104.681 114.169 109.639C119.521 121.697 129.156 131.341 141.208 136.705C146.168 138.9 151.417 140.373 156.794 141.08C162.002 141.79 167.28 141.817 172.494 141.158C177.868 140.546 183.144 139.26 188.197 137.33C193.689 135.279 198.91 132.563 203.744 129.244C211.409 123.986 218.032 117.35 223.275 109.674C226.609 104.85 229.326 99.627 231.361 94.1272C233.248 89.0657 234.507 83.792 235.111 78.4241C235.769 73.2217 235.743 67.9556 235.033 62.76C234.314 57.3586 232.801 52.0932 230.54 47.135C227.906 41.2064 224.198 35.8162 219.603 31.2366C215.016 26.6423 209.63 22.9227 203.708 20.26C198.732 18.0654 193.473 16.5795 188.083 15.846C182.901 15.1363 177.648 15.11 172.458 15.7679C167.076 16.3528 161.788 17.6127 156.72 19.5179C146.847 23.2263 137.883 29.007 130.431 36.471C127.168 39.7333 124.212 43.2901 121.603 47.096C118.272 51.9212 115.556 57.144 113.521 62.6429C111.586 67.6952 110.294 72.971 109.677 78.346Z"
            fill="#9A1C20"
        />
        <path d="M64.8359 186.006L67.4531 188.662L62.2188 204.365L46.4766 188.662L62.2188 183.389L64.8359 186.006Z" fill="#DCE1EB" />
        <path d="M229.664 208.897L220.914 217.647L186.621 197.061L209.082 174.6L229.664 208.897Z" fill="#EEF2FA" />
        <path d="M235.055 203.506L229.664 208.897L209.082 174.6L223.219 160.42L234.937 203.389L235.055 203.506Z" fill="#CDD2E1" />
        <path d="M186.621 197.061L220.914 217.647L215.523 223.037L215.406 222.92L172.441 211.201L186.621 197.061Z" fill="#CDD2E1" />
        <path
            d="M229.664 208.897L235.055 203.506L235.172 203.389L242.594 210.811C243.889 212.109 244.916 213.649 245.616 215.343C246.316 217.038 246.675 218.854 246.674 220.688C246.672 222.521 246.309 224.337 245.605 226.03C244.902 227.723 243.872 229.262 242.574 230.557C241.276 231.852 239.736 232.879 238.041 233.579C236.347 234.279 234.531 234.638 232.697 234.637C230.864 234.635 229.048 234.272 227.355 233.568C225.662 232.865 224.123 231.835 222.828 230.537L215.426 223.154L215.543 223.037L220.934 217.647L229.664 208.897Z"
            fill="#B82126"
        />
        <path d="M46.4796 188.643L4.50012 230.627L20.2341 246.359L62.2136 204.375L46.4796 188.643Z" fill="#B82126" />
        <path
            d="M214.356 120.438C240.435 94.3578 242.785 54.4239 219.604 31.2426C196.422 8.06134 156.488 10.411 130.409 36.4907C104.329 62.5704 101.979 102.504 125.161 125.686C148.342 148.867 188.276 146.517 214.356 120.438Z"
            fill="#FAFCFF"
        />
        <path
            d="M114.723 130.666C114.664 130.717 114.586 130.736 114.531 130.791L62.0625 183.26C61.9961 183.326 61.9727 183.42 61.9102 183.49L62.2188 183.389L64.8359 186.006L67.4531 188.662L67.3789 188.936C67.4453 188.877 67.5352 188.854 67.6016 188.787L120.055 136.314C120.109 136.26 120.129 136.186 120.18 136.127C119.215 135.268 118.227 134.467 117.293 133.541C116.359 132.615 115.574 131.627 114.723 130.666Z"
            fill="#7E8596"
        />
        <path
            d="M222.363 28.4082C197.703 3.74024 155.211 6.09181 127.644 33.6543C100.078 61.2168 97.7341 103.705 122.402 128.389C128.01 133.907 134.658 138.256 141.961 141.185C149.263 144.114 157.074 145.564 164.941 145.451C184.6 145.203 203.36 137.18 217.121 123.139C244.675 95.5762 247.031 53.0723 222.363 28.4082ZM214.359 120.361C188.281 146.443 148.343 148.791 125.168 125.611C101.992 102.432 104.332 62.4942 130.41 36.416C156.488 10.3379 196.425 7.98634 219.601 31.1699C242.777 54.3535 240.425 94.2832 214.355 120.361H214.359Z"
            fill="#741213"
        />
        <path
            d="M234.957 76.4356H221.285V64.7168H234.957C235.029 64.7062 235.101 64.6919 235.172 64.6738C235.035 63.377 234.855 62.0918 234.637 60.8106H221.285V49.0918H231.051C231.133 49.0809 231.214 49.0639 231.293 49.041C230.766 47.7402 230.227 46.4473 229.598 45.1855H221.285V33.127C220.719 32.502 220.207 31.8457 219.602 31.2441C218.996 30.6426 218.344 30.127 217.719 29.5605H205.66V21.248C204.398 20.6191 203.105 20.0762 201.805 19.5527C201.782 19.6321 201.765 19.713 201.754 19.7949V29.5605H190.035V16.209C188.754 15.9902 187.469 15.8184 186.172 15.6738C186.154 15.7446 186.139 15.8164 186.129 15.8887V29.5605H174.41V15.8887C174.397 15.7844 174.376 15.6812 174.348 15.5801C173.066 15.6895 171.785 15.7988 170.504 15.9707V29.5605H158.785V18.8066C157.473 19.248 156.176 19.7676 154.879 20.291V29.5605H143.16V26.3301C141.84 27.1699 140.535 28.0488 139.254 28.9863V29.5605H138.5C137.031 30.6621 135.59 31.8105 134.184 33.041C134.516 33.3098 134.928 33.4596 135.355 33.4668H139.262V45.1855H127.543V43.2324C127.54 42.7873 127.383 42.357 127.098 42.0151C126.813 41.6731 126.418 41.4407 125.98 41.3574C125.152 42.3418 124.418 43.3691 123.637 44.3848V45.1855H123.027C122.176 46.347 121.363 47.5189 120.59 48.7012C120.904 48.9431 121.287 49.0798 121.684 49.0918H123.637V60.8106H114.254C113.77 62.0059 113.266 63.1934 112.852 64.4043C113.152 64.6021 113.503 64.7105 113.863 64.7168H123.629V76.4356H109.957H109.922C109.734 77.7051 109.629 78.9746 109.531 80.2441C109.669 80.2931 109.812 80.3258 109.957 80.3418H123.629V92.0606H109.957C109.831 92.0732 109.707 92.0981 109.586 92.1348C109.719 93.4238 109.887 94.6973 110.102 95.9668H123.629V107.686H113.863C113.715 107.697 113.57 107.727 113.43 107.775C113.945 109.064 114.469 110.346 115.086 111.592H123.629V123.963C124.148 124.533 124.613 125.135 125.164 125.682C125.715 126.229 126.312 126.697 126.883 127.217H139.254V135.76C140.484 136.369 141.754 136.885 143.023 137.4C143.108 137.179 143.154 136.946 143.16 136.709V127.217H154.879V140.744C156.148 140.959 157.422 141.135 158.711 141.26C158.748 141.139 158.772 141.014 158.785 140.889V127.217H170.504V140.889C170.516 141.039 170.546 141.187 170.594 141.33C171.863 141.217 173.133 141.111 174.402 140.939V140.904V127.217H186.121V136.982C186.13 137.337 186.239 137.682 186.434 137.979C187.645 137.564 188.832 137.061 190.027 136.576V127.217H201.746V129.17C201.758 129.567 201.895 129.949 202.137 130.264C203.329 129.482 204.501 128.67 205.652 127.826V127.217H206.434C207.449 126.436 208.477 125.713 209.461 124.873C209.378 124.436 209.145 124.041 208.803 123.756C208.461 123.471 208.031 123.314 207.586 123.311H205.633V111.592H217.352V113.545C217.356 113.99 217.514 114.419 217.799 114.761C218.083 115.102 218.477 115.335 218.914 115.42C219.75 114.42 220.477 113.377 221.258 112.346V111.592H221.832C222.687 110.42 223.492 109.248 224.266 108.037C223.964 107.823 223.608 107.701 223.238 107.686H221.285V95.9668H230.555C231.043 94.752 231.543 93.5449 231.961 92.3145C231.684 92.1542 231.371 92.0668 231.051 92.0606H221.285V80.3418H234.859C235.047 79.0606 235.156 77.7793 235.25 76.4981C235.154 76.4701 235.056 76.4492 234.957 76.4356ZM139.254 123.311H127.535V111.592H139.254V123.311ZM139.254 107.686H127.535V95.9668H139.254V107.686ZM139.254 92.0606H127.535V80.3418H139.254V92.0606ZM139.254 76.4356H127.535V64.7168H139.254V76.4356ZM139.254 60.8106H127.535V49.0918H139.254V60.8106ZM154.879 123.311H143.16V111.592H154.879V123.311ZM154.879 107.686H143.16V95.9668H154.879V107.686ZM154.879 92.0606H143.16V80.3418H154.879V92.0606ZM154.879 76.4356H143.16V64.7168H154.879V76.4356ZM154.879 60.8106H143.16V49.0918H154.879V60.8106ZM154.879 45.1855H143.16V33.4668H154.879V45.1855ZM170.504 123.311H158.785V111.592H170.504V123.311ZM170.504 107.686H158.785V95.9668H170.504V107.686ZM170.504 92.0606H158.785V80.3418H170.504V92.0606ZM170.504 76.4356H158.785V64.7168H170.504V76.4356ZM170.504 60.8106H158.785V49.0918H170.504V60.8106ZM170.504 45.1855H158.785V33.4668H170.504V45.1855ZM186.129 123.311H174.41V111.592H186.129V123.311ZM186.129 107.686H174.41V95.9668H186.129V107.686ZM186.129 92.0606H174.41V80.3418H186.129V92.0606ZM186.129 76.4356H174.41V64.7168H186.129V76.4356ZM186.129 60.8106H174.41V49.0918H186.129V60.8106ZM186.129 45.1855H174.41V33.4668H186.129V45.1855ZM201.754 123.311H190.035V111.592H201.754V123.311ZM201.754 107.686H190.035V95.9668H201.754V107.686ZM201.754 92.0606H190.035V80.3418H201.754V92.0606ZM201.754 76.4356H190.035V64.7168H201.754V76.4356ZM201.754 60.8106H190.035V49.0918H201.754V60.8106ZM201.754 45.1855H190.035V33.4668H201.754V45.1855ZM217.379 107.686H205.66V95.9668H217.379V107.686ZM217.379 92.0606H205.66V80.3418H217.379V92.0606ZM217.379 76.4356H205.66V64.7168H217.379V76.4356ZM217.379 60.8106H205.66V49.0918H217.379V60.8106ZM217.379 45.1855H205.66V33.4668H217.379V45.1855Z"
            fill="#7E8596"
        />
        <path d="M64.8359 186.01L54.3398 196.506L62.2188 204.365L67.4531 188.662L64.8359 186.01Z" fill="#CDD2E1" />
        <path
            d="M25.6367 225.209C24.1717 226.674 22.1849 227.497 20.1133 227.497C18.0417 227.497 16.0549 226.674 14.5898 225.209L12.2461 222.865L4.48828 230.615L20.2305 246.358L62.2188 204.365L54.3398 196.506L25.6367 225.209Z"
            fill="#85181C"
        />
        <path
            d="M232.668 217.397L240.926 209.139L235.172 203.389L235.055 203.506L229.664 208.897L220.914 217.647L215.523 223.037L215.406 223.154L222.828 230.537C224.756 232.47 227.209 233.794 229.882 234.346C232.555 234.898 235.332 234.653 237.867 233.643L232.668 228.444C231.203 226.978 230.381 224.992 230.381 222.92C230.381 220.848 231.203 218.862 232.668 217.397Z"
            fill="#9A1C20"
        />
        <path d="M205.379 208.322L220.914 217.647L229.664 208.897L225.055 201.217C219.51 205.781 212.56 208.291 205.379 208.322Z" fill="#CDD2E1" />
        <path d="M232.43 194.197L227.445 199.182C226.684 199.901 225.886 200.58 225.055 201.217L229.664 208.897L235.055 203.506L234.957 203.389L232.43 194.197Z" fill="#9DA3B5" />
        <path d="M191.375 205.033L182.883 200.787L172.457 211.201L215.426 222.92L215.543 223.037L220.934 217.647L205.398 208.322C200.531 208.335 195.729 207.208 191.375 205.033Z" fill="#9DA3B5" />
    </g>
    <defs>
        <clipPath id="clip0_2_1064">
            <rect width="250" height="250" fill="white" transform="translate(0.582031 0.263672)" />
        </clipPath>
    </defs>
</svg>