<svg id="baseball" width="251" height="251" viewBox="0 0 251 251" aria-hidden="true" fill="none" xmlns="http://www.w3.org/2000/svg">
    <path
        d="M48.1244 224.513C50.2586 227.144 51.3438 230.471 51.1707 233.853C50.9976 237.236 49.5785 240.435 47.1869 242.834V242.873C44.6156 245.425 41.1397 246.857 37.5169 246.857C33.8941 246.857 30.4182 245.425 27.847 242.873L8.51107 223.498C7.23623 222.231 6.2245 220.725 5.5341 219.066C4.84371 217.406 4.48828 215.627 4.48828 213.83C4.48828 212.033 4.84371 210.253 5.5341 208.594C6.2245 206.935 7.23623 205.428 8.51107 204.162C10.9096 201.77 14.1086 200.351 17.4914 200.178C20.8741 200.005 24.2012 201.09 26.8314 203.224L27.3392 203.693L47.6517 224.006L48.1244 224.513Z"
        fill="#EEF2FA"
    />
    <path
        d="M236.453 14.904C239.928 18.3769 242.629 22.5446 244.381 27.1342C246.133 31.7238 246.896 36.6317 246.619 41.5364C246.343 46.4412 245.033 51.2323 242.776 55.5958C240.519 59.9593 237.366 63.7968 233.523 66.8571L95.8594 179.904C91.0547 183.732 86.4063 187.717 81.875 191.935L81.7188 191.74L59.6094 169.631L59.4141 169.474C63.6328 164.943 67.6172 160.295 71.4453 155.49L184.496 17.8337C187.554 13.9876 191.391 10.8315 195.755 8.57259C200.118 6.31364 204.91 5.00284 209.816 4.72619C214.722 4.44954 219.631 5.21329 224.221 6.96734C228.811 8.72139 232.978 11.4261 236.449 14.904H236.453Z"
        fill="#EEF2FA"
    />
    <path d="M48.5504 180.686L37.4961 191.74L59.6066 213.851L70.6609 202.797L48.5504 180.686Z" fill="#EEF2FA" />
    <path
        d="M59.6094 213.85L48.5547 224.904L48.125 224.514L47.6563 224.006C47.5 223.85 47.3438 223.654 47.1875 223.498L27.8477 204.162C27.6914 204.006 27.4961 203.85 27.3398 203.693L26.832 203.225L26.4414 202.795L37.4961 191.74L59.6094 213.85Z"
        fill="#B82126"
    />
    <path d="M81.7187 191.74L81.875 191.936C79.2578 194.279 76.6797 196.74 74.1797 199.24L70.6641 202.795L48.5547 180.686L52.1094 177.17C54.6094 174.67 57.0703 172.092 59.4141 169.475L59.6094 169.631L81.7187 191.74Z" fill="#B82126" />
    <path
        d="M35.9329 235.06L16.597 215.685C14.7149 213.825 13.4189 211.454 12.8691 208.865C12.3193 206.277 12.5398 203.584 13.5033 201.119C11.7334 201.789 10.1253 202.826 8.78451 204.162C7.50967 205.428 6.49794 206.935 5.80754 208.594C5.11715 210.253 4.76172 212.033 4.76172 213.83C4.76172 215.627 5.11715 217.406 5.80754 219.066C6.49794 220.725 7.50967 222.231 8.78451 223.498L28.1204 242.873C30.691 245.425 34.1663 246.857 37.7884 246.857C41.4106 246.857 44.8858 245.425 47.4564 242.873V242.834C48.7923 241.495 49.8294 239.888 50.4994 238.119C48.0348 239.067 45.3489 239.282 42.7647 238.74C40.1805 238.197 37.8081 236.919 35.9329 235.06Z"
        fill="#DCE1EB"
    />
    <path
        d="M236.727 14.9043C231.953 10.1255 225.891 6.84064 219.281 5.45117C219.895 5.98633 220.516 6.50977 221.102 7.0957C224.576 10.5686 227.278 14.7364 229.03 19.3262C230.782 23.916 231.545 28.8242 231.268 33.7291C230.991 38.6341 229.681 43.4252 227.423 47.7886C225.166 52.152 222.012 55.9892 218.168 59.0488L80.5078 172.092C77.1484 174.768 73.8672 177.561 70.6641 180.416L81.9922 191.744L82.1484 191.939C86.6836 187.721 91.332 183.736 96.1367 179.908L233.785 66.8574C237.629 63.7984 240.784 59.9616 243.042 55.5985C245.3 51.2354 246.611 46.4445 246.889 41.5395C247.167 36.6345 246.405 31.7262 244.654 27.1361C242.902 22.546 240.201 18.3777 236.727 14.9043Z"
        fill="#DCE1EB"
    />
    <path d="M58.8242 191.428L55.3086 194.982L49.0586 201.787C48.8486 201.995 48.6269 202.191 48.3945 202.373L59.8789 213.85L70.9336 202.795L59.2148 191.076C59.082 191.189 58.9492 191.303 58.8242 191.428Z" fill="#DCE1EB" />
    <path
        d="M37.7852 202.029L32.6328 196.877L26.7148 202.795L27.1055 203.225L27.6133 203.693C27.7695 203.85 27.9648 204.006 28.1211 204.162L47.457 223.498C47.6133 223.654 47.7695 223.85 47.9258 224.006L48.3945 224.514L48.8242 224.904L59.8789 213.85L48.4023 202.373C46.918 203.671 44.9966 204.357 43.026 204.293C41.0554 204.23 39.1824 203.42 37.7852 202.029Z"
        fill="#85181C"
    />
    <path
        d="M70.6641 180.416C69.2812 181.646 67.8828 182.854 66.5195 184.123C64.0352 186.35 61.5898 188.693 59.207 191.068L70.9258 202.787L74.4414 199.232C76.9414 196.732 79.5195 194.271 82.1367 191.928L81.9805 191.732L70.6641 180.416Z"
        fill="#85181C"
    />
    <path
        d="M207.887 160.92L208.16 161.193C204.534 164.821 200.229 167.7 195.49 169.663C190.752 171.627 185.672 172.638 180.543 172.638C175.413 172.638 170.334 171.627 165.596 169.663C160.857 167.7 156.552 164.821 152.926 161.193L153.199 160.92C153.199 137.482 168.824 137.482 168.824 129.67C168.824 122.091 165.152 110.88 161.402 99.5524C167.241 96.2492 173.835 94.5132 180.543 94.5132C187.251 94.5132 193.845 96.2492 199.684 99.5524C195.934 110.88 192.262 122.091 192.262 129.67C192.262 137.482 207.887 137.482 207.887 160.92Z"
        fill="#EEF2FA"
    />
    <path
        d="M199.684 99.5527C204.939 102.504 209.44 106.632 212.833 111.613C216.226 116.595 218.42 122.295 219.241 128.266C220.062 134.238 219.489 140.318 217.566 146.031C215.644 151.744 212.424 156.933 208.16 161.193L207.887 160.92C207.887 137.482 192.262 137.482 192.262 129.67C192.262 122.092 195.934 110.881 199.684 99.5527Z"
        fill="#E9EDF5"
    />
    <path
        d="M161.401 99.5527C165.151 110.881 168.823 122.092 168.823 129.67C168.823 137.482 153.198 137.482 153.198 160.92L152.925 161.193C148.661 156.933 145.441 151.744 143.519 146.031C141.596 140.318 141.023 134.238 141.844 128.266C142.665 122.295 144.859 116.595 148.252 111.613C151.645 106.632 156.146 102.504 161.401 99.5527Z"
        fill="#E9EDF5"
    />
    <path
        d="M164.703 97.9512C163.582 98.4512 162.465 98.9512 161.402 99.5527C160.155 100.266 158.949 101.049 157.789 101.896C161.082 111.857 164.645 122.861 164.645 129.67C164.645 130.643 163.609 131.643 161.246 133.689C157.658 136.418 154.718 139.905 152.635 143.902C150.553 147.899 149.379 152.307 149.199 156.811C150.333 158.36 151.579 159.825 152.926 161.193C153.801 162.068 154.712 162.902 155.66 163.693C156.029 163.332 156.323 162.9 156.524 162.424C156.725 161.948 156.83 161.437 156.832 160.92C156.832 147.846 161.91 143.463 166.359 139.596C168.07 138.521 169.51 137.066 170.567 135.345C171.625 133.624 172.272 131.682 172.457 129.67C172.457 121.35 168.582 109.646 164.754 98.0996C164.734 98.0488 164.723 98.002 164.703 97.9512Z"
        fill="#9A1C20"
    />
    <path
        d="M199.293 133.689C196.949 131.643 195.895 130.643 195.895 129.67C195.895 122.748 199.578 111.479 202.84 101.611C201.809 100.893 200.781 100.17 199.684 99.5527C198.463 98.8771 197.207 98.2668 195.922 97.7246C195.867 97.8848 195.801 98.0723 195.703 98.3262C191.957 109.646 188.082 121.35 188.082 129.67C188.268 131.682 188.914 133.624 189.972 135.345C191.029 137.066 192.469 138.521 194.18 139.596C198.629 143.463 203.707 147.846 203.707 160.92C203.712 161.491 203.845 162.055 204.096 162.568C204.347 163.082 204.709 163.533 205.156 163.889C206.202 163.041 207.205 162.142 208.16 161.193C209.317 160.02 210.397 158.774 211.395 157.463C211.299 152.845 210.161 148.308 208.065 144.191C205.97 140.074 202.971 136.484 199.293 133.689Z"
        fill="#9A1C20"
    />
    <path
        d="M141.207 35.9199H63.082C60.9247 35.9199 59.1758 37.6688 59.1758 39.8262C59.1758 41.9835 60.9247 43.7324 63.082 43.7324H141.207C143.364 43.7324 145.113 41.9835 145.113 39.8262C145.113 37.6688 143.364 35.9199 141.207 35.9199Z"
        fill="#9A1C20"
    />
    <path
        d="M106.051 74.9824H27.9258C25.7684 74.9824 24.0195 76.7313 24.0195 78.8887C24.0195 81.046 25.7684 82.7949 27.9258 82.7949H106.051C108.208 82.7949 109.957 81.046 109.957 78.8887C109.957 76.7313 108.208 74.9824 106.051 74.9824Z"
        fill="#9A1C20"
    />
    <path
        d="M125.582 55.4512H70.8945C68.7372 55.4512 66.9883 57.2001 66.9883 59.3574C66.9883 61.5148 68.7372 63.2637 70.8945 63.2637H125.582C127.739 63.2637 129.488 61.5148 129.488 59.3574C129.488 57.2001 127.739 55.4512 125.582 55.4512Z"
        fill="#9A1C20"
    />
    <path
        d="M55.2695 55.4512H51.3633C49.2059 55.4512 47.457 57.2001 47.457 59.3574C47.457 61.5148 49.2059 63.2637 51.3633 63.2637H55.2695C57.4269 63.2637 59.1758 61.5148 59.1758 59.3574C59.1758 57.2001 57.4269 55.4512 55.2695 55.4512Z"
        fill="#9A1C20"
    />
    <path
        d="M205.594 147.639C198.609 153.614 189.738 156.93 180.546 157.001C171.354 157.072 162.433 153.895 155.355 148.029C153.83 152.152 153.099 156.526 153.199 160.92L152.926 161.193C156.552 164.822 160.857 167.7 165.596 169.664C170.334 171.628 175.413 172.638 180.543 172.638C185.672 172.638 190.752 171.628 195.49 169.664C200.229 167.7 204.534 164.822 208.16 161.193L207.887 160.92C208.002 156.385 207.223 151.872 205.594 147.639Z"
        fill="#DCE1EB"
    />
    <path
        d="M218.625 125.256C216.959 133.984 212.361 141.881 205.594 147.639C207.223 151.872 208.002 156.385 207.887 160.92L208.16 161.193C212.831 156.598 216.246 150.881 218.078 144.589C219.91 138.297 220.099 131.641 218.625 125.256Z"
        fill="#DCE1EB"
    />
    <path
        d="M155.356 148.029C148.712 142.52 144.083 134.965 142.192 126.544C140.973 132.757 141.316 139.175 143.189 145.222C145.063 151.27 148.409 156.757 152.926 161.193L153.199 160.919C153.099 156.525 153.831 152.151 155.356 148.029Z"
        fill="#DCE1EB"
    />
    <path
        d="M152.145 145.006C150.476 148.736 149.483 152.733 149.211 156.811C150.341 158.36 151.583 159.824 152.926 161.193C153.801 162.068 154.712 162.902 155.66 163.693C156.029 163.332 156.323 162.9 156.524 162.424C156.725 161.948 156.83 161.437 156.832 160.92C156.755 157.325 157.284 153.742 158.395 150.322C156.132 148.773 154.037 146.991 152.145 145.006Z"
        fill="#85181C"
    />
    <path
        d="M202.145 150.322C203.256 153.742 203.784 157.325 203.707 160.92C203.712 161.491 203.845 162.054 204.096 162.568C204.347 163.082 204.709 163.533 205.156 163.889C206.202 163.041 207.205 162.142 208.16 161.193C209.317 160.02 210.397 158.774 211.395 157.463C211.183 153.156 210.175 148.926 208.422 144.986C206.521 146.979 204.417 148.768 202.145 150.322Z"
        fill="#85181C"
    />
    <path
        d="M166.359 139.596C168.07 138.521 169.51 137.066 170.567 135.345C171.625 133.624 172.272 131.682 172.457 129.67C172.457 121.35 168.582 109.646 164.754 98.0996C164.754 98.0488 164.723 98.002 164.703 97.9512C163.582 98.4512 162.465 98.9512 161.402 99.5527C160.155 100.266 158.949 101.049 157.789 101.896C161.082 111.857 164.645 122.861 164.645 129.67C164.645 130.643 163.609 131.643 161.246 133.689C157.388 136.725 154.272 140.599 152.133 145.018C154.025 147.003 156.12 148.784 158.383 150.334C159.951 146.061 162.721 142.331 166.359 139.596Z"
        fill="#B82126"
    />
    <path
        d="M208.422 144.986C206.278 140.575 203.156 136.712 199.293 133.689C196.949 131.643 195.895 130.643 195.895 129.67C195.895 122.748 199.578 111.479 202.84 101.611C201.809 100.893 200.781 100.17 199.684 99.5527C198.463 98.8771 197.207 98.2668 195.922 97.7246C195.867 97.8848 195.801 98.0723 195.703 98.3262C191.957 109.646 188.082 121.35 188.082 129.67C188.268 131.682 188.914 133.624 189.972 135.345C191.029 137.066 192.469 138.521 194.18 139.596C197.812 142.33 200.578 146.055 202.145 150.322C204.417 148.768 206.521 146.979 208.422 144.986Z"
        fill="#B82126"
    />
    <path
        d="M161.402 99.5528C161.855 99.2989 162.344 99.1075 162.805 98.8692C157.256 98.0508 151.596 98.437 146.21 100.002C140.823 101.566 135.837 104.272 131.59 107.936C127.343 111.599 123.935 116.135 121.597 121.233C119.26 126.332 118.047 131.874 118.043 137.482C118.043 138.709 118.117 139.92 118.227 141.115L144.008 119.936C147.224 111.304 153.384 104.086 161.402 99.5528Z"
        fill="#DCE1EB"
    />
    <path d="M144.023 119.936L118.242 141.115C118.773 146.812 120.559 152.32 123.473 157.244L142.363 141.729C141.785 139.049 141.489 136.317 141.48 133.576C141.499 128.913 142.36 124.292 144.023 119.936Z" fill="#CDD2E1" />
    <path
        d="M208.788 29.3205C211.292 26.8147 210.494 21.9575 207.005 18.4714C203.517 14.9854 198.659 14.1907 196.155 16.6964C193.651 19.2021 194.449 24.0594 197.938 27.5454C201.426 31.0315 206.284 31.8262 208.788 29.3205Z"
        fill="#F6FAFD"
    />
    <path d="M197.821 41.8531C199.079 40.5941 198.679 38.1543 196.927 36.4037C195.175 34.653 192.735 34.2544 191.477 35.5134C190.219 36.7724 190.619 39.2121 192.371 40.9628C194.123 42.7134 196.563 43.112 197.821 41.8531Z" fill="#F6FAFD" />
    <path d="M178.294 108.261C179.552 107.002 179.152 104.562 177.4 102.811C175.648 101.061 173.208 100.662 171.95 101.921C170.692 103.18 171.092 105.62 172.844 107.371C174.596 109.121 177.036 109.52 178.294 108.261Z" fill="#F6FAFD" />
    <path d="M183.523 100.818C184.153 100.187 183.954 98.967 183.078 98.0917C182.202 97.2163 180.981 97.0177 180.351 97.6479C179.721 98.2782 179.921 99.4987 180.797 100.374C181.673 101.249 182.894 101.448 183.523 100.818Z" fill="#F6FAFD" />
</svg>