<svg id="basketball" width="247" height="247" viewBox="0 0 247 247" aria-hidden="true" fill="none" xmlns="http://www.w3.org/2000/svg">
    <path
        d="M121.582 246.857C188.46 246.857 242.676 192.642 242.676 125.764C242.676 58.8854 188.46 4.66992 121.582 4.66992C54.7038 4.66992 0.488281 58.8854 0.488281 125.764C0.488281 192.642 54.7038 246.857 121.582 246.857Z"
        fill="#EF680C"
    />
    <path
        d="M95.3281 69.6543C108.242 41.9668 138.91 24.4746 178.406 22.6387C179.066 22.5999 179.704 22.392 180.259 22.0348C180.815 21.6777 181.269 21.1834 181.578 20.5996C178.232 18.6855 174.788 16.9303 171.246 15.334C130.719 19.0684 99.5899 38.8965 86.9102 69.3809C77.8672 69.2519 68.7266 69.5723 59.6602 70.3262C64.1215 50.4449 71.9676 31.4786 82.8555 14.2559C83.1598 13.7613 83.3482 13.2042 83.4063 12.6265C83.4645 12.0487 83.391 11.4652 83.1914 10.9199C79.9063 12.0176 76.6836 13.2363 73.5312 14.5996C63.1501 32.0801 55.7088 51.146 51.5039 71.0371L50.8437 71.0996C45.0586 71.7363 39.3516 72.709 33.7539 73.8652C33.4961 72.4941 33.1797 71.1309 32.8047 69.8027C31.2653 64.226 28.7915 58.9507 25.4883 54.2012C25.2286 53.8486 24.9101 53.5434 24.5469 53.2988C22.9219 55.4707 21.3984 57.7168 19.918 59.998C22.2923 63.6685 24.0966 67.6775 25.2695 71.8887C25.6133 73.1191 25.8867 74.3613 26.1133 75.6191C20.3086 77.0684 14.6445 78.8105 9.14844 80.7793C8.04688 83.5137 7.01953 86.3301 6.12109 89.1777C6.97356 89.4902 7.90925 89.4902 8.76172 89.1777C14.6567 86.9461 20.6759 85.0575 26.7891 83.5215C26.7109 100.232 17.0234 117.346 0.574219 129.529C0.664062 132.396 0.816407 135.252 1.09766 138.068C1.78389 138.027 2.44631 137.801 3.01562 137.416C23.418 123.275 35.25 102.197 34.5859 81.6621C39.6328 80.5996 44.7773 79.709 49.9766 79.1074C44.8671 109.304 47.2532 140.293 56.9251 169.352C66.5969 198.41 83.2585 224.648 105.445 245.76C108.82 246.209 112.23 246.541 115.688 246.713C115.735 246.134 115.65 245.551 115.439 245.01C115.227 244.468 114.896 243.982 114.469 243.588C91.7673 223.122 74.669 197.198 64.7949 168.272C54.9207 139.346 52.598 108.378 58.0469 78.3027C66.7578 77.5215 75.5039 77.1309 84.1406 77.166C69.7109 127.104 109.285 187.037 175.066 212.99C182.355 215.857 189.823 218.245 197.422 220.139C199.674 218.316 201.861 216.425 203.98 214.467C203.472 213.868 202.789 213.442 202.027 213.248C193.819 211.332 185.763 208.818 177.922 205.725C114.988 180.889 77.2344 123.842 92.2852 77.3262C153.613 79.4004 208.445 101.982 239.32 138.1C239.977 138.846 240.899 139.306 241.891 139.381C242.234 136.316 242.46 133.217 242.566 130.084C210.379 94.6191 156.023 72.3184 95.3281 69.6543Z"
        fill="#333940"
    />
    <path
        d="M39.5515 71.0764C39.544 57.3727 41.8662 43.7674 46.4187 30.842C31.7006 42.4959 19.8936 57.4121 11.9303 74.4127C3.96698 91.4133 0.0654289 110.033 0.53379 128.8C1.00215 147.567 5.8276 165.969 14.629 182.551C23.4304 199.133 35.9668 213.442 51.2479 224.347C66.5289 235.252 84.1363 242.455 102.679 245.387C121.222 248.319 140.193 246.899 158.093 241.24C175.993 235.581 192.332 225.837 205.819 212.779C219.307 199.721 229.574 183.706 235.809 165.998C217.972 180.137 196.51 188.961 173.885 191.457C151.261 193.953 128.391 190.02 107.9 180.11C87.4097 170.199 70.128 154.712 58.0386 135.427C45.9492 116.141 39.5417 93.838 39.5515 71.0764Z"
        fill="#8D3205"
    />
    <path
        d="M33.7539 73.8652C33.4961 72.4941 33.1797 71.1309 32.8047 69.8027C31.2653 64.226 28.7915 58.9507 25.4883 54.2012C25.2286 53.8486 24.9101 53.5434 24.5469 53.2988C22.9219 55.4707 21.3984 57.7168 19.918 59.998C22.2923 63.6685 24.0966 67.6775 25.2695 71.8887C25.6133 73.1191 25.8867 74.3613 26.1133 75.6191C20.3086 77.0684 14.6445 78.8105 9.14844 80.7793C8.04688 83.5137 7.01953 86.3301 6.12109 89.1777C6.97356 89.4903 7.90925 89.4903 8.76172 89.1777C14.6567 86.9461 20.6759 85.0576 26.7891 83.5215C26.7109 100.232 17.0234 117.346 0.574219 129.529C0.664063 132.396 0.816407 135.252 1.09766 138.068C1.78389 138.027 2.44631 137.801 3.01563 137.416C23.418 123.275 35.25 102.197 34.5859 81.6621C36.3594 81.291 38.1602 80.9707 39.9531 80.6504C39.75 78.0488 39.6211 75.4238 39.5859 72.7793C37.6406 73.127 35.6836 73.4668 33.7539 73.8652Z"
        fill="#23272B"
    />
    <path
        d="M105.449 245.756C108.824 246.205 112.234 246.537 115.691 246.709C115.739 246.13 115.654 245.547 115.443 245.006C115.231 244.464 114.9 243.978 114.473 243.584C82.7315 214.841 62.264 175.734 56.7383 133.271C53.0909 127.184 49.9877 120.787 47.4648 114.154C48.5792 163.975 69.4364 211.312 105.449 245.756Z"
        fill="#23272B"
    />
    <path
        d="M175.066 212.99C182.355 215.857 189.822 218.245 197.422 220.139C199.674 218.316 201.861 216.425 203.98 214.467C203.472 213.868 202.789 213.442 202.027 213.248C193.819 211.332 185.763 208.818 177.922 205.725C168.221 201.904 158.891 197.203 150.047 191.682C144.083 191.167 138.165 190.208 132.344 188.814C145.375 198.844 159.758 206.983 175.066 212.99Z"
        fill="#23272B"
    />
    <path d="M206.532 144.308C230.797 120.043 228.174 78.0799 200.674 50.58C173.174 23.08 131.211 20.4571 106.946 44.7215C82.6819 68.9858 85.3048 110.949 112.805 138.449C140.305 165.949 182.268 168.572 206.532 144.308Z" fill="#F37B0B" />
    <path
        d="M95.3281 69.6543C104.473 50.0488 122.551 35.5879 146.336 28.1465C131.435 28.3111 117.2 34.3477 106.723 44.9453C96.246 55.5429 90.3729 69.8458 90.3789 84.748C90.8739 82.2401 91.5104 79.7622 92.2852 77.3262C142.719 79.0332 188.703 94.6191 220.633 120.17C221.451 117.42 222.073 114.614 222.492 111.775C190.02 87.0371 144.781 71.8223 95.3281 69.6543Z"
        fill="#555A66"
    />
    <path d="M181.354 115.258C183.858 112.752 183.06 107.895 179.572 104.409C176.083 100.923 171.225 100.128 168.721 102.634C166.217 105.14 167.015 109.997 170.504 113.483C173.992 116.969 178.85 117.764 181.354 115.258Z" fill="#F6FAFD" />
    <path d="M143.04 123.883C144.298 122.624 143.898 120.184 142.146 118.434C140.394 116.683 137.954 116.284 136.696 117.543C135.438 118.802 135.838 121.242 137.59 122.993C139.342 124.743 141.782 125.142 143.04 123.883Z" fill="#F6FAFD" />
    <path d="M132.648 112.536C133.278 111.906 133.079 110.685 132.203 109.81C131.327 108.935 130.106 108.736 129.476 109.366C128.846 109.997 129.046 111.217 129.922 112.092C130.798 112.968 132.019 113.166 132.648 112.536Z" fill="#F6FAFD" />
</svg>