<svg id="golf-glove" width="243" height="243" viewBox="0 0 243 243" aria-hidden="true" fill="none" xmlns="http://www.w3.org/2000/svg">
    <path
        d="M94.2389 82.7014V121.764C94.2389 125.908 92.5927 129.882 89.6624 132.812C86.7321 135.743 82.7579 137.389 78.6139 137.389C78.067 137.389 77.5592 137.35 77.0123 137.311C73.1652 136.914 69.6019 135.105 67.0115 132.234C64.4211 129.362 62.9878 125.631 62.9889 121.764V51.4514C62.9769 50.1321 63.1478 48.8175 63.4967 47.5451L63.1061 46.842C70.4452 42.826 78.2337 39.6922 86.3092 37.5061L86.4264 37.9358C88.8047 39.2997 90.78 41.2683 92.152 43.6419C93.5241 46.0155 94.244 48.7098 94.2389 51.4514V82.7014Z"
        fill="#542B29"
    />
    <path d="M117.676 74.8887V94.4199C117.668 97.9358 117.236 101.438 116.387 104.85L94.2383 82.7012V51.4512L117.676 74.8887Z" fill="#EEF2FA" />
    <path d="M62.9889 70.9826V94.4201L43.7311 113.678C43.54 112.477 43.4486 111.262 43.4576 110.045V90.5139L62.9889 70.9826Z" fill="#EEF2FA" />
    <path
        d="M43.7305 113.678C45.6445 126.686 58.0664 136.842 77.0117 137.311C77.5586 137.35 78.0664 137.389 78.6133 137.389C95.0977 137.389 111.738 123.561 116.387 104.85C117.236 101.438 117.668 97.9358 117.676 94.42V16.295C117.665 13.561 118.394 10.8751 119.785 8.52153C121.143 6.13515 123.109 4.15133 125.484 2.77211C127.858 1.3929 130.555 0.667554 133.301 0.669965C135.353 0.667394 137.386 1.06979 139.283 1.85411C141.18 2.63843 142.904 3.78926 144.355 5.24069C145.806 6.69211 146.957 8.41562 147.742 10.3125C148.526 12.2094 148.928 14.2423 148.926 16.295C148.926 12.151 150.572 8.17668 153.502 5.24642C156.432 2.31617 160.407 0.669965 164.551 0.669965C168.695 0.669965 172.669 2.31617 175.599 5.24642C178.53 8.17668 180.176 12.151 180.176 16.295C180.176 12.151 181.822 8.17668 184.752 5.24642C187.682 2.31617 191.657 0.669965 195.801 0.669965C199.945 0.669965 203.919 2.31617 206.849 5.24642C209.78 8.17668 211.426 12.151 211.426 16.295C211.426 12.151 213.072 8.17668 216.002 5.24642C218.932 2.31617 222.907 0.669965 227.051 0.669965C231.195 0.669965 235.169 2.31617 238.099 5.24642C241.03 8.17668 242.676 12.151 242.676 16.295V125.67C242.676 190.436 184.082 242.857 121.582 242.857C62.9883 242.857 0.488282 195.67 0.488282 137.389V49.4981C0.486871 45.2478 1.74614 41.0927 4.10678 37.5583C6.46742 34.0239 9.82334 31.2691 13.75 29.6424C17.6766 28.0157 21.9975 27.5902 26.166 28.4198C30.3345 29.2494 34.1633 31.2967 37.168 34.3028C37.27 34.3969 37.3616 34.5017 37.4414 34.6153C41.3051 38.6056 43.4628 43.9438 43.457 49.4981V110.045C43.448 111.261 43.5394 112.476 43.7305 113.678Z"
        fill="#974D4A"
    />
    <path
        d="M119.785 8.52147C118.394 10.875 117.665 13.561 117.676 16.2949V31.9199C107.099 33.026 96.6166 34.8929 86.3086 37.5058C78.2331 39.692 70.4447 42.8257 63.1055 46.8418C56.2914 50.5482 49.7278 54.6978 43.457 59.2637V49.498C43.4628 43.9437 41.3051 38.6055 37.4414 34.6152C61.4393 17.4283 90.2685 8.29264 119.785 8.52147Z"
        fill="#61312F"
    />
    <path d="M117.676 31.9199V74.8887L94.2383 51.4512C94.2434 48.7095 93.5235 46.0153 92.1514 43.6417C90.7794 41.2681 88.8041 39.2995 86.4258 37.9355L86.3086 37.5059C96.6166 34.8929 107.099 33.0261 117.676 31.9199Z" fill="#80413E" />
    <path d="M94.2383 82.7011L116.387 104.85C111.738 123.561 95.0977 137.389 78.6133 137.389C82.7573 137.389 86.7316 135.742 89.6618 132.812C92.5921 129.882 94.2383 125.908 94.2383 121.764V82.7011Z" fill="#80413E" />
    <path d="M67.5586 132.818C70.1093 135.344 73.4425 136.928 77.0117 137.311C58.0664 136.842 45.6445 126.686 43.7305 113.678L62.9883 94.4199V121.764C62.9957 125.907 64.6381 129.88 67.5586 132.818Z" fill="#80413E" />
    <path d="M63.1055 46.8418L63.4961 47.5449C63.1473 48.8173 62.9764 50.1319 62.9883 51.4512V70.9824L43.457 90.5137V59.2637C49.7278 54.6978 56.2914 50.5483 63.1055 46.8418Z" fill="#80413E" />
    <path
        d="M238.105 5.2403C235.167 2.31983 231.194 0.677382 227.051 0.669983V125.67C227.051 152.606 216.35 178.439 197.304 197.486C178.257 216.532 152.424 227.233 125.488 227.233H117.676C90.7397 227.233 64.9069 216.532 45.8602 197.486C26.8136 178.439 16.1133 152.606 16.1133 125.67V55.3575C16.1133 53.2855 16.9364 51.2983 18.4015 49.8332C19.8666 48.3681 21.8538 47.545 23.9258 47.545C25.9978 47.545 27.9849 48.3681 29.4501 49.8332C30.9152 51.2983 31.7383 53.2855 31.7383 55.3575C31.7383 57.4295 32.5614 59.4166 34.0265 60.8818C35.4916 62.3469 37.4788 63.17 39.5508 63.17H43.457V49.4981C43.4628 43.9438 41.3051 38.6056 37.4414 34.6153C37.3616 34.5017 37.27 34.397 37.168 34.3028C34.1633 31.2967 30.3345 29.2494 26.166 28.4198C21.9975 27.5902 17.6766 28.0157 13.75 29.6424C9.82334 31.2691 6.46742 34.0239 4.10678 37.5583C1.74614 41.0927 0.486871 45.2479 0.488282 49.4981V137.389C0.488282 195.67 62.9883 242.858 121.582 242.858C184.082 242.858 242.676 190.436 242.676 125.67V16.295C242.668 12.1518 241.026 8.17909 238.105 5.2403Z"
        fill="#6E3835"
    />
    <path
        d="M148.927 17.174V94.4201H156.74C158.812 94.4201 160.799 93.597 162.264 92.1319C163.729 90.6668 164.552 88.6796 164.552 86.6076V16.2951C164.552 14.2231 165.375 12.236 166.84 10.7709C168.305 9.30574 170.293 8.48264 172.365 8.48264H178.005C177.345 7.30562 176.539 6.21634 175.607 5.24045C174.911 4.55827 174.155 3.9399 173.349 3.39279C173.083 3.2131 172.786 3.0881 172.509 2.92404C171.951 2.57438 171.372 2.25997 170.775 1.98264C170.419 1.83029 170.04 1.73264 169.673 1.59201C169.108 1.38193 168.531 1.20328 167.947 1.05685C167.532 0.963104 167.103 0.931854 166.681 0.873261C166.105 0.78649 165.525 0.731718 164.943 0.709198C160.637 0.775046 156.534 2.54517 153.532 5.63154C150.53 8.71792 148.874 12.8687 148.927 17.174Z"
        fill="#61312F"
    />
    <path
        d="M180.177 17.174V94.4201H187.99C190.062 94.4201 192.049 93.597 193.514 92.1319C194.979 90.6668 195.802 88.6796 195.802 86.6076V16.2951C195.802 14.2231 196.625 12.236 198.09 10.7709C199.555 9.30574 201.543 8.48264 203.615 8.48264H209.255C208.595 7.30562 207.789 6.21634 206.857 5.24045C206.161 4.55827 205.405 3.9399 204.599 3.39279C204.333 3.2131 204.036 3.0881 203.759 2.92404C203.201 2.57438 202.622 2.25997 202.025 1.98264C201.669 1.83029 201.29 1.73264 200.923 1.59201C200.358 1.38193 199.781 1.20328 199.197 1.05685C198.782 0.963104 198.353 0.931854 197.931 0.873261C197.355 0.78649 196.775 0.731718 196.193 0.709198C191.887 0.775046 187.784 2.54517 184.782 5.63154C181.78 8.71792 180.124 12.8687 180.177 17.174Z"
        fill="#61312F"
    />
    <path
        d="M211.427 17.174V94.4201H219.24C221.312 94.4201 223.299 93.597 224.764 92.1319C226.229 90.6668 227.052 88.6796 227.052 86.6076V16.2951C227.052 14.2231 227.875 12.236 229.34 10.7709C230.805 9.30574 232.793 8.48264 234.865 8.48264H240.505C239.845 7.30562 239.039 6.21634 238.107 5.24045C237.411 4.55827 236.655 3.9399 235.849 3.39279C235.583 3.2131 235.286 3.0881 235.009 2.92404C234.451 2.57438 233.872 2.25997 233.275 1.98264C232.919 1.83029 232.54 1.73264 232.173 1.59201C231.608 1.38193 231.031 1.20328 230.447 1.05685C230.032 0.963104 229.603 0.931854 229.181 0.873261C228.605 0.78649 228.025 0.731718 227.443 0.709198C223.137 0.775046 219.034 2.54517 216.032 5.63154C213.03 8.71792 211.374 12.8687 211.427 17.174Z"
        fill="#61312F"
    />
    <path
        d="M66.8945 145.201H86.4258C98.8578 145.201 110.781 140.263 119.571 131.472C128.362 122.681 133.301 110.758 133.301 98.3262V28.0137C133.305 23.9685 134.88 20.0832 137.695 17.178C140.51 14.2728 144.344 12.5751 148.387 12.4433C147.563 9.07024 145.625 6.07346 142.888 3.93715C140.151 1.80084 136.773 0.649775 133.301 0.669907C130.555 0.667496 127.858 1.39284 125.484 2.77206C123.109 4.15128 121.143 6.1351 119.785 8.52147C118.394 10.875 117.665 13.561 117.676 16.2949V94.4199C117.668 97.9358 117.236 101.438 116.387 104.85C111.738 123.561 95.0977 137.389 78.6133 137.389C78.0664 137.389 77.5586 137.35 77.0117 137.311C58.0664 136.842 45.6445 126.686 43.7305 113.678C43.5394 112.476 43.448 111.261 43.457 110.045V63.1699H39.5508C37.4788 63.1699 35.4916 62.3468 34.0265 60.8817C32.5614 59.4166 31.7383 57.4294 31.7383 55.3574V110.045C31.7383 114.662 32.6476 119.233 34.4144 123.499C36.1812 127.764 38.7707 131.64 42.0353 134.904C48.6284 141.497 57.5705 145.201 66.8945 145.201Z"
        fill="#80413E"
    />
    <path
        d="M107.613 9.07617L106.777 10.748C106.238 11.8276 105.957 13.0178 105.957 14.2246C105.938 16.8276 105.023 19.3446 103.366 21.3522C101.709 23.3598 99.4115 24.7356 96.8594 25.248C84.0918 28.4191 71.608 32.6392 59.5352 37.8652C59.0349 38.073 58.4969 38.1744 57.9553 38.1631C57.4137 38.1518 56.8804 38.028 56.3893 37.7995C55.8981 37.571 55.4599 37.2428 55.1023 36.8359C54.7448 36.4289 54.4758 35.952 54.3125 35.4355C53.466 32.8961 52.4494 30.4165 51.2695 28.0137L49.3711 27.0645C45.3867 29.3535 41.4102 31.8457 37.4414 34.6152C41.3051 38.6055 43.4628 43.9437 43.457 49.4981V59.2637C49.7278 54.6978 56.2914 50.5483 63.1055 46.8418C70.4447 42.8258 78.2331 39.692 86.3086 37.5059C96.6166 34.8929 107.099 33.0261 117.676 31.9199V16.2949C117.665 13.561 118.394 10.875 119.785 8.52148C115.66 8.56055 111.603 8.74544 107.613 9.07617Z"
        fill="#472423"
    />
    <path
        d="M94.2383 121.764V121.1C89.5732 124.084 84.1512 125.67 78.6133 125.67C73.0754 125.67 67.6533 124.084 62.9883 121.1V121.764C62.9872 125.631 64.4205 129.362 67.0109 132.234C69.6013 135.105 73.1646 136.914 77.0117 137.311C77.5586 137.35 78.0664 137.389 78.6133 137.389C82.7573 137.389 86.7316 135.743 89.6618 132.812C92.5921 129.882 94.2383 125.908 94.2383 121.764Z"
        fill="#472423"
    />
    <path d="M105.957 94.4199L116.387 104.85C117.236 101.438 117.668 97.9358 117.676 94.4199V74.8887L105.957 63.1699V94.4199Z" fill="#BEC3D2" />
    <path d="M51.2701 100.28V82.7014L43.4576 90.5139V110.045C43.4486 111.262 43.54 112.477 43.7311 113.678L51.8678 105.541C51.4724 103.815 51.2719 102.05 51.2701 100.28Z" fill="#BEC3D2" />
    <path d="M105.957 33.5176V63.1699L117.676 74.8887V31.9199C113.504 32.4355 109.633 32.959 105.957 33.5176Z" fill="#542B29" />
    <path
        d="M105.957 100.279C105.907 104.454 104.808 108.549 102.76 112.188C100.712 115.826 97.7815 118.891 94.2383 121.1V121.764C94.2383 125.908 92.5921 129.882 89.6618 132.812C86.7316 135.742 82.7573 137.389 78.6133 137.389C95.0977 137.389 111.738 123.561 116.387 104.85L105.957 94.4199V100.279Z"
        fill="#542B29"
    />
    <path
        d="M62.9883 121.764V121.1C57.3931 117.563 53.402 111.98 51.8672 105.541L43.7305 113.678C45.6445 126.686 58.0664 136.842 77.0117 137.311C73.1646 136.914 69.6013 135.105 67.0109 132.233C64.4205 129.362 62.9872 125.631 62.9883 121.764Z"
        fill="#542B29"
    />
    <path d="M51.2695 53.9277C48.75 55.5722 46.1914 57.3144 43.457 59.2636V90.5136L51.2695 82.7011V53.9277Z" fill="#542B29" />
    <path
        d="M47.2266 198.791C28.1163 180.422 16.9733 155.29 16.1914 128.795C14.0649 126.807 11.2668 125.694 8.35591 125.679C5.44499 125.664 2.63545 126.747 0.488281 128.713V137.389C0.488281 166.268 15.8438 192.412 38.457 211.451C41.223 210.794 43.6485 209.138 45.2673 206.801C46.8861 204.464 47.5839 201.611 47.2266 198.791Z"
        fill="#61312F"
    />
    <path
        d="M167.97 225.768C167.446 224.378 166.536 223.166 165.347 222.275C164.158 221.384 162.74 220.85 161.259 220.737C149.825 225.04 137.707 227.241 125.49 227.233H117.677C106.569 227.236 95.5365 225.412 85.0208 221.834C83.4614 222.106 82.0223 222.848 80.8965 223.961C79.7706 225.074 79.0117 226.504 78.7215 228.06C78.4313 229.617 78.6235 231.224 79.2725 232.668C79.9216 234.112 80.9963 235.323 82.3528 236.139C84.5482 236.881 86.7552 237.576 88.9935 238.205C100.382 241.129 112.08 242.672 123.837 242.799C138.412 242.459 152.798 239.433 166.275 233.873C167.288 232.817 167.985 231.497 168.285 230.064C168.584 228.63 168.475 227.142 167.97 225.768Z"
        fill="#61312F"
    />
    <path
        d="M234.863 125.67C231.934 125.682 229.116 126.798 226.973 128.795C226.267 153.165 216.784 176.461 200.27 194.396C200.73 196.837 201.969 199.062 203.799 200.74C205.63 202.418 207.955 203.458 210.426 203.705C230.069 183.535 241.532 156.796 242.598 128.662C240.475 126.748 237.722 125.683 234.863 125.67Z"
        fill="#61312F"
    />
    <path
        d="M78.9023 227.287C79.3145 225.898 80.1049 224.651 81.1852 223.685C82.2655 222.719 83.593 222.073 85.0195 221.818C70.8793 217.011 57.9746 209.142 47.2266 198.771C47.5891 201.595 46.8937 204.453 45.2745 206.794C43.6552 209.135 41.2268 210.794 38.457 211.451C51.4364 222.323 66.3196 230.694 82.3516 236.139C80.8838 235.247 79.7505 233.897 79.127 232.297C78.5035 230.697 78.4246 228.936 78.9023 227.287Z"
        fill="#783D3A"
    />
    <path
        d="M200.27 194.377C189.505 206.092 176.144 215.121 161.258 220.736C162.728 220.847 164.137 221.373 165.319 222.254C166.502 223.136 167.409 224.335 167.935 225.713C168.461 227.09 168.584 228.589 168.29 230.034C167.996 231.479 167.296 232.811 166.273 233.873C182.949 227.027 197.991 216.736 210.414 203.674C207.943 203.427 205.618 202.387 203.788 200.709C201.957 199.031 200.719 196.805 200.258 194.365L200.27 194.377Z"
        fill="#783D3A"
    />
    <path
        d="M121.582 188.17C106.016 188.609 90.7174 184.062 77.918 175.193C76.9244 174.467 76.116 173.516 75.5582 172.419C75.0004 171.321 74.7088 170.108 74.707 168.877C74.707 167.778 74.2704 166.724 73.4931 165.946C72.7159 165.169 71.6617 164.732 70.5625 164.732H59.082V168.639C59.082 185.475 86.4258 203.795 120.098 203.795H123.066C156.738 203.795 184.082 185.475 184.082 168.639V164.732H172.602C171.502 164.732 170.448 165.169 169.671 165.946C168.894 166.724 168.457 167.778 168.457 168.877C168.455 170.108 168.164 171.321 167.606 172.419C167.048 173.516 166.24 174.467 165.246 175.193C152.447 184.062 137.148 188.609 121.582 188.17Z"
        fill="#783D3A"
    />
    <path
        d="M216.95 39.7325L222.001 34.6817C222.713 33.945 223.106 32.9583 223.098 31.934C223.089 30.9098 222.678 29.9301 221.954 29.2059C221.229 28.4816 220.25 28.0708 219.225 28.0619C218.201 28.053 217.214 28.4467 216.478 29.1583L211.427 34.209L206.376 29.1583C205.639 28.4467 204.653 28.053 203.628 28.0619C202.604 28.0708 201.625 28.4816 200.9 29.2059C200.176 29.9301 199.765 30.9098 199.756 31.934C199.747 32.9583 200.141 33.945 200.853 34.6817L205.903 39.7325L200.853 44.7833C200.48 45.1436 200.182 45.5746 199.977 46.0512C199.773 46.5278 199.665 47.0404 199.66 47.559C199.656 48.0777 199.755 48.5921 199.951 49.0721C200.147 49.5522 200.437 49.9884 200.804 50.3551C201.171 50.7219 201.607 51.0119 202.087 51.2083C202.567 51.4048 203.082 51.5036 203.6 51.4991C204.119 51.4946 204.632 51.3868 205.108 51.1821C205.585 50.9774 206.016 50.6798 206.376 50.3067L211.427 45.2559L216.478 50.3067C217.214 51.0183 218.201 51.412 219.225 51.4031C220.25 51.3942 221.229 50.9834 221.954 50.2591C222.678 49.5349 223.089 48.5551 223.098 47.5309C223.106 46.5067 222.713 45.52 222.001 44.7833L216.95 39.7325Z"
        fill="#CDD2E1"
    />
    <path
        d="M185.7 39.7325L190.751 34.6817C191.463 33.945 191.856 32.9583 191.848 31.934C191.839 30.9098 191.428 29.9301 190.704 29.2059C189.979 28.4816 189 28.0708 187.975 28.0619C186.951 28.053 185.964 28.4467 185.228 29.1583L180.177 34.209L175.126 29.1583C174.389 28.4467 173.403 28.053 172.378 28.0619C171.354 28.0708 170.375 28.4816 169.65 29.2059C168.926 29.9301 168.515 30.9098 168.506 31.934C168.497 32.9583 168.891 33.945 169.603 34.6817L174.653 39.7325L169.603 44.7833C169.23 45.1436 168.932 45.5746 168.727 46.0512C168.523 46.5278 168.415 47.0404 168.41 47.559C168.406 48.0777 168.505 48.5921 168.701 49.0721C168.897 49.5522 169.187 49.9884 169.554 50.3551C169.921 50.7219 170.357 51.0119 170.837 51.2083C171.317 51.4048 171.832 51.5036 172.35 51.4991C172.869 51.4946 173.382 51.3868 173.858 51.1821C174.335 50.9774 174.766 50.6798 175.126 50.3067L180.177 45.2559L185.228 50.3067C185.964 51.0183 186.951 51.412 187.975 51.4031C189 51.3942 189.979 50.9834 190.704 50.2591C191.428 49.5349 191.839 48.5551 191.848 47.5309C191.856 46.5067 191.463 45.52 190.751 44.7833L185.7 39.7325Z"
        fill="#CDD2E1"
    />
    <path
        d="M154.45 39.7325L159.501 34.6817C160.213 33.945 160.606 32.9583 160.598 31.934C160.589 30.9098 160.178 29.9301 159.454 29.2059C158.729 28.4816 157.75 28.0708 156.725 28.0619C155.701 28.053 154.714 28.4467 153.978 29.1583L148.927 34.209L143.876 29.1583C143.139 28.4467 142.153 28.053 141.128 28.0619C140.104 28.0708 139.125 28.4816 138.4 29.2059C137.676 29.9301 137.265 30.9098 137.256 31.934C137.247 32.9583 137.641 33.945 138.353 34.6817L143.403 39.7325L138.353 44.7833C137.98 45.1436 137.682 45.5746 137.477 46.0512C137.273 46.5278 137.165 47.0404 137.16 47.559C137.156 48.0777 137.255 48.5921 137.451 49.0721C137.647 49.5522 137.937 49.9884 138.304 50.3551C138.671 50.7219 139.107 51.0119 139.587 51.2083C140.067 51.4048 140.582 51.5036 141.1 51.4991C141.619 51.4946 142.132 51.3868 142.608 51.1821C143.085 50.9774 143.516 50.6798 143.876 50.3067L148.927 45.2559L153.978 50.3067C154.714 51.0183 155.701 51.412 156.725 51.4031C157.75 51.3942 158.729 50.9834 159.454 50.2591C160.178 49.5349 160.589 48.5551 160.598 47.5309C160.606 46.5067 160.213 45.52 159.501 44.7833L154.45 39.7325Z"
        fill="#CDD2E1"
    />
    <path
        d="M216.95 70.9825L222.001 65.9317C222.713 65.195 223.106 64.2083 223.098 63.184C223.089 62.1598 222.678 61.1801 221.954 60.4559C221.229 59.7316 220.25 59.3208 219.225 59.3119C218.201 59.303 217.214 59.6967 216.478 60.4083L211.427 65.4591L206.376 60.4083C205.639 59.6967 204.653 59.303 203.628 59.3119C202.604 59.3208 201.625 59.7316 200.9 60.4559C200.176 61.1801 199.765 62.1598 199.756 63.184C199.747 64.2083 200.141 65.195 200.853 65.9317L205.903 70.9825L200.853 76.0333C200.48 76.3936 200.182 76.8246 199.977 77.3012C199.773 77.7778 199.665 78.2904 199.66 78.8091C199.656 79.3277 199.755 79.8421 199.951 80.3222C200.147 80.8022 200.437 81.2384 200.804 81.6051C201.171 81.9719 201.607 82.262 202.087 82.4584C202.567 82.6548 203.082 82.7536 203.6 82.7491C204.119 82.7446 204.632 82.6368 205.108 82.4321C205.585 82.2274 206.016 81.9298 206.376 81.5567L211.427 76.5059L216.478 81.5567C217.214 82.2683 218.201 82.662 219.225 82.6531C220.25 82.6442 221.229 82.2334 221.954 81.5091C222.678 80.7849 223.089 79.8051 223.098 78.7809C223.106 77.7567 222.713 76.77 222.001 76.0333L216.95 70.9825Z"
        fill="#CDD2E1"
    />
    <path
        d="M185.7 70.9825L190.751 65.9317C191.463 65.195 191.856 64.2083 191.848 63.184C191.839 62.1598 191.428 61.1801 190.704 60.4559C189.979 59.7316 189 59.3208 187.975 59.3119C186.951 59.303 185.964 59.6967 185.228 60.4083L180.177 65.4591L175.126 60.4083C174.389 59.6967 173.403 59.303 172.378 59.3119C171.354 59.3208 170.375 59.7316 169.65 60.4559C168.926 61.1801 168.515 62.1598 168.506 63.184C168.497 64.2083 168.891 65.195 169.603 65.9317L174.653 70.9825L169.603 76.0333C169.23 76.3936 168.932 76.8246 168.727 77.3012C168.523 77.7778 168.415 78.2904 168.41 78.8091C168.406 79.3277 168.505 79.8421 168.701 80.3222C168.897 80.8022 169.187 81.2384 169.554 81.6051C169.921 81.9719 170.357 82.262 170.837 82.4584C171.317 82.6548 171.832 82.7536 172.35 82.7491C172.869 82.7446 173.382 82.6368 173.858 82.4321C174.335 82.2274 174.766 81.9298 175.126 81.5567L180.177 76.5059L185.228 81.5567C185.964 82.2683 186.951 82.662 187.975 82.6531C189 82.6442 189.979 82.2334 190.704 81.5091C191.428 80.7849 191.839 79.8051 191.848 78.7809C191.856 77.7567 191.463 76.77 190.751 76.0333L185.7 70.9825Z"
        fill="#CDD2E1"
    />
    <path
        d="M154.45 70.9825L159.501 65.9317C160.213 65.195 160.606 64.2083 160.598 63.184C160.589 62.1598 160.178 61.1801 159.454 60.4559C158.729 59.7316 157.75 59.3208 156.725 59.3119C155.701 59.303 154.714 59.6967 153.978 60.4083L148.927 65.4591L143.876 60.4083C143.139 59.6967 142.153 59.303 141.128 59.3119C140.104 59.3208 139.125 59.7316 138.4 60.4559C137.676 61.1801 137.265 62.1598 137.256 63.184C137.247 64.2083 137.641 65.195 138.353 65.9317L143.403 70.9825L138.353 76.0333C137.98 76.3936 137.682 76.8246 137.477 77.3012C137.273 77.7778 137.165 78.2904 137.16 78.8091C137.156 79.3277 137.255 79.8421 137.451 80.3222C137.647 80.8022 137.937 81.2384 138.304 81.6051C138.671 81.9719 139.107 82.262 139.587 82.4584C140.067 82.6548 140.582 82.7536 141.1 82.7491C141.619 82.7446 142.132 82.6368 142.608 82.4321C143.085 82.2274 143.516 81.9298 143.876 81.5567L148.927 76.5059L153.978 81.5567C154.714 82.2683 155.701 82.662 156.725 82.6531C157.75 82.6442 158.729 82.2334 159.454 81.5091C160.178 80.7849 160.589 79.8051 160.598 78.7809C160.606 77.7567 160.213 76.77 159.501 76.0333L154.45 70.9825Z"
        fill="#CDD2E1"
    />
    <path d="M216.51 115.163C219.014 112.658 218.216 107.8 214.728 104.314C211.239 100.828 206.382 100.034 203.878 102.539C201.374 105.045 202.172 109.902 205.66 113.388C209.149 116.874 214.007 117.669 216.51 115.163Z" fill="#F6FAFD" />
    <path d="M178.196 123.792C179.454 122.533 179.054 120.093 177.302 118.342C175.55 116.592 173.11 116.193 171.852 117.452C170.594 118.711 170.994 121.151 172.746 122.901C174.498 124.652 176.938 125.051 178.196 123.792Z" fill="#F6FAFD" />
    <path d="M167.805 112.441C168.434 111.811 168.235 110.59 167.359 109.715C166.483 108.84 165.262 108.641 164.633 109.271C164.003 109.901 164.202 111.122 165.078 111.997C165.954 112.873 167.175 113.071 167.805 112.441Z" fill="#F6FAFD" />
    <path
        d="M125.488 203.795C66.8945 203.795 16.1133 156.623 16.1133 98.3261V125.67C16.1133 152.606 26.8136 178.439 45.8603 197.485C64.9069 216.532 90.7397 227.232 117.676 227.232H125.488C152.424 227.232 178.257 216.532 197.304 197.485C216.35 178.439 227.051 152.606 227.051 125.67V98.3261C227.051 156.623 172.363 203.795 125.488 203.795Z"
        fill="#80413E"
    />
</svg>
