<svg viewBox="0 0 1241 171" fill="none" xmlns="http://www.w3.org/2000/svg">
    <path
        d="M1240.58 -76.1733C1006.33 -111.007 716.34 44.0017 429.836 80.5767C199.065 110.185 57.9904 47.485 -13.418 -1.28163V61.4184C165.103 226.877 517.79 228.618 895.732 158.952C1049 131.085 1161.34 130.214 1240.58 138.923V-76.1733Z"
        fill="url(#paint0_radial_2_1369)"
    />
    <path
        d="M1240.58 182.464C1093.41 220.781 923.599 169.402 602.261 43.1308C331.432 -63.9817 111.982 37.9059 -13.418 126.731V423.685C-12.5471 422.814 -12.5471 422.814 -11.6763 421.943C165.103 245.164 546.528 151.114 845.224 259.968C1029.84 327.023 1156.11 312.218 1240.58 273.031V182.464Z"
        fill="#EAEAEA"
    />
    <path
        d="M1240.58 153.727C1174.4 128.473 1091.67 91.8976 982.815 41.3893C589.199 -141.486 438.545 67.5143 179.907 115.41C111.111 128.473 37.0904 92.7684 -13.418 60.5476V159.823C119.82 235.585 298.34 242.552 506.47 160.693C708.503 81.4476 882.669 97.1226 1191.82 208.589C1208.36 214.685 1224.91 219.039 1240.58 223.393V153.727Z"
        fill="url(#paint1_radial_2_1369)"
    />
    <path
        d="M1240.58 66.6433C1169.17 118.022 1091.67 175.497 985.428 198.139C750.303 248.647 567.428 115.41 323.595 10.9099C168.586 -55.2734 51.0237 -12.6026 -13.418 26.5849V67.5141C260.895 -36.9859 403.711 175.497 759.011 304.381C952.336 374.918 1115.18 377.531 1240.58 354.889V66.6433Z"
        fill="url(#paint2_radial_2_1369)"
    />
    <path
        opacity="0.2"
        d="M1240.58 34.4226C1173.53 60.5476 1097.77 96.2518 1010.68 131.085C738.111 241.681 624.032 109.314 374.103 4.81433C219.095 -59.6273 74.5362 22.231 -13.418 93.6393V314.831C77.1487 193.785 216.482 96.2518 481.215 176.368C785.136 267.806 1073.38 280.868 1231.87 185.948C1234.49 184.206 1237.97 182.464 1240.58 181.593V34.4226Z"
        fill="white"
    />
    <defs>
        <radialGradient id="paint0_radial_2_1369" cx="0" cy="0" r="1" gradientUnits="userSpaceOnUse" gradientTransform="translate(608.501 -276.402) scale(688.001 688.001)">
            <stop offset="0.1939" stop-color="#EC622B" />
            <stop offset="0.4716" stop-color="#FFA581" />
            <stop offset="0.8921" stop-color="#EC622B" />
            <stop offset="1" stop-color="#EC622B" />
        </radialGradient>
        <radialGradient id="paint1_radial_2_1369" cx="0" cy="0" r="1" gradientUnits="userSpaceOnUse" gradientTransform="translate(659.858 -265.094) scale(791.634 791.635)">
            <stop stop-color="#65B7FF" />
            <stop offset="0.5212" stop-color="#3362AB" />
            <stop offset="1" stop-color="#65B7FF" />
        </radialGradient>
        <radialGradient id="paint2_radial_2_1369" cx="0" cy="0" r="1" gradientUnits="userSpaceOnUse" gradientTransform="translate(650.324 -111.501) scale(831.9 831.9)">
            <stop stop-color="#009704" />
            <stop offset="1" stop-color="#006A33" />
        </radialGradient>
    </defs>
</svg>
