<svg id="wave-classic" viewBox="0 0 925 384" aria-hidden="true" fill="none" xmlns="http://www.w3.org/2000/svg">
    <path
        d="M1240 0.0694847C1005.75 -34.8082 715.758 120.398 429.254 157.019C198.483 186.665 57.4083 123.885 -14 75.0565V137.836C164.521 303.505 517.208 305.249 895.15 235.494C1048.42 207.592 1160.75 206.72 1240 215.439V0.0694847Z"
        fill="url(#paint0_radial_2_594)"
    />
    <path
        d="M1240 258.517C1092.83 296.875 923.017 245.44 601.679 119.032C330.85 11.8032 111.4 113.802 -14 202.723V500C-13.1292 499.128 -13.1292 499.128 -12.2583 498.256C164.521 321.285 545.946 227.133 844.642 336.105C1029.26 403.232 1155.53 388.412 1240 349.182V258.517Z"
        fill="#EAEAEA"
    />
    <path
        d="M1240 230.261C1173.82 204.981 1091.09 168.369 982.233 117.808C588.617 -65.2555 437.962 143.96 179.325 191.905C110.529 204.981 36.5083 169.24 -14 136.986V236.364C119.238 312.204 297.758 319.178 505.888 237.235C707.921 157.908 882.087 173.599 1191.23 285.181C1207.78 291.283 1224.32 295.641 1240 300V230.261Z"
        fill="url(#paint1_radial_2_594)"
    />
    <path
        d="M1240 143.168C1168.59 194.534 1091.09 251.994 984.846 274.63C749.721 325.125 566.846 191.922 323.012 87.4497C168.004 21.2837 50.4417 63.9434 -14 103.121V144.039C260.312 39.5664 403.129 251.994 758.429 380.844C951.754 451.363 1114.6 453.974 1240 431.339V143.168Z"
        fill="url(#paint2_radial_2_594)"
    />
    <path
        opacity="0.2"
        d="M1240 110.906C1172.95 137.002 1097.18 172.666 1010.1 207.46C737.529 317.932 623.45 185.714 373.521 81.3313C218.512 16.962 73.9542 98.7284 -14 170.057V391C76.5667 270.09 215.9 172.666 480.633 252.693C784.554 344.028 1072.8 357.076 1231.29 262.261C1233.9 260.522 1237.39 258.782 1240 257.912V110.906Z"
        fill="white"
    />
    <defs>
        <radialGradient id="paint0_radial_2_594" cx="0" cy="0" r="1" gradientUnits="userSpaceOnUse" gradientTransform="translate(607.919 -200.414) scale(688.001 688.877)">
            <stop offset="0.1939" stop-color="#EC622B" />
            <stop offset="0.4716" stop-color="#FFA581" />
            <stop offset="0.8921" stop-color="#EC622B" />
            <stop offset="1" stop-color="#EC622B" />
        </radialGradient>
        <radialGradient id="paint1_radial_2_594" cx="0" cy="0" r="1" gradientUnits="userSpaceOnUse" gradientTransform="translate(659.276 -188.992) scale(791.634 792.451)">
            <stop stop-color="#65B7FF" />
            <stop offset="0.5212" stop-color="#3362AB" />
            <stop offset="1" stop-color="#65B7FF" />
        </radialGradient>
        <radialGradient id="paint2_radial_2_594" cx="0" cy="0" r="1" gradientUnits="userSpaceOnUse" gradientTransform="translate(649.742 -34.9286) scale(831.9 831.682)">
            <stop stop-color="#009704" />
            <stop offset="1" stop-color="#006A33" />
        </radialGradient>
    </defs>
</svg>