<svg id="wave-sharp" viewBox="0 0 925 384" aria-hidden="true" fill="none" xmlns="http://www.w3.org/2000/svg">
    <path
        d="M662.323 130.195C729.116 74.2816 793.34 12.5837 858.207 -25.3348C881.328 -38.1886 903.164 -43.9727 925 -41.402V183.538C917.293 186.752 909.586 190.608 901.237 195.107C800.405 252.948 691.224 349.351 578.19 349.994C495.983 350.637 415.703 299.864 329 263.874C337.991 265.159 346.983 266.445 355.332 267.087C415.06 272.872 540.94 231.74 662.323 130.195Z"
        fill="#EAEAEA"
    />
    <path d="M0 254.496C59.1172 239.764 133.014 216.705 226.83 232.078C262.172 237.842 296.229 249.372 329 262.823C271.168 254.496 195.986 237.202 129.801 257.058C79.6797 271.79 34.0566 305.098 0 332V254.496Z" fill="#EAEAEA" />
    <path d="M925 157.943V306.991C868.455 291.573 796.488 287.075 709.101 309.561C561.312 348.75 425.733 322.41 312 259.45C511.835 246.601 681.471 145.737 815.123 135.458C855.604 132.888 892.23 141.24 925 157.943Z" fill="#65B7FF" />
    <path d="M0 84C89.8766 90.4263 183.605 181.037 290.815 247.228C297.877 251.727 304.938 255.583 312 259.438C301.728 260.081 290.815 260.724 279.901 260.724C148.938 262.652 59.7037 253.655 0 259.438V84Z" fill="#65B7FF" />
    <path
        d="M512.649 289.67C590.38 283.244 717.576 174.007 822.93 27.5017C859.547 -23.9038 894.237 -90.731 927 -128V213.847C905.801 212.562 880.747 217.702 851.839 232.481C795.949 262.039 720.146 339.148 632.779 348.144C546.696 357.14 454.832 292.883 347.551 266.537C337.915 263.967 327.636 262.682 318 261.397C380.956 263.967 442.627 294.81 512.649 289.67Z"
        fill="#EC622B"
    />
    <path
        d="M-3 311.397C18.8374 310.756 41.317 308.192 63.7967 303.706C140.87 287.682 225.65 250.507 313 260.762C306.577 260.762 300.797 260.762 294.374 260.762C223.081 265.248 147.293 313.961 63.7967 383.184C41.9593 401.131 19.4797 413.95 -2.3577 421V311.397H-3Z"
        fill="#E1845F"
    />
    <path
        d="M665.772 241.557C779.378 276.259 859.607 277.544 918.656 212.639C921.223 209.426 924.433 206.213 927 203V469.688C875.011 499.248 810.828 487.038 744.718 424.062C656.787 338.593 586.827 282.685 517.508 264.049C454.608 247.983 388.499 266.619 298 260.193C406.47 234.488 536.763 201.072 665.772 241.557Z"
        fill="#009704"
    />
    <path d="M0 156C71.8261 182.331 160.967 244.626 275.12 257.471C282.174 258.113 288.587 258.755 295 259.398C221.891 276.738 158.402 290.224 112.87 276.095C80.8043 266.462 40.4022 263.893 0 265.82V156Z" fill="#009704" />
    <path
        opacity="0.22"
        d="M784.345 189.251C829.946 161.557 879.4 130.644 925 130V146.101C880.042 148.033 831.872 177.658 786.914 205.351C729.111 240.773 671.95 275.551 613.504 294.227C556.985 312.26 497.255 313.548 436.241 299.38C395.136 289.719 353.389 274.263 311 259.45C352.105 271.686 392.567 285.211 433.029 292.295C553.132 315.48 668.096 259.45 784.345 189.251Z"
        fill="white"
    />
    <path
        opacity="0.22"
        d="M0 253.339C24.4174 246.898 48.1921 241.102 71.9669 235.949C86.7458 233.373 100.882 230.153 115.019 228.22C129.155 226.288 143.291 225 158.07 225C187.628 225 217.828 230.797 248.671 239.17C269.233 244.966 289.795 251.407 311 259.136C291.081 253.339 271.161 247.542 251.242 243.034C221.041 235.949 191.483 231.441 162.568 232.085C147.789 232.085 134.295 233.373 119.517 235.949C104.738 237.881 89.9587 241.102 75.8223 244.322C50.7624 249.475 25.7025 256.559 0 263V253.339Z"
        fill="white"
    />
</svg>