<svg id="wave-smooth" viewBox="0 0 925 417" aria-hidden="true" fill="none" xmlns="http://www.w3.org/2000/svg">
    <g opacity="0.4">
        <path
            d="M660.323 258.195C727.116 202.282 791.34 140.584 856.207 102.665C879.328 89.8114 901.164 84.0273 923 86.598V311.538C915.293 314.752 907.586 318.608 899.237 323.107C798.405 380.948 689.224 477.351 576.19 477.994C493.983 478.637 413.703 427.864 327 391.874C335.991 393.159 344.983 394.445 353.332 395.087C413.06 400.872 538.94 359.74 660.323 258.195Z"
            fill="#EAEAEA"
        />
        <path d="M-2 382.496C57.1172 367.764 131.014 344.705 224.83 360.078C260.172 365.842 294.229 377.372 327 390.823C269.168 382.496 193.986 365.202 127.801 385.058C77.6797 399.79 32.0566 433.098 -2 460V382.496Z" fill="#EAEAEA" />
        <path d="M923 285.943V434.991C866.455 419.573 794.488 415.075 707.101 437.561C559.312 476.75 423.733 450.41 310 387.45C509.835 374.601 679.471 273.737 813.123 263.458C853.604 260.888 890.23 269.24 923 285.943Z" fill="#65B7FF" />
        <path d="M-2 212C87.8766 218.426 181.605 309.037 288.815 375.228C295.877 379.727 302.938 383.583 310 387.438C299.728 388.081 288.815 388.724 277.901 388.724C146.938 390.652 57.7037 381.655 -2 387.438V212Z" fill="#65B7FF" />
        <path
            d="M510.649 417.67C588.38 411.244 715.576 302.007 820.93 155.502C857.547 104.096 892.237 37.269 925 0V341.847C903.801 340.562 878.747 345.702 849.839 360.481C793.949 390.039 718.146 467.148 630.779 476.144C544.696 485.14 452.832 420.883 345.551 394.537C335.915 391.967 325.636 390.682 316 389.397C378.956 391.967 440.627 422.81 510.649 417.67Z"
            fill="#EC622B"
        />
        <path
            d="M-5 439.397C16.8374 438.756 39.317 436.192 61.7967 431.706C138.87 415.682 223.65 378.507 311 388.762C304.577 388.762 298.797 388.762 292.374 388.762C221.081 393.248 145.293 441.961 61.7967 511.184C39.9593 529.131 17.4797 541.95 -4.3577 549V439.397H-5Z"
            fill="#E1845F"
        />
        <path
            d="M663.772 369.557C777.378 404.259 857.607 405.544 916.656 340.639C919.223 337.426 922.433 334.213 925 331V597.688C873.011 627.248 808.828 615.038 742.718 552.062C654.787 466.593 584.827 410.685 515.508 392.049C452.608 375.983 386.499 394.619 296 388.193C404.47 362.488 534.763 329.072 663.772 369.557Z"
            fill="#009704"
        />
        <path d="M-2 284C69.8261 310.331 158.967 372.626 273.12 385.471C280.174 386.113 286.587 386.755 293 387.398C219.891 404.738 156.402 418.224 110.87 404.095C78.8043 394.462 38.4022 391.893 -2 393.82V284Z" fill="#009704" />
        <path
            opacity="0.22"
            d="M782.345 317.251C827.946 289.557 877.4 258.644 923 258V274.101C878.042 276.033 829.872 305.658 784.914 333.351C727.111 368.773 669.95 403.551 611.504 422.227C554.985 440.26 495.255 441.548 434.241 427.38C393.136 417.719 351.389 402.263 309 387.45C350.105 399.686 390.567 413.211 431.029 420.295C551.132 443.48 666.096 387.45 782.345 317.251Z"
            fill="white"
        />
        <path
            opacity="0.22"
            d="M-2 381.339C22.4174 374.898 46.1921 369.102 69.9669 363.949C84.7458 361.373 98.8822 358.153 113.019 356.22C127.155 354.288 141.291 353 156.07 353C185.628 353 215.828 358.797 246.671 367.17C267.233 372.966 287.795 379.407 309 387.136C289.081 381.339 269.161 375.542 249.242 371.034C219.041 363.949 189.483 359.441 160.568 360.085C145.789 360.085 132.295 361.373 117.517 363.949C102.738 365.881 87.9587 369.102 73.8223 372.322C48.7624 377.475 23.7025 384.559 -2 391V381.339Z"
            fill="white"
        />
    </g>
</svg>