<svg id="wave" viewBox="0 0 1241 385" fill="none" aria-hidden="true" xmlns="http://www.w3.org/2000/svg">
    <path
        d="M1240.58 0.82671C1006.33 -34.0066 716.34 121.002 429.836 157.577C199.065 187.185 57.9904 124.485 -13.418 75.7184V138.418C165.103 303.877 517.79 305.618 895.732 235.952C1049 208.085 1161.34 207.214 1240.58 215.923V0.82671Z"
        fill="url(#paint0_radial_2_1383)"
    />
    <path
        d="M1240.58 259.464C1093.41 297.781 923.599 246.402 602.261 120.131C331.432 13.0183 111.982 114.906 -13.418 203.731V500.685C-12.5471 499.814 -12.5471 499.814 -11.6763 498.943C165.103 322.164 546.528 228.114 845.224 336.968C1029.84 404.023 1156.11 389.218 1240.58 350.031V259.464Z"
        fill="#141E55"
    />
    <path
        d="M1240.58 230.727C1174.4 205.473 1091.67 168.898 982.815 118.389C589.199 -64.4857 438.545 144.514 179.907 192.41C111.111 205.473 37.0904 169.768 -13.418 137.548V236.823C119.82 312.585 298.34 319.552 506.47 237.693C708.503 158.448 882.669 174.123 1191.82 285.589C1208.36 291.685 1224.91 296.039 1240.58 300.393V230.727Z"
        fill="url(#paint1_radial_2_1383)"
    />
    <path
        d="M1240.58 143.643C1169.17 195.022 1091.67 252.497 985.428 275.139C750.303 325.647 567.428 192.41 323.595 87.9099C168.586 21.7266 51.0237 64.3974 -13.418 103.585V144.514C260.895 40.0141 403.711 252.497 759.011 381.381C952.336 451.918 1115.18 454.531 1240.58 431.889V143.643Z"
        fill="url(#paint2_radial_2_1383)"
    />
    <path
        opacity="0.2"
        d="M1240.58 111.423C1173.53 137.548 1097.77 173.252 1010.68 208.085C738.111 318.681 624.032 186.314 374.103 81.8143C219.095 17.3727 74.5362 99.231 -13.418 170.639V391.831C77.1487 270.785 216.482 173.252 481.215 253.368C785.136 344.806 1073.38 357.868 1231.87 262.948C1234.49 261.206 1237.97 259.464 1240.58 258.593V111.423Z"
        fill="white"
    />
    <defs>
        <radialGradient id="paint0_radial_2_1383" cx="0" cy="0" r="1" gradientUnits="userSpaceOnUse" gradientTransform="translate(608.501 -199.402) scale(688.001 688.001)">
            <stop offset="0.1939" stop-color="#EC622B" />
            <stop offset="0.4716" stop-color="#FFA581" />
            <stop offset="0.8921" stop-color="#EC622B" />
            <stop offset="1" stop-color="#EC622B" />
        </radialGradient>
        <radialGradient id="paint1_radial_2_1383" cx="0" cy="0" r="1" gradientUnits="userSpaceOnUse" gradientTransform="translate(659.858 -188.094) scale(791.634 791.635)">
            <stop stop-color="#65B7FF" />
            <stop offset="0.5212" stop-color="#3362AB" />
            <stop offset="1" stop-color="#65B7FF" />
        </radialGradient>
        <radialGradient id="paint2_radial_2_1383" cx="0" cy="0" r="1" gradientUnits="userSpaceOnUse" gradientTransform="translate(650.324 -34.5005) scale(831.9 831.9)">
            <stop stop-color="#009704" />
            <stop offset="1" stop-color="#006A33" />
        </radialGradient>
    </defs>
</svg>